<?xml version="1.0" encoding="utf-8"?>
<!DOCTYPE svg PUBLIC "-//W3C//DTD SVG 1.1//EN" "http://www.w3.org/Graphics/SVG/1.1/DTD/svg11.dtd">
<svg xmlns="http://www.w3.org/2000/svg" xmlns:xlink="http://www.w3.org/1999/xlink" version="1.1" class="marks" width="457" height="464" viewBox="0 0 457 464"><rect width="457" height="464" fill="white"/><g fill="none" stroke-miterlimit="10" transform="translate(51,27)"><g class="mark-group role-frame root" role="graphics-object" aria-roledescription="group mark container"><g transform="translate(0,0)"><path class="background" aria-hidden="true" d="M0.5,0.5h400v400h-400Z" stroke="#ddd"/><g><g class="mark-group role-axis" role="graphics-symbol" aria-roledescription="axis" aria-label="X-axis titled 'predicted' for a linear scale with values from −150 to 350"><g transform="translate(0.5,400.5)"><path class="background" aria-hidden="true" d="M0,0h0v0h0Z" pointer-events="none"/><g><g class="mark-rule role-axis-tick" pointer-events="none"><line transform="translate(0,0)" x2="0" y2="5" stroke="#888" stroke-width="1" opacity="1"/><line transform="translate(40,0)" x2="0" y2="5" stroke="#888" stroke-width="1" opacity="1"/><line transform="translate(80,0)" x2="0" y2="5" stroke="#888" stroke-width="1" opacity="1"/><line transform="translate(120,0)" x2="0" y2="5" stroke="#888" stroke-width="1" opacity="1"/><line transform="translate(160,0)" x2="0" y2="5" stroke="#888" stroke-width="1" opacity="1"/><line transform="translate(200,0)" x2="0" y2="5" stroke="#888" stroke-width="1" opacity="1"/><line transform="translate(240,0)" x2="0" y2="5" stroke="#888" stroke-width="1" opacity="1"/><line transform="translate(280,0)" x2="0" y2="5" stroke="#888" stroke-width="1" opacity="1"/><line transform="translate(320,0)" x2="0" y2="5" stroke="#888" stroke-width="1" opacity="1"/><line transform="translate(360,0)" x2="0" y2="5" stroke="#888" stroke-width="1" opacity="1"/><line transform="translate(400,0)" x2="0" y2="5" stroke="#888" stroke-width="1" opacity="1"/></g><g class="mark-text role-axis-label" pointer-events="none"><text text-anchor="start" transform="translate(0,15)" font-family="sans-serif" font-size="10px" fill="#000" opacity="1">−150</text><text text-anchor="middle" transform="translate(40,15)" font-family="sans-serif" font-size="10px" fill="#000" opacity="1">−100</text><text text-anchor="middle" transform="translate(80,15)" font-family="sans-serif" font-size="10px" fill="#000" opacity="1">−50</text><text text-anchor="middle" transform="translate(120,15)" font-family="sans-serif" font-size="10px" fill="#000" opacity="1">0</text><text text-anchor="middle" transform="translate(160,15)" font-family="sans-serif" font-size="10px" fill="#000" opacity="1">50</text><text text-anchor="middle" transform="translate(200,15)" font-family="sans-serif" font-size="10px" fill="#000" opacity="1">100</text><text text-anchor="middle" transform="translate(240,15)" font-family="sans-serif" font-size="10px" fill="#000" opacity="1">150</text><text text-anchor="middle" transform="translate(280,15)" font-family="sans-serif" font-size="10px" fill="#000" opacity="1">200</text><text text-anchor="middle" transform="translate(320,15)" font-family="sans-serif" font-size="10px" fill="#000" opacity="1">250</text><text text-anchor="middle" transform="translate(360,15)" font-family="sans-serif" font-size="10px" fill="#000" opacity="1">300</text><text text-anchor="end" transform="translate(400,15)" font-family="sans-serif" font-size="10px" fill="#000" opacity="1">350</text></g><g class="mark-rule role-axis-domain" pointer-events="none"><line transform="translate(0,0)" x2="400" y2="0" stroke="#888" stroke-width="1" opacity="1"/></g><g class="mark-text role-axis-title" pointer-events="none"><text text-anchor="middle" transform="translate(200,30)" font-family="sans-serif" font-size="11px" font-weight="bold" fill="#000" opacity="1">predicted</text></g></g><path class="foreground" aria-hidden="true" d="" pointer-events="none" display="none"/></g></g><g class="mark-group role-axis" role="graphics-symbol" aria-roledescription="axis" aria-label="Y-axis titled 'residuals' for a linear scale with values from −100 to 250"><g transform="translate(0.5,0.5)"><path class="background" aria-hidden="true" d="M0,0h0v0h0Z" pointer-events="none"/><g><g class="mark-rule role-axis-tick" pointer-events="none"><line transform="translate(0,400)" x2="-5" y2="0" stroke="#888" stroke-width="1" opacity="1"/><line transform="translate(0,343)" x2="-5" y2="0" stroke="#888" stroke-width="1" opacity="1"/><line transform="translate(0,286)" x2="-5" y2="0" stroke="#888" stroke-width="1" opacity="1"/><line transform="translate(0,229)" x2="-5" y2="0" stroke="#888" stroke-width="1" opacity="1"/><line transform="translate(0,171)" x2="-5" y2="0" stroke="#888" stroke-width="1" opacity="1"/><line transform="translate(0,114)" x2="-5" y2="0" stroke="#888" stroke-width="1" opacity="1"/><line transform="translate(0,57)" x2="-5" y2="0" stroke="#888" stroke-width="1" opacity="1"/><line transform="translate(0,0)" x2="-5" y2="0" stroke="#888" stroke-width="1" opacity="1"/></g><g class="mark-text role-axis-label" pointer-events="none"><text text-anchor="end" transform="translate(-7,403)" font-family="sans-serif" font-size="10px" fill="#000" opacity="1">−100</text><text text-anchor="end" transform="translate(-7,345.8571428571429)" font-family="sans-serif" font-size="10px" fill="#000" opacity="1">−50</text><text text-anchor="end" transform="translate(-7,288.7142857142857)" font-family="sans-serif" font-size="10px" fill="#000" opacity="1">0</text><text text-anchor="end" transform="translate(-7,231.57142857142856)" font-family="sans-serif" font-size="10px" fill="#000" opacity="1">50</text><text text-anchor="end" transform="translate(-7,174.42857142857144)" font-family="sans-serif" font-size="10px" fill="#000" opacity="1">100</text><text text-anchor="end" transform="translate(-7,117.28571428571428)" font-family="sans-serif" font-size="10px" fill="#000" opacity="1">150</text><text text-anchor="end" transform="translate(-7,60.14285714285716)" font-family="sans-serif" font-size="10px" fill="#000" opacity="1">200</text><text text-anchor="end" transform="translate(-7,3)" font-family="sans-serif" font-size="10px" fill="#000" opacity="1">250</text></g><g class="mark-rule role-axis-domain" pointer-events="none"><line transform="translate(0,400)" x2="0" y2="-400" stroke="#888" stroke-width="1" opacity="1"/></g><g class="mark-text role-axis-title" pointer-events="none"><text text-anchor="middle" transform="translate(-35,200) rotate(-90) translate(0,-2)" font-family="sans-serif" font-size="11px" font-weight="bold" fill="#000" opacity="1">residuals</text></g></g><path class="foreground" aria-hidden="true" d="" pointer-events="none" display="none"/></g></g><g class="mark-symbol role-mark layer_0_marks" role="graphics-object" aria-roledescription="symbol mark container"><path aria-label="predicted: −114.355846257; residuals: 97.6919470605" role="graphics-symbol" aria-roledescription="point" transform="translate(28.51532299456261,174.06634621652643)" d="M2.7386127875258306,0A2.7386127875258306,2.7386127875258306,0,1,1,-2.7386127875258306,0A2.7386127875258306,2.7386127875258306,0,1,1,2.7386127875258306,0" stroke="#4c78a8" stroke-width="2" opacity="0.7"/><path aria-label="predicted: −109.881671864; residuals: 92.4434972188" role="graphics-symbol" aria-roledescription="point" transform="translate(32.09466250856993,180.0645746071254)" d="M2.7386127875258306,0A2.7386127875258306,2.7386127875258306,0,1,1,-2.7386127875258306,0A2.7386127875258306,2.7386127875258306,0,1,1,2.7386127875258306,0" stroke="#4c78a8" stroke-width="2" opacity="0.7"/><path aria-label="predicted: −105.407497472; residuals: 92.1335217942" role="graphics-symbol" aria-roledescription="point" transform="translate(35.67400202257724,180.41883223520497)" d="M2.7386127875258306,0A2.7386127875258306,2.7386127875258306,0,1,1,-2.7386127875258306,0A2.7386127875258306,2.7386127875258306,0,1,1,2.7386127875258306,0" stroke="#4c78a8" stroke-width="2" opacity="0.7"/><path aria-label="predicted: −100.933323079; residuals: 87.3240169804" role="graphics-symbol" aria-roledescription="point" transform="translate(39.253341536584585,185.9154091652946)" d="M2.7386127875258306,0A2.7386127875258306,2.7386127875258306,0,1,1,-2.7386127875258306,0A2.7386127875258306,2.7386127875258306,0,1,1,2.7386127875258306,0" stroke="#4c78a8" stroke-width="2" opacity="0.7"/><path aria-label="predicted: −96.4591486868; residuals: 90.4968971838" role="graphics-symbol" aria-roledescription="point" transform="translate(42.832681050591894,182.28926036137722)" d="M2.7386127875258306,0A2.7386127875258306,2.7386127875258306,0,1,1,-2.7386127875258306,0A2.7386127875258306,2.7386127875258306,0,1,1,2.7386127875258306,0" stroke="#4c78a8" stroke-width="2" opacity="0.7"/><path aria-label="predicted: −91.9849742943; residuals: 89.1952736981" role="graphics-symbol" aria-roledescription="point" transform="translate(46.412020564599224,183.77683005935063)" d="M2.7386127875258306,0A2.7386127875258306,2.7386127875258306,0,1,1,-2.7386127875258306,0A2.7386127875258306,2.7386127875258306,0,1,1,2.7386127875258306,0" stroke="#4c78a8" stroke-width="2" opacity="0.7"/><path aria-label="predicted: −87.5107999017; residuals: 79.4675039316" role="graphics-symbol" aria-roledescription="point" transform="translate(49.99136007860655,194.89428122097178)" d="M2.7386127875258306,0A2.7386127875258306,2.7386127875258306,0,1,1,-2.7386127875258306,0A2.7386127875258306,2.7386127875258306,0,1,1,2.7386127875258306,0" stroke="#4c78a8" stroke-width="2" opacity="0.7"/><path aria-label="predicted: −83.0366255092; residuals: 72.2917687741" role="graphics-symbol" aria-roledescription="point" transform="translate(53.57069959261387,203.09512140107225)" d="M2.7386127875258306,0A2.7386127875258306,2.7386127875258306,0,1,1,-2.7386127875258306,0A2.7386127875258306,2.7386127875258306,0,1,1,2.7386127875258306,0" stroke="#4c78a8" stroke-width="2" opacity="0.7"/><path aria-label="predicted: −78.5624511167; residuals: 69.1463366976" role="graphics-symbol" aria-roledescription="point" transform="translate(57.1500391066212,206.6899009169929)" d="M2.7386127875258306,0A2.7386127875258306,2.7386127875258306,0,1,1,-2.7386127875258306,0A2.7386127875258306,2.7386127875258306,0,1,1,2.7386127875258306,0" stroke="#4c78a8" stroke-width="2" opacity="0.7"/><path aria-label="predicted: −74.0882767242; residuals: 66.6019510425" role="graphics-symbol" aria-roledescription="point" transform="translate(60.7293786206285,209.59777023716956)" d="M2.7386127875258306,0A2.7386127875258306,2.7386127875258306,0,1,1,-2.7386127875258306,0A2.7386127875258306,2.7386127875258306,0,1,1,2.7386127875258306,0" stroke="#4c78a8" stroke-width="2" opacity="0.7"/><path aria-label="predicted: −69.6141023317; residuals: 71.4902763938" role="graphics-symbol" aria-roledescription="point" transform="translate(64.30871813463584,204.01111269278314)" d="M2.7386127875258306,0A2.7386127875258306,2.7386127875258306,0,1,1,-2.7386127875258306,0A2.7386127875258306,2.7386127875258306,0,1,1,2.7386127875258306,0" stroke="#4c78a8" stroke-width="2" opacity="0.7"/><path aria-label="predicted: −65.1399279392; residuals: 63.2570907763" role="graphics-symbol" aria-roledescription="point" transform="translate(67.88805764864314,213.42046768421926)" d="M2.7386127875258306,0A2.7386127875258306,2.7386127875258306,0,1,1,-2.7386127875258306,0A2.7386127875258306,2.7386127875258306,0,1,1,2.7386127875258306,0" stroke="#4c78a8" stroke-width="2" opacity="0.7"/><path aria-label="predicted: −60.6657535467; residuals: 56.7870141835" role="graphics-symbol" aria-roledescription="point" transform="translate(71.46739716265047,220.81484093314822)" d="M2.7386127875258306,0A2.7386127875258306,2.7386127875258306,0,1,1,-2.7386127875258306,0A2.7386127875258306,2.7386127875258306,0,1,1,2.7386127875258306,0" stroke="#4c78a8" stroke-width="2" opacity="0.7"/><path aria-label="predicted: −56.1915791542; residuals: 44.6362856614" role="graphics-symbol" aria-roledescription="point" transform="translate(75.04673667665779,234.7013878155294)" d="M2.7386127875258306,0A2.7386127875258306,2.7386127875258306,0,1,1,-2.7386127875258306,0A2.7386127875258306,2.7386127875258306,0,1,1,2.7386127875258306,0" stroke="#4c78a8" stroke-width="2" opacity="0.7"/><path aria-label="predicted: −51.7174047617; residuals: 47.9974261268" role="graphics-symbol" aria-roledescription="point" transform="translate(78.62607619066512,230.86008442653983)" d="M2.7386127875258306,0A2.7386127875258306,2.7386127875258306,0,1,1,-2.7386127875258306,0A2.7386127875258306,2.7386127875258306,0,1,1,2.7386127875258306,0" stroke="#4c78a8" stroke-width="2" opacity="0.7"/><path aria-label="predicted: −47.2432303692; residuals: 44.6289725405" role="graphics-symbol" aria-roledescription="point" transform="translate(82.20541570467245,234.7097456679586)" d="M2.7386127875258306,0A2.7386127875258306,2.7386127875258306,0,1,1,-2.7386127875258306,0A2.7386127875258306,2.7386127875258306,0,1,1,2.7386127875258306,0" stroke="#4c78a8" stroke-width="2" opacity="0.7"/><path aria-label="predicted: −42.7690559767; residuals: 44.0731494805" role="graphics-symbol" aria-roledescription="point" transform="translate(85.78475521867976,235.34497202226933)" d="M2.7386127875258306,0A2.7386127875258306,2.7386127875258306,0,1,1,-2.7386127875258306,0A2.7386127875258306,2.7386127875258306,0,1,1,2.7386127875258306,0" stroke="#4c78a8" stroke-width="2" opacity="0.7"/><path aria-label="predicted: −38.2948815841; residuals: 33.3694836926" role="graphics-symbol" aria-roledescription="point" transform="translate(89.3640947326871,247.57773292270366)" d="M2.7386127875258306,0A2.7386127875258306,2.7386127875258306,0,1,1,-2.7386127875258306,0A2.7386127875258306,2.7386127875258306,0,1,1,2.7386127875258306,0" stroke="#4c78a8" stroke-width="2" opacity="0.7"/><path aria-label="predicted: −33.8207071916; residuals: 34.6911581351" role="graphics-symbol" aria-roledescription="point" transform="translate(92.94343424669441,246.0672478456305)" d="M2.7386127875258306,0A2.7386127875258306,2.7386127875258306,0,1,1,-2.7386127875258306,0A2.7386127875258306,2.7386127875258306,0,1,1,2.7386127875258306,0" stroke="#4c78a8" stroke-width="2" opacity="0.7"/><path aria-label="predicted: −29.3465327991; residuals: 28.0646653802" role="graphics-symbol" aria-roledescription="point" transform="translate(96.52277376070172,253.64038242260185)" d="M2.7386127875258306,0A2.7386127875258306,2.7386127875258306,0,1,1,-2.7386127875258306,0A2.7386127875258306,2.7386127875258306,0,1,1,2.7386127875258306,0" stroke="#4c78a8" stroke-width="2" opacity="0.7"/><path aria-label="predicted: −24.8723584066; residuals: 27.7110072913" role="graphics-symbol" aria-roledescription="point" transform="translate(100.10211327470905,254.04456309570014)" d="M2.7386127875258306,0A2.7386127875258306,2.7386127875258306,0,1,1,-2.7386127875258306,0A2.7386127875258306,2.7386127875258306,0,1,1,2.7386127875258306,0" stroke="#4c78a8" stroke-width="2" opacity="0.7"/><path aria-label="predicted: −20.3981840141; residuals: 21.3653440814" role="graphics-symbol" aria-roledescription="point" transform="translate(103.68145278871637,261.2967496213034)" d="M2.7386127875258306,0A2.7386127875258306,2.7386127875258306,0,1,1,-2.7386127875258306,0A2.7386127875258306,2.7386127875258306,0,1,1,2.7386127875258306,0" stroke="#4c78a8" stroke-width="2" opacity="0.7"/><path aria-label="predicted: −15.9240096216; residuals: 16.1966885035" role="graphics-symbol" aria-roledescription="point" transform="translate(107.2607923027237,267.2037845674595)" d="M2.7386127875258306,0A2.7386127875258306,2.7386127875258306,0,1,1,-2.7386127875258306,0A2.7386127875258306,2.7386127875258306,0,1,1,2.7386127875258306,0" stroke="#4c78a8" stroke-width="2" opacity="0.7"/><path aria-label="predicted: −11.4498352291; residuals: 11.0736379011" role="graphics-symbol" aria-roledescription="point" transform="translate(110.84013181673103,273.0586995416355)" d="M2.7386127875258306,0A2.7386127875258306,2.7386127875258306,0,1,1,-2.7386127875258306,0A2.7386127875258306,2.7386127875258306,0,1,1,2.7386127875258306,0" stroke="#4c78a8" stroke-width="2" opacity="0.7"/><path aria-label="predicted: −6.97566083658; residuals: 6.98279051018" role="graphics-symbol" aria-roledescription="point" transform="translate(114.41947133073833,277.7339537026479)" d="M2.7386127875258306,0A2.7386127875258306,2.7386127875258306,0,1,1,-2.7386127875258306,0A2.7386127875258306,2.7386127875258306,0,1,1,2.7386127875258306,0" stroke="#4c78a8" stroke-width="2" opacity="0.7"/><path aria-label="predicted: −2.50148644407; residuals: 1.12104077024" role="graphics-symbol" aria-roledescription="point" transform="translate(117.99881084474566,284.4330962625828)" d="M2.7386127875258306,0A2.7386127875258306,2.7386127875258306,0,1,1,-2.7386127875258306,0A2.7386127875258306,2.7386127875258306,0,1,1,2.7386127875258306,0" stroke="#4c78a8" stroke-width="2" opacity="0.7"/><path aria-label="predicted: 1.97268794844; residuals: 1.48589134819" role="graphics-symbol" aria-roledescription="point" transform="translate(121.57815035875299,284.0161241734974)" d="M2.7386127875258306,0A2.7386127875258306,2.7386127875258306,0,1,1,-2.7386127875258306,0A2.7386127875258306,2.7386127875258306,0,1,1,2.7386127875258306,0" stroke="#4c78a8" stroke-width="2" opacity="0.7"/><path aria-label="predicted: 6.44686234095; residuals: −5.91357234715" role="graphics-symbol" aria-roledescription="point" transform="translate(125.15748987276032,292.4726541110328)" d="M2.7386127875258306,0A2.7386127875258306,2.7386127875258306,0,1,1,-2.7386127875258306,0A2.7386127875258306,2.7386127875258306,0,1,1,2.7386127875258306,0" stroke="#4c78a8" stroke-width="2" opacity="0.7"/><path aria-label="predicted: 10.9210367335; residuals: −4.55390813749" role="graphics-symbol" aria-roledescription="point" transform="translate(128.73682938676762,290.9187521571371)" d="M2.7386127875258306,0A2.7386127875258306,2.7386127875258306,0,1,1,-2.7386127875258306,0A2.7386127875258306,2.7386127875258306,0,1,1,2.7386127875258306,0" stroke="#4c78a8" stroke-width="2" opacity="0.7"/><path aria-label="predicted: 15.395211126; residuals: −14.398776267" role="graphics-symbol" aria-roledescription="point" transform="translate(132.31616890077495,302.1700300193922)" d="M2.7386127875258306,0A2.7386127875258306,2.7386127875258306,0,1,1,-2.7386127875258306,0A2.7386127875258306,2.7386127875258306,0,1,1,2.7386127875258306,0" stroke="#4c78a8" stroke-width="2" opacity="0.7"/><path aria-label="predicted: 19.8693855185; residuals: −15.9793932681" role="graphics-symbol" aria-roledescription="point" transform="translate(135.89550841478226,303.9764494492635)" d="M2.7386127875258306,0A2.7386127875258306,2.7386127875258306,0,1,1,-2.7386127875258306,0A2.7386127875258306,2.7386127875258306,0,1,1,2.7386127875258306,0" stroke="#4c78a8" stroke-width="2" opacity="0.7"/><path aria-label="predicted: 24.343559911; residuals: −19.7347806469" role="graphics-symbol" aria-roledescription="point" transform="translate(139.4748479287896,308.26832073931064)" d="M2.7386127875258306,0A2.7386127875258306,2.7386127875258306,0,1,1,-2.7386127875258306,0A2.7386127875258306,2.7386127875258306,0,1,1,2.7386127875258306,0" stroke="#4c78a8" stroke-width="2" opacity="0.7"/><path aria-label="predicted: 28.8177343035; residuals: −22.946730213" role="graphics-symbol" aria-roledescription="point" transform="translate(143.05418744279692,311.9391202434776)" d="M2.7386127875258306,0A2.7386127875258306,2.7386127875258306,0,1,1,-2.7386127875258306,0A2.7386127875258306,2.7386127875258306,0,1,1,2.7386127875258306,0" stroke="#4c78a8" stroke-width="2" opacity="0.7"/><path aria-label="predicted: 33.291908696; residuals: −25.6562140983" role="graphics-symbol" aria-roledescription="point" transform="translate(146.63352695680422,315.035673255218)" d="M2.7386127875258306,0A2.7386127875258306,2.7386127875258306,0,1,1,-2.7386127875258306,0A2.7386127875258306,2.7386127875258306,0,1,1,2.7386127875258306,0" stroke="#4c78a8" stroke-width="2" opacity="0.7"/><path aria-label="predicted: 37.7660830885; residuals: −38.3753808796" role="graphics-symbol" aria-roledescription="point" transform="translate(150.21286647081155,329.5718638623433)" d="M2.7386127875258306,0A2.7386127875258306,2.7386127875258306,0,1,1,-2.7386127875258306,0A2.7386127875258306,2.7386127875258306,0,1,1,2.7386127875258306,0" stroke="#4c78a8" stroke-width="2" opacity="0.7"/><path aria-label="predicted: 42.240257481; residuals: −38.7000918264" role="graphics-symbol" aria-roledescription="point" transform="translate(153.79220598481888,329.9429620873094)" d="M2.7386127875258306,0A2.7386127875258306,2.7386127875258306,0,1,1,-2.7386127875258306,0A2.7386127875258306,2.7386127875258306,0,1,1,2.7386127875258306,0" stroke="#4c78a8" stroke-width="2" opacity="0.7"/><path aria-label="predicted: 46.7144318735; residuals: −43.8148652762" role="graphics-symbol" aria-roledescription="point" transform="translate(157.3715454988262,335.78841745850275)" d="M2.7386127875258306,0A2.7386127875258306,2.7386127875258306,0,1,1,-2.7386127875258306,0A2.7386127875258306,2.7386127875258306,0,1,1,2.7386127875258306,0" stroke="#4c78a8" stroke-width="2" opacity="0.7"/><path aria-label="predicted: 51.188606266; residuals: −46.4102840643" role="graphics-symbol" aria-roledescription="point" transform="translate(160.9508850128335,338.7546103592025)" d="M2.7386127875258306,0A2.7386127875258306,2.7386127875258306,0,1,1,-2.7386127875258306,0A2.7386127875258306,2.7386127875258306,0,1,1,2.7386127875258306,0" stroke="#4c78a8" stroke-width="2" opacity="0.7"/><path aria-label="predicted: 55.6627806586; residuals: −46.7694186712" role="graphics-symbol" aria-roledescription="point" transform="translate(164.53022452684084,339.16504990993957)" d="M2.7386127875258306,0A2.7386127875258306,2.7386127875258306,0,1,1,-2.7386127875258306,0A2.7386127875258306,2.7386127875258306,0,1,1,2.7386127875258306,0" stroke="#4c78a8" stroke-width="2" opacity="0.7"/><path aria-label="predicted: 60.1369550511; residuals: −53.64582604" role="graphics-symbol" aria-roledescription="point" transform="translate(168.10956404084817,347.0238011885729)" d="M2.7386127875258306,0A2.7386127875258306,2.7386127875258306,0,1,1,-2.7386127875258306,0A2.7386127875258306,2.7386127875258306,0,1,1,2.7386127875258306,0" stroke="#4c78a8" stroke-width="2" opacity="0.7"/><path aria-label="predicted: 64.6111294436; residuals: −51.370863812" role="graphics-symbol" aria-roledescription="point" transform="translate(171.6889035548555,344.4238443565355)" d="M2.7386127875258306,0A2.7386127875258306,2.7386127875258306,0,1,1,-2.7386127875258306,0A2.7386127875258306,2.7386127875258306,0,1,1,2.7386127875258306,0" stroke="#4c78a8" stroke-width="2" opacity="0.7"/><path aria-label="predicted: 69.0853038361; residuals: −53.5899544254" role="graphics-symbol" aria-roledescription="point" transform="translate(175.26824306886283,346.95994791472236)" d="M2.7386127875258306,0A2.7386127875258306,2.7386127875258306,0,1,1,-2.7386127875258306,0A2.7386127875258306,2.7386127875258306,0,1,1,2.7386127875258306,0" stroke="#4c78a8" stroke-width="2" opacity="0.7"/><path aria-label="predicted: 73.5594782286; residuals: −64.0978338474" role="graphics-symbol" aria-roledescription="point" transform="translate(178.84758258287013,358.9689529684921)" d="M2.7386127875258306,0A2.7386127875258306,2.7386127875258306,0,1,1,-2.7386127875258306,0A2.7386127875258306,2.7386127875258306,0,1,1,2.7386127875258306,0" stroke="#4c78a8" stroke-width="2" opacity="0.7"/><path aria-label="predicted: 78.0336526211; residuals: −62.3298015396" role="graphics-symbol" aria-roledescription="point" transform="translate(182.42692209687746,356.9483446167186)" d="M2.7386127875258306,0A2.7386127875258306,2.7386127875258306,0,1,1,-2.7386127875258306,0A2.7386127875258306,2.7386127875258306,0,1,1,2.7386127875258306,0" stroke="#4c78a8" stroke-width="2" opacity="0.7"/><path aria-label="predicted: 82.5078270136; residuals: −65.3418395993" role="graphics-symbol" aria-roledescription="point" transform="translate(186.0062616108848,360.39067382776966)" d="M2.7386127875258306,0A2.7386127875258306,2.7386127875258306,0,1,1,-2.7386127875258306,0A2.7386127875258306,2.7386127875258306,0,1,1,2.7386127875258306,0" stroke="#4c78a8" stroke-width="2" opacity="0.7"/><path aria-label="predicted: 86.9820014061; residuals: −62.9916505073" role="graphics-symbol" aria-roledescription="point" transform="translate(189.58560112489212,357.70474343687164)" d="M2.7386127875258306,0A2.7386127875258306,2.7386127875258306,0,1,1,-2.7386127875258306,0A2.7386127875258306,2.7386127875258306,0,1,1,2.7386127875258306,0" stroke="#4c78a8" stroke-width="2" opacity="0.7"/><path aria-label="predicted: 91.4561757986; residuals: −67.0900556929" role="graphics-symbol" aria-roledescription="point" transform="translate(193.16494063889942,362.38863507757964)" d="M2.7386127875258306,0A2.7386127875258306,2.7386127875258306,0,1,1,-2.7386127875258306,0A2.7386127875258306,2.7386127875258306,0,1,1,2.7386127875258306,0" stroke="#4c78a8" stroke-width="2" opacity="0.7"/><path aria-label="predicted: 95.9303501911; residuals: −72.9617298378" role="graphics-symbol" aria-roledescription="point" transform="translate(196.74428015290675,369.099119814632)" d="M2.7386127875258306,0A2.7386127875258306,2.7386127875258306,0,1,1,-2.7386127875258306,0A2.7386127875258306,2.7386127875258306,0,1,1,2.7386127875258306,0" stroke="#4c78a8" stroke-width="2" opacity="0.7"/><path aria-label="predicted: 100.404524584; residuals: −70.5908141452" role="graphics-symbol" aria-roledescription="point" transform="translate(200.32361966691408,366.3895018802281)" d="M2.7386127875258306,0A2.7386127875258306,2.7386127875258306,0,1,1,-2.7386127875258306,0A2.7386127875258306,2.7386127875258306,0,1,1,2.7386127875258306,0" stroke="#4c78a8" stroke-width="2" opacity="0.7"/><path aria-label="predicted: 104.878698976; residuals: −74.565682926" role="graphics-symbol" aria-roledescription="point" transform="translate(203.90295918092139,370.9322090582391)" d="M2.7386127875258306,0A2.7386127875258306,2.7386127875258306,0,1,1,-2.7386127875258306,0A2.7386127875258306,2.7386127875258306,0,1,1,2.7386127875258306,0" stroke="#4c78a8" stroke-width="2" opacity="0.7"/><path aria-label="predicted: 109.352873369; residuals: −75.3637057152" role="graphics-symbol" aria-roledescription="point" transform="translate(207.4822986949287,371.84423510308494)" d="M2.7386127875258306,0A2.7386127875258306,2.7386127875258306,0,1,1,-2.7386127875258306,0A2.7386127875258306,2.7386127875258306,0,1,1,2.7386127875258306,0" stroke="#4c78a8" stroke-width="2" opacity="0.7"/><path aria-label="predicted: 113.827047761; residuals: −80.6414064979" role="graphics-symbol" aria-roledescription="point" transform="translate(211.06163820893605,377.8758931404081)" d="M2.7386127875258306,0A2.7386127875258306,2.7386127875258306,0,1,1,-2.7386127875258306,0A2.7386127875258306,2.7386127875258306,0,1,1,2.7386127875258306,0" stroke="#4c78a8" stroke-width="2" opacity="0.7"/><path aria-label="predicted: 118.301222154; residuals: −79.1761346128" role="graphics-symbol" aria-roledescription="point" transform="translate(214.64097772294335,376.20129670032424)" d="M2.7386127875258306,0A2.7386127875258306,2.7386127875258306,0,1,1,-2.7386127875258306,0A2.7386127875258306,2.7386127875258306,0,1,1,2.7386127875258306,0" stroke="#4c78a8" stroke-width="2" opacity="0.7"/><path aria-label="predicted: 122.775396546; residuals: −83.4633568822" role="graphics-symbol" aria-roledescription="point" transform="translate(218.22031723695065,381.10097929396653)" d="M2.7386127875258306,0A2.7386127875258306,2.7386127875258306,0,1,1,-2.7386127875258306,0A2.7386127875258306,2.7386127875258306,0,1,1,2.7386127875258306,0" stroke="#4c78a8" stroke-width="2" opacity="0.7"/><path aria-label="predicted: 127.249570939; residuals: −83.6964628598" role="graphics-symbol" aria-roledescription="point" transform="translate(221.799656750958,381.3673861255284)" d="M2.7386127875258306,0A2.7386127875258306,2.7386127875258306,0,1,1,-2.7386127875258306,0A2.7386127875258306,2.7386127875258306,0,1,1,2.7386127875258306,0" stroke="#4c78a8" stroke-width="2" opacity="0.7"/><path aria-label="predicted: 131.723745331; residuals: −84.4109903865" role="graphics-symbol" aria-roledescription="point" transform="translate(225.3789962649653,382.1839890131386)" d="M2.7386127875258306,0A2.7386127875258306,2.7386127875258306,0,1,1,-2.7386127875258306,0A2.7386127875258306,2.7386127875258306,0,1,1,2.7386127875258306,0" stroke="#4c78a8" stroke-width="2" opacity="0.7"/><path aria-label="predicted: 136.197919724; residuals: −80.9961523221" role="graphics-symbol" aria-roledescription="point" transform="translate(228.95833577897267,378.2813169395407)" d="M2.7386127875258306,0A2.7386127875258306,2.7386127875258306,0,1,1,-2.7386127875258306,0A2.7386127875258306,2.7386127875258306,0,1,1,2.7386127875258306,0" stroke="#4c78a8" stroke-width="2" opacity="0.7"/><path aria-label="predicted: 140.672094116; residuals: −84.9929489457" role="graphics-symbol" aria-roledescription="point" transform="translate(232.53767529297997,382.84908450931454)" d="M2.7386127875258306,0A2.7386127875258306,2.7386127875258306,0,1,1,-2.7386127875258306,0A2.7386127875258306,2.7386127875258306,0,1,1,2.7386127875258306,0" stroke="#4c78a8" stroke-width="2" opacity="0.7"/><path aria-label="predicted: 145.146268509; residuals: −85.6639924369" role="graphics-symbol" aria-roledescription="point" transform="translate(236.11701480698727,383.61599135649743)" d="M2.7386127875258306,0A2.7386127875258306,2.7386127875258306,0,1,1,-2.7386127875258306,0A2.7386127875258306,2.7386127875258306,0,1,1,2.7386127875258306,0" stroke="#4c78a8" stroke-width="2" opacity="0.7"/><path aria-label="predicted: 149.620442901; residuals: −78.0408127554" role="graphics-symbol" aria-roledescription="point" transform="translate(239.69635432099463,374.9037860062003)" d="M2.7386127875258306,0A2.7386127875258306,2.7386127875258306,0,1,1,-2.7386127875258306,0A2.7386127875258306,2.7386127875258306,0,1,1,2.7386127875258306,0" stroke="#4c78a8" stroke-width="2" opacity="0.7"/><path aria-label="predicted: 154.094617294; residuals: −82.883937452" role="graphics-symbol" aria-roledescription="point" transform="translate(243.27569383500193,380.4387856594434)" d="M2.7386127875258306,0A2.7386127875258306,2.7386127875258306,0,1,1,-2.7386127875258306,0A2.7386127875258306,2.7386127875258306,0,1,1,2.7386127875258306,0" stroke="#4c78a8" stroke-width="2" opacity="0.7"/><path aria-label="predicted: 158.568791686; residuals: −80.9372703785" role="graphics-symbol" aria-roledescription="point" transform="translate(246.85503334900923,378.2140232897443)" d="M2.7386127875258306,0A2.7386127875258306,2.7386127875258306,0,1,1,-2.7386127875258306,0A2.7386127875258306,2.7386127875258306,0,1,1,2.7386127875258306,0" stroke="#4c78a8" stroke-width="2" opacity="0.7"/><path aria-label="predicted: 163.042966079; residuals: −80.2129076864" role="graphics-symbol" aria-roledescription="point" transform="translate(250.4343728630166,377.38618021304256)" d="M2.7386127875258306,0A2.7386127875258306,2.7386127875258306,0,1,1,-2.7386127875258306,0A2.7386127875258306,2.7386127875258306,0,1,1,2.7386127875258306,0" stroke="#4c78a8" stroke-width="2" opacity="0.7"/><path aria-label="predicted: 167.517140471; residuals: −80.1350605507" role="graphics-symbol" aria-roledescription="point" transform="translate(254.01371237702386,377.2972120579499)" d="M2.7386127875258306,0A2.7386127875258306,2.7386127875258306,0,1,1,-2.7386127875258306,0A2.7386127875258306,2.7386127875258306,0,1,1,2.7386127875258306,0" stroke="#4c78a8" stroke-width="2" opacity="0.7"/><path aria-label="predicted: 171.991314864; residuals: −78.8635841066" role="graphics-symbol" aria-roledescription="point" transform="translate(257.5930518910313,375.8440961218126)" d="M2.7386127875258306,0A2.7386127875258306,2.7386127875258306,0,1,1,-2.7386127875258306,0A2.7386127875258306,2.7386127875258306,0,1,1,2.7386127875258306,0" stroke="#4c78a8" stroke-width="2" opacity="0.7"/><path aria-label="predicted: 176.465489256; residuals: −77.1250059686" role="graphics-symbol" aria-roledescription="point" transform="translate(261.1723914050386,373.8571496783453)" d="M2.7386127875258306,0A2.7386127875258306,2.7386127875258306,0,1,1,-2.7386127875258306,0A2.7386127875258306,2.7386127875258306,0,1,1,2.7386127875258306,0" stroke="#4c78a8" stroke-width="2" opacity="0.7"/><path aria-label="predicted: 180.939663649; residuals: −75.435751243" role="graphics-symbol" aria-roledescription="point" transform="translate(264.7517309190459,371.9265728491875)" d="M2.7386127875258306,0A2.7386127875258306,2.7386127875258306,0,1,1,-2.7386127875258306,0A2.7386127875258306,2.7386127875258306,0,1,1,2.7386127875258306,0" stroke="#4c78a8" stroke-width="2" opacity="0.7"/><path aria-label="predicted: 185.413838041; residuals: −70.0443171756" role="graphics-symbol" aria-roledescription="point" transform="translate(268.33107043305324,365.76493391497775)" d="M2.7386127875258306,0A2.7386127875258306,2.7386127875258306,0,1,1,-2.7386127875258306,0A2.7386127875258306,2.7386127875258306,0,1,1,2.7386127875258306,0" stroke="#4c78a8" stroke-width="2" opacity="0.7"/><path aria-label="predicted: 189.888012434; residuals: −68.4096279222" role="graphics-symbol" aria-roledescription="point" transform="translate(271.9104099470605,363.89671762537694)" d="M2.7386127875258306,0A2.7386127875258306,2.7386127875258306,0,1,1,-2.7386127875258306,0A2.7386127875258306,2.7386127875258306,0,1,1,2.7386127875258306,0" stroke="#4c78a8" stroke-width="2" opacity="0.7"/><path aria-label="predicted: 194.362186826; residuals: −60.1349762728" role="graphics-symbol" aria-roledescription="point" transform="translate(275.4897494610679,354.43997288324766)" d="M2.7386127875258306,0A2.7386127875258306,2.7386127875258306,0,1,1,-2.7386127875258306,0A2.7386127875258306,2.7386127875258306,0,1,1,2.7386127875258306,0" stroke="#4c78a8" stroke-width="2" opacity="0.7"/><path aria-label="predicted: 198.836361219; residuals: −67.9961548472" role="graphics-symbol" aria-roledescription="point" transform="translate(279.06908897507515,363.4241769681912)" d="M2.7386127875258306,0A2.7386127875258306,2.7386127875258306,0,1,1,-2.7386127875258306,0A2.7386127875258306,2.7386127875258306,0,1,1,2.7386127875258306,0" stroke="#4c78a8" stroke-width="2" opacity="0.7"/><path aria-label="predicted: 203.310535611; residuals: −63.434238294" role="graphics-symbol" aria-roledescription="point" transform="translate(282.6484284890825,358.2105580502466)" d="M2.7386127875258306,0A2.7386127875258306,2.7386127875258306,0,1,1,-2.7386127875258306,0A2.7386127875258306,2.7386127875258306,0,1,1,2.7386127875258306,0" stroke="#4c78a8" stroke-width="2" opacity="0.7"/><path aria-label="predicted: 207.784710004; residuals: −53.3121391908" role="graphics-symbol" aria-roledescription="point" transform="translate(286.2277680030898,346.6424447894538)" d="M2.7386127875258306,0A2.7386127875258306,2.7386127875258306,0,1,1,-2.7386127875258306,0A2.7386127875258306,2.7386127875258306,0,1,1,2.7386127875258306,0" stroke="#4c78a8" stroke-width="2" opacity="0.7"/><path aria-label="predicted: 212.258884396; residuals: −50.3874202442" role="graphics-symbol" aria-roledescription="point" transform="translate(289.8071075170971,343.2999088504956)" d="M2.7386127875258306,0A2.7386127875258306,2.7386127875258306,0,1,1,-2.7386127875258306,0A2.7386127875258306,2.7386127875258306,0,1,1,2.7386127875258306,0" stroke="#4c78a8" stroke-width="2" opacity="0.7"/><path aria-label="predicted: 216.733058789; residuals: −50.1929257049" role="graphics-symbol" aria-roledescription="point" transform="translate(293.38644703110447,343.07762937705667)" d="M2.7386127875258306,0A2.7386127875258306,2.7386127875258306,0,1,1,-2.7386127875258306,0A2.7386127875258306,2.7386127875258306,0,1,1,2.7386127875258306,0" stroke="#4c78a8" stroke-width="2" opacity="0.7"/><path aria-label="predicted: 221.207233181; residuals: −35.8324000724" role="graphics-symbol" aria-roledescription="point" transform="translate(296.96578654511177,326.66560008275155)" d="M2.7386127875258306,0A2.7386127875258306,2.7386127875258306,0,1,1,-2.7386127875258306,0A2.7386127875258306,2.7386127875258306,0,1,1,2.7386127875258306,0" stroke="#4c78a8" stroke-width="2" opacity="0.7"/><path aria-label="predicted: 225.681407574; residuals: −36.7204949013" role="graphics-symbol" aria-roledescription="point" transform="translate(300.54512605911907,327.68056560152604)" d="M2.7386127875258306,0A2.7386127875258306,2.7386127875258306,0,1,1,-2.7386127875258306,0A2.7386127875258306,2.7386127875258306,0,1,1,2.7386127875258306,0" stroke="#4c78a8" stroke-width="2" opacity="0.7"/><path aria-label="predicted: 230.155581966; residuals: −30.0994855685" role="graphics-symbol" aria-roledescription="point" transform="translate(304.12446557312643,320.1136977925854)" d="M2.7386127875258306,0A2.7386127875258306,2.7386127875258306,0,1,1,-2.7386127875258306,0A2.7386127875258306,2.7386127875258306,0,1,1,2.7386127875258306,0" stroke="#4c78a8" stroke-width="2" opacity="0.7"/><path aria-label="predicted: 234.629756359; residuals: −22.1295616759" role="graphics-symbol" aria-roledescription="point" transform="translate(307.70380508713373,311.0052133438535)" d="M2.7386127875258306,0A2.7386127875258306,2.7386127875258306,0,1,1,-2.7386127875258306,0A2.7386127875258306,2.7386127875258306,0,1,1,2.7386127875258306,0" stroke="#4c78a8" stroke-width="2" opacity="0.7"/><path aria-label="predicted: 239.103930751; residuals: −20.4624122753" role="graphics-symbol" aria-roledescription="point" transform="translate(311.2831446011411,309.0998997431623)" d="M2.7386127875258306,0A2.7386127875258306,2.7386127875258306,0,1,1,-2.7386127875258306,0A2.7386127875258306,2.7386127875258306,0,1,1,2.7386127875258306,0" stroke="#4c78a8" stroke-width="2" opacity="0.7"/><path aria-label="predicted: 243.578105144; residuals: −12.0503072508" role="graphics-symbol" aria-roledescription="point" transform="translate(314.8624841151484,299.48606542946794)" d="M2.7386127875258306,0A2.7386127875258306,2.7386127875258306,0,1,1,-2.7386127875258306,0A2.7386127875258306,2.7386127875258306,0,1,1,2.7386127875258306,0" stroke="#4c78a8" stroke-width="2" opacity="0.7"/><path aria-label="predicted: 248.052279536; residuals: −6.07749193549" role="graphics-symbol" aria-roledescription="point" transform="translate(318.4418236291557,292.6599907834189)" d="M2.7386127875258306,0A2.7386127875258306,2.7386127875258306,0,1,1,-2.7386127875258306,0A2.7386127875258306,2.7386127875258306,0,1,1,2.7386127875258306,0" stroke="#4c78a8" stroke-width="2" opacity="0.7"/><path aria-label="predicted: 252.526453929; residuals: −4.57431227977" role="graphics-symbol" aria-roledescription="point" transform="translate(322.02116314316305,290.9420711768757)" d="M2.7386127875258306,0A2.7386127875258306,2.7386127875258306,0,1,1,-2.7386127875258306,0A2.7386127875258306,2.7386127875258306,0,1,1,2.7386127875258306,0" stroke="#4c78a8" stroke-width="2" opacity="0.7"/><path aria-label="predicted: 257.000628321; residuals: 7.37241144468" role="graphics-symbol" aria-roledescription="point" transform="translate(325.60050265717035,277.28867263465264)" d="M2.7386127875258306,0A2.7386127875258306,2.7386127875258306,0,1,1,-2.7386127875258306,0A2.7386127875258306,2.7386127875258306,0,1,1,2.7386127875258306,0" stroke="#4c78a8" stroke-width="2" opacity="0.7"/><path aria-label="predicted: 261.474802714; residuals: 12.1302320221" role="graphics-symbol" aria-roledescription="point" transform="translate(329.1798421711777,271.8511634033668)" d="M2.7386127875258306,0A2.7386127875258306,2.7386127875258306,0,1,1,-2.7386127875258306,0A2.7386127875258306,2.7386127875258306,0,1,1,2.7386127875258306,0" stroke="#4c78a8" stroke-width="2" opacity="0.7"/><path aria-label="predicted: 265.948977106; residuals: 19.1687306609" role="graphics-symbol" aria-roledescription="point" transform="translate(332.759181685185,263.8071649589538)" d="M2.7386127875258306,0A2.7386127875258306,2.7386127875258306,0,1,1,-2.7386127875258306,0A2.7386127875258306,2.7386127875258306,0,1,1,2.7386127875258306,0" stroke="#4c78a8" stroke-width="2" opacity="0.7"/><path aria-label="predicted: 270.423151499; residuals: 35.740426963" role="graphics-symbol" aria-roledescription="point" transform="translate(336.33852119919226,244.86808347089664)" d="M2.7386127875258306,0A2.7386127875258306,2.7386127875258306,0,1,1,-2.7386127875258306,0A2.7386127875258306,2.7386127875258306,0,1,1,2.7386127875258306,0" stroke="#4c78a8" stroke-width="2" opacity="0.7"/><path aria-label="predicted: 274.897325891; residuals: 41.2688857887" role="graphics-symbol" aria-roledescription="point" transform="translate(339.9178607131997,238.54984481296322)" d="M2.7386127875258306,0A2.7386127875258306,2.7386127875258306,0,1,1,-2.7386127875258306,0A2.7386127875258306,2.7386127875258306,0,1,1,2.7386127875258306,0" stroke="#4c78a8" stroke-width="2" opacity="0.7"/><path aria-label="predicted: 279.371500284; residuals: 48.8397471908" role="graphics-symbol" aria-roledescription="point" transform="translate(343.4972002272069,229.89743178191634)" d="M2.7386127875258306,0A2.7386127875258306,2.7386127875258306,0,1,1,-2.7386127875258306,0A2.7386127875258306,2.7386127875258306,0,1,1,2.7386127875258306,0" stroke="#4c78a8" stroke-width="2" opacity="0.7"/><path aria-label="predicted: 283.845674677; residuals: 58.9463863636" role="graphics-symbol" aria-roledescription="point" transform="translate(347.07653974121433,218.34698701298495)" d="M2.7386127875258306,0A2.7386127875258306,2.7386127875258306,0,1,1,-2.7386127875258306,0A2.7386127875258306,2.7386127875258306,0,1,1,2.7386127875258306,0" stroke="#4c78a8" stroke-width="2" opacity="0.7"/><path aria-label="predicted: 288.319849069; residuals: 69.9685520395" role="graphics-symbol" aria-roledescription="point" transform="translate(350.6558792552216,205.7502262405599)" d="M2.7386127875258306,0A2.7386127875258306,2.7386127875258306,0,1,1,-2.7386127875258306,0A2.7386127875258306,2.7386127875258306,0,1,1,2.7386127875258306,0" stroke="#4c78a8" stroke-width="2" opacity="0.7"/><path aria-label="predicted: 292.794023462; residuals: 79.8034550065" role="graphics-symbol" aria-roledescription="point" transform="translate(354.2352187692289,194.5103371354637)" d="M2.7386127875258306,0A2.7386127875258306,2.7386127875258306,0,1,1,-2.7386127875258306,0A2.7386127875258306,2.7386127875258306,0,1,1,2.7386127875258306,0" stroke="#4c78a8" stroke-width="2" opacity="0.7"/><path aria-label="predicted: 297.268197854; residuals: 91.2111558703" role="graphics-symbol" aria-roledescription="point" transform="translate(357.8145582832363,181.47296471965922)" d="M2.7386127875258306,0A2.7386127875258306,2.7386127875258306,0,1,1,-2.7386127875258306,0A2.7386127875258306,2.7386127875258306,0,1,1,2.7386127875258306,0" stroke="#4c78a8" stroke-width="2" opacity="0.7"/><path aria-label="predicted: 301.742372247; residuals: 102.00625902" role="graphics-symbol" aria-roledescription="point" transform="translate(361.39389779724354,169.1357039774231)" d="M2.7386127875258306,0A2.7386127875258306,2.7386127875258306,0,1,1,-2.7386127875258306,0A2.7386127875258306,2.7386127875258306,0,1,1,2.7386127875258306,0" stroke="#4c78a8" stroke-width="2" opacity="0.7"/><path aria-label="predicted: 306.216546639; residuals: 116.696771389" role="graphics-symbol" aria-roledescription="point" transform="translate(364.97323731125095,152.34654698404958)" d="M2.7386127875258306,0A2.7386127875258306,2.7386127875258306,0,1,1,-2.7386127875258306,0A2.7386127875258306,2.7386127875258306,0,1,1,2.7386127875258306,0" stroke="#4c78a8" stroke-width="2" opacity="0.7"/><path aria-label="predicted: 310.690721032; residuals: 125.479019024" role="graphics-symbol" aria-roledescription="point" transform="translate(368.5525768252582,142.30969254453845)" d="M2.7386127875258306,0A2.7386127875258306,2.7386127875258306,0,1,1,-2.7386127875258306,0A2.7386127875258306,2.7386127875258306,0,1,1,2.7386127875258306,0" stroke="#4c78a8" stroke-width="2" opacity="0.7"/><path aria-label="predicted: 315.164895424; residuals: 143.11571067" role="graphics-symbol" aria-roledescription="point" transform="translate(372.1319163392655,122.15347352047404)" d="M2.7386127875258306,0A2.7386127875258306,2.7386127875258306,0,1,1,-2.7386127875258306,0A2.7386127875258306,2.7386127875258306,0,1,1,2.7386127875258306,0" stroke="#4c78a8" stroke-width="2" opacity="0.7"/><path aria-label="predicted: 319.639069817; residuals: 153.942927833" role="graphics-symbol" aria-roledescription="point" transform="translate(375.71125585327286,109.7795110482184)" d="M2.7386127875258306,0A2.7386127875258306,2.7386127875258306,0,1,1,-2.7386127875258306,0A2.7386127875258306,2.7386127875258306,0,1,1,2.7386127875258306,0" stroke="#4c78a8" stroke-width="2" opacity="0.7"/><path aria-label="predicted: 324.113244209; residuals: 167.081221445" role="graphics-symbol" aria-roledescription="point" transform="translate(379.29059536728016,94.76431834906327)" d="M2.7386127875258306,0A2.7386127875258306,2.7386127875258306,0,1,1,-2.7386127875258306,0A2.7386127875258306,2.7386127875258306,0,1,1,2.7386127875258306,0" stroke="#4c78a8" stroke-width="2" opacity="0.7"/><path aria-label="predicted: 328.587418602; residuals: 180.22078078" role="graphics-symbol" aria-roledescription="point" transform="translate(382.86993488128746,79.74767910912917)" d="M2.7386127875258306,0A2.7386127875258306,2.7386127875258306,0,1,1,-2.7386127875258306,0A2.7386127875258306,2.7386127875258306,0,1,1,2.7386127875258306,0" stroke="#4c78a8" stroke-width="2" opacity="0.7"/><path aria-label="predicted: 333.061592994; residuals: 201.009903813" role="graphics-symbol" aria-roledescription="point" transform="translate(386.4492743952948,55.98868135654449)" d="M2.7386127875258306,0A2.7386127875258306,2.7386127875258306,0,1,1,-2.7386127875258306,0A2.7386127875258306,2.7386127875258306,0,1,1,2.7386127875258306,0" stroke="#4c78a8" stroke-width="2" opacity="0.7"/></g><g class="mark-rule role-mark layer_1_marks" role="graphics-symbol" aria-roledescription="rule mark container"><line transform="translate(400,285.7142857142857)" x2="-400" y2="0" stroke="darkgrey"/><line transform="translate(400,285.7142857142857)" x2="-400" y2="0" stroke="darkgrey"/><line transform="translate(400,285.7142857142857)" x2="-400" y2="0" stroke="darkgrey"/><line transform="translate(400,285.7142857142857)" x2="-400" y2="0" stroke="darkgrey"/><line transform="translate(400,285.7142857142857)" x2="-400" y2="0" stroke="darkgrey"/><line transform="translate(400,285.7142857142857)" x2="-400" y2="0" stroke="darkgrey"/><line transform="translate(400,285.7142857142857)" x2="-400" y2="0" stroke="darkgrey"/><line transform="translate(400,285.7142857142857)" x2="-400" y2="0" stroke="darkgrey"/><line transform="translate(400,285.7142857142857)" x2="-400" y2="0" stroke="darkgrey"/><line transform="translate(400,285.7142857142857)" x2="-400" y2="0" stroke="darkgrey"/><line transform="translate(400,285.7142857142857)" x2="-400" y2="0" stroke="darkgrey"/><line transform="translate(400,285.7142857142857)" x2="-400" y2="0" stroke="darkgrey"/><line transform="translate(400,285.7142857142857)" x2="-400" y2="0" stroke="darkgrey"/><line transform="translate(400,285.7142857142857)" x2="-400" y2="0" stroke="darkgrey"/><line transform="translate(400,285.7142857142857)" x2="-400" y2="0" stroke="darkgrey"/><line transform="translate(400,285.7142857142857)" x2="-400" y2="0" stroke="darkgrey"/><line transform="translate(400,285.7142857142857)" x2="-400" y2="0" stroke="darkgrey"/><line transform="translate(400,285.7142857142857)" x2="-400" y2="0" stroke="darkgrey"/><line transform="translate(400,285.7142857142857)" x2="-400" y2="0" stroke="darkgrey"/><line transform="translate(400,285.7142857142857)" x2="-400" y2="0" stroke="darkgrey"/><line transform="translate(400,285.7142857142857)" x2="-400" y2="0" stroke="darkgrey"/><line transform="translate(400,285.7142857142857)" x2="-400" y2="0" stroke="darkgrey"/><line transform="translate(400,285.7142857142857)" x2="-400" y2="0" stroke="darkgrey"/><line transform="translate(400,285.7142857142857)" x2="-400" y2="0" stroke="darkgrey"/><line transform="translate(400,285.7142857142857)" x2="-400" y2="0" stroke="darkgrey"/><line transform="translate(400,285.7142857142857)" x2="-400" y2="0" stroke="darkgrey"/><line transform="translate(400,285.7142857142857)" x2="-400" y2="0" stroke="darkgrey"/><line transform="translate(400,285.7142857142857)" x2="-400" y2="0" stroke="darkgrey"/><line transform="translate(400,285.7142857142857)" x2="-400" y2="0" stroke="darkgrey"/><line transform="translate(400,285.7142857142857)" x2="-400" y2="0" stroke="darkgrey"/><line transform="translate(400,285.7142857142857)" x2="-400" y2="0" stroke="darkgrey"/><line transform="translate(400,285.7142857142857)" x2="-400" y2="0" stroke="darkgrey"/><line transform="translate(400,285.7142857142857)" x2="-400" y2="0" stroke="darkgrey"/><line transform="translate(400,285.7142857142857)" x2="-400" y2="0" stroke="darkgrey"/><line transform="translate(400,285.7142857142857)" x2="-400" y2="0" stroke="darkgrey"/><line transform="translate(400,285.7142857142857)" x2="-400" y2="0" stroke="darkgrey"/><line transform="translate(400,285.7142857142857)" x2="-400" y2="0" stroke="darkgrey"/><line transform="translate(400,285.7142857142857)" x2="-400" y2="0" stroke="darkgrey"/><line transform="translate(400,285.7142857142857)" x2="-400" y2="0" stroke="darkgrey"/><line transform="translate(400,285.7142857142857)" x2="-400" y2="0" stroke="darkgrey"/><line transform="translate(400,285.7142857142857)" x2="-400" y2="0" stroke="darkgrey"/><line transform="translate(400,285.7142857142857)" x2="-400" y2="0" stroke="darkgrey"/><line transform="translate(400,285.7142857142857)" x2="-400" y2="0" stroke="darkgrey"/><line transform="translate(400,285.7142857142857)" x2="-400" y2="0" stroke="darkgrey"/><line transform="translate(400,285.7142857142857)" x2="-400" y2="0" stroke="darkgrey"/><line transform="translate(400,285.7142857142857)" x2="-400" y2="0" stroke="darkgrey"/><line transform="translate(400,285.7142857142857)" x2="-400" y2="0" stroke="darkgrey"/><line transform="translate(400,285.7142857142857)" x2="-400" y2="0" stroke="darkgrey"/><line transform="translate(400,285.7142857142857)" x2="-400" y2="0" stroke="darkgrey"/><line transform="translate(400,285.7142857142857)" x2="-400" y2="0" stroke="darkgrey"/><line transform="translate(400,285.7142857142857)" x2="-400" y2="0" stroke="darkgrey"/><line transform="translate(400,285.7142857142857)" x2="-400" y2="0" stroke="darkgrey"/><line transform="translate(400,285.7142857142857)" x2="-400" y2="0" stroke="darkgrey"/><line transform="translate(400,285.7142857142857)" x2="-400" y2="0" stroke="darkgrey"/><line transform="translate(400,285.7142857142857)" x2="-400" y2="0" stroke="darkgrey"/><line transform="translate(400,285.7142857142857)" x2="-400" y2="0" stroke="darkgrey"/><line transform="translate(400,285.7142857142857)" x2="-400" y2="0" stroke="darkgrey"/><line transform="translate(400,285.7142857142857)" x2="-400" y2="0" stroke="darkgrey"/><line transform="translate(400,285.7142857142857)" x2="-400" y2="0" stroke="darkgrey"/><line transform="translate(400,285.7142857142857)" x2="-400" y2="0" stroke="darkgrey"/><line transform="translate(400,285.7142857142857)" x2="-400" y2="0" stroke="darkgrey"/><line transform="translate(400,285.7142857142857)" x2="-400" y2="0" stroke="darkgrey"/><line transform="translate(400,285.7142857142857)" x2="-400" y2="0" stroke="darkgrey"/><line transform="translate(400,285.7142857142857)" x2="-400" y2="0" stroke="darkgrey"/><line transform="translate(400,285.7142857142857)" x2="-400" y2="0" stroke="darkgrey"/><line transform="translate(400,285.7142857142857)" x2="-400" y2="0" stroke="darkgrey"/><line transform="translate(400,285.7142857142857)" x2="-400" y2="0" stroke="darkgrey"/><line transform="translate(400,285.7142857142857)" x2="-400" y2="0" stroke="darkgrey"/><line transform="translate(400,285.7142857142857)" x2="-400" y2="0" stroke="darkgrey"/><line transform="translate(400,285.7142857142857)" x2="-400" y2="0" stroke="darkgrey"/><line transform="translate(400,285.7142857142857)" x2="-400" y2="0" stroke="darkgrey"/><line transform="translate(400,285.7142857142857)" x2="-400" y2="0" stroke="darkgrey"/><line transform="translate(400,285.7142857142857)" x2="-400" y2="0" stroke="darkgrey"/><line transform="translate(400,285.7142857142857)" x2="-400" y2="0" stroke="darkgrey"/><line transform="translate(400,285.7142857142857)" x2="-400" y2="0" stroke="darkgrey"/><line transform="translate(400,285.7142857142857)" x2="-400" y2="0" stroke="darkgrey"/><line transform="translate(400,285.7142857142857)" x2="-400" y2="0" stroke="darkgrey"/><line transform="translate(400,285.7142857142857)" x2="-400" y2="0" stroke="darkgrey"/><line transform="translate(400,285.7142857142857)" x2="-400" y2="0" stroke="darkgrey"/><line transform="translate(400,285.7142857142857)" x2="-400" y2="0" stroke="darkgrey"/><line transform="translate(400,285.7142857142857)" x2="-400" y2="0" stroke="darkgrey"/><line transform="translate(400,285.7142857142857)" x2="-400" y2="0" stroke="darkgrey"/><line transform="translate(400,285.7142857142857)" x2="-400" y2="0" stroke="darkgrey"/><line transform="translate(400,285.7142857142857)" x2="-400" y2="0" stroke="darkgrey"/><line transform="translate(400,285.7142857142857)" x2="-400" y2="0" stroke="darkgrey"/><line transform="translate(400,285.7142857142857)" x2="-400" y2="0" stroke="darkgrey"/><line transform="translate(400,285.7142857142857)" x2="-400" y2="0" stroke="darkgrey"/><line transform="translate(400,285.7142857142857)" x2="-400" y2="0" stroke="darkgrey"/><line transform="translate(400,285.7142857142857)" x2="-400" y2="0" stroke="darkgrey"/><line transform="translate(400,285.7142857142857)" x2="-400" y2="0" stroke="darkgrey"/><line transform="translate(400,285.7142857142857)" x2="-400" y2="0" stroke="darkgrey"/><line transform="translate(400,285.7142857142857)" x2="-400" y2="0" stroke="darkgrey"/><line transform="translate(400,285.7142857142857)" x2="-400" y2="0" stroke="darkgrey"/><line transform="translate(400,285.7142857142857)" x2="-400" y2="0" stroke="darkgrey"/><line transform="translate(400,285.7142857142857)" x2="-400" y2="0" stroke="darkgrey"/><line transform="translate(400,285.7142857142857)" x2="-400" y2="0" stroke="darkgrey"/><line transform="translate(400,285.7142857142857)" x2="-400" y2="0" stroke="darkgrey"/><line transform="translate(400,285.7142857142857)" x2="-400" y2="0" stroke="darkgrey"/><line transform="translate(400,285.7142857142857)" x2="-400" y2="0" stroke="darkgrey"/><line transform="translate(400,285.7142857142857)" x2="-400" y2="0" stroke="darkgrey"/><line transform="translate(400,285.7142857142857)" x2="-400" y2="0" stroke="darkgrey"/></g><g class="mark-group role-title"><g transform="translate(200,-22)"><path class="background" aria-hidden="true" d="M0,0h0v0h0Z" pointer-events="none"/><g><g class="mark-text role-title-text" role="graphics-symbol" aria-roledescription="title" aria-label="Title text 'Predicted vs residuals'" pointer-events="none"><text text-anchor="middle" transform="translate(0,10)" font-family="sans-serif" font-size="13px" font-weight="bold" fill="#000" opacity="1">Predicted vs residuals</text></g></g><path class="foreground" aria-hidden="true" d="" pointer-events="none" display="none"/></g></g></g><path class="foreground" aria-hidden="true" d="" display="none"/></g></g></g></svg>
