<?xml version="1.0" encoding="utf-8"?>
<!DOCTYPE svg PUBLIC "-//W3C//DTD SVG 1.1//EN" "http://www.w3.org/Graphics/SVG/1.1/DTD/svg11.dtd">
<svg xmlns="http://www.w3.org/2000/svg" xmlns:xlink="http://www.w3.org/1999/xlink" version="1.1" class="marks" width="454" height="464" viewBox="0 0 454 464"><rect width="454" height="464" fill="white"/><g fill="none" stroke-miterlimit="10" transform="translate(48,27)"><g class="mark-group role-frame root" role="graphics-object" aria-roledescription="group mark container"><g transform="translate(0,0)"><path class="background" aria-hidden="true" d="M0.5,0.5h400v400h-400Z" stroke="#ddd"/><g><g class="mark-group role-axis" role="graphics-symbol" aria-roledescription="axis" aria-label="X-axis titled 'leverage' for a linear scale with values from 0.00 to 0.12"><g transform="translate(0.5,400.5)"><path class="background" aria-hidden="true" d="M0,0h0v0h0Z" pointer-events="none"/><g><g class="mark-rule role-axis-tick" pointer-events="none"><line transform="translate(0,0)" x2="0" y2="5" stroke="#888" stroke-width="1" opacity="1"/><line transform="translate(33,0)" x2="0" y2="5" stroke="#888" stroke-width="1" opacity="1"/><line transform="translate(67,0)" x2="0" y2="5" stroke="#888" stroke-width="1" opacity="1"/><line transform="translate(100,0)" x2="0" y2="5" stroke="#888" stroke-width="1" opacity="1"/><line transform="translate(133,0)" x2="0" y2="5" stroke="#888" stroke-width="1" opacity="1"/><line transform="translate(167,0)" x2="0" y2="5" stroke="#888" stroke-width="1" opacity="1"/><line transform="translate(200,0)" x2="0" y2="5" stroke="#888" stroke-width="1" opacity="1"/><line transform="translate(233,0)" x2="0" y2="5" stroke="#888" stroke-width="1" opacity="1"/><line transform="translate(267,0)" x2="0" y2="5" stroke="#888" stroke-width="1" opacity="1"/><line transform="translate(300,0)" x2="0" y2="5" stroke="#888" stroke-width="1" opacity="1"/><line transform="translate(333,0)" x2="0" y2="5" stroke="#888" stroke-width="1" opacity="1"/><line transform="translate(367,0)" x2="0" y2="5" stroke="#888" stroke-width="1" opacity="1"/><line transform="translate(400,0)" x2="0" y2="5" stroke="#888" stroke-width="1" opacity="1"/></g><g class="mark-text role-axis-label" pointer-events="none"><text text-anchor="start" transform="translate(0,15)" font-family="sans-serif" font-size="10px" fill="#000" opacity="1">0.00</text><text text-anchor="middle" transform="translate(33.333333333333336,15)" font-family="sans-serif" font-size="10px" fill="#000" opacity="1">0.01</text><text text-anchor="middle" transform="translate(66.66666666666667,15)" font-family="sans-serif" font-size="10px" fill="#000" opacity="1">0.02</text><text text-anchor="middle" transform="translate(100,15)" font-family="sans-serif" font-size="10px" fill="#000" opacity="1">0.03</text><text text-anchor="middle" transform="translate(133.33333333333334,15)" font-family="sans-serif" font-size="10px" fill="#000" opacity="1">0.04</text><text text-anchor="middle" transform="translate(166.66666666666669,15)" font-family="sans-serif" font-size="10px" fill="#000" opacity="1">0.05</text><text text-anchor="middle" transform="translate(200,15)" font-family="sans-serif" font-size="10px" fill="#000" opacity="1">0.06</text><text text-anchor="middle" transform="translate(233.33333333333334,15)" font-family="sans-serif" font-size="10px" fill="#000" opacity="1">0.07</text><text text-anchor="middle" transform="translate(266.6666666666667,15)" font-family="sans-serif" font-size="10px" fill="#000" opacity="1">0.08</text><text text-anchor="middle" transform="translate(300,15)" font-family="sans-serif" font-size="10px" fill="#000" opacity="1">0.09</text><text text-anchor="middle" transform="translate(333.33333333333337,15)" font-family="sans-serif" font-size="10px" fill="#000" opacity="1">0.10</text><text text-anchor="middle" transform="translate(366.6666666666667,15)" font-family="sans-serif" font-size="10px" fill="#000" opacity="1">0.11</text><text text-anchor="end" transform="translate(400,15)" font-family="sans-serif" font-size="10px" fill="#000" opacity="1">0.12</text></g><g class="mark-rule role-axis-domain" pointer-events="none"><line transform="translate(0,0)" x2="400" y2="0" stroke="#888" stroke-width="1" opacity="1"/></g><g class="mark-text role-axis-title" pointer-events="none"><text text-anchor="middle" transform="translate(200,30)" font-family="sans-serif" font-size="11px" font-weight="bold" fill="#000" opacity="1">leverage</text></g></g><path class="foreground" aria-hidden="true" d="" pointer-events="none" display="none"/></g></g><g class="mark-group role-axis" role="graphics-symbol" aria-roledescription="axis" aria-label="Y-axis titled 'rstudent' for a linear scale with values from −3 to 3"><g transform="translate(0.5,0.5)"><path class="background" aria-hidden="true" d="M0,0h0v0h0Z" pointer-events="none"/><g><g class="mark-rule role-axis-tick" pointer-events="none"><line transform="translate(0,400)" x2="-5" y2="0" stroke="#888" stroke-width="1" opacity="1"/><line transform="translate(0,364)" x2="-5" y2="0" stroke="#888" stroke-width="1" opacity="1"/><line transform="translate(0,327)" x2="-5" y2="0" stroke="#888" stroke-width="1" opacity="1"/><line transform="translate(0,291)" x2="-5" y2="0" stroke="#888" stroke-width="1" opacity="1"/><line transform="translate(0,255)" x2="-5" y2="0" stroke="#888" stroke-width="1" opacity="1"/><line transform="translate(0,218)" x2="-5" y2="0" stroke="#888" stroke-width="1" opacity="1"/><line transform="translate(0,182)" x2="-5" y2="0" stroke="#888" stroke-width="1" opacity="1"/><line transform="translate(0,145)" x2="-5" y2="0" stroke="#888" stroke-width="1" opacity="1"/><line transform="translate(0,109)" x2="-5" y2="0" stroke="#888" stroke-width="1" opacity="1"/><line transform="translate(0,73)" x2="-5" y2="0" stroke="#888" stroke-width="1" opacity="1"/><line transform="translate(0,36)" x2="-5" y2="0" stroke="#888" stroke-width="1" opacity="1"/><line transform="translate(0,0)" x2="-5" y2="0" stroke="#888" stroke-width="1" opacity="1"/></g><g class="mark-text role-axis-label" pointer-events="none"><text text-anchor="end" transform="translate(-7,403)" font-family="sans-serif" font-size="10px" fill="#000" opacity="1">−3.0</text><text text-anchor="end" transform="translate(-7,366.6363636363636)" font-family="sans-serif" font-size="10px" fill="#000" opacity="1">−2.5</text><text text-anchor="end" transform="translate(-7,330.27272727272725)" font-family="sans-serif" font-size="10px" fill="#000" opacity="1">−2.0</text><text text-anchor="end" transform="translate(-7,293.90909090909093)" font-family="sans-serif" font-size="10px" fill="#000" opacity="1">−1.5</text><text text-anchor="end" transform="translate(-7,257.5454545454545)" font-family="sans-serif" font-size="10px" fill="#000" opacity="1">−1.0</text><text text-anchor="end" transform="translate(-7,221.18181818181816)" font-family="sans-serif" font-size="10px" fill="#000" opacity="1">−0.5</text><text text-anchor="end" transform="translate(-7,184.81818181818184)" font-family="sans-serif" font-size="10px" fill="#000" opacity="1">0.0</text><text text-anchor="end" transform="translate(-7,148.45454545454547)" font-family="sans-serif" font-size="10px" fill="#000" opacity="1">0.5</text><text text-anchor="end" transform="translate(-7,112.09090909090908)" font-family="sans-serif" font-size="10px" fill="#000" opacity="1">1.0</text><text text-anchor="end" transform="translate(-7,75.7272727272727)" font-family="sans-serif" font-size="10px" fill="#000" opacity="1">1.5</text><text text-anchor="end" transform="translate(-7,39.363636363636374)" font-family="sans-serif" font-size="10px" fill="#000" opacity="1">2.0</text><text text-anchor="end" transform="translate(-7,3)" font-family="sans-serif" font-size="10px" fill="#000" opacity="1">2.5</text></g><g class="mark-rule role-axis-domain" pointer-events="none"><line transform="translate(0,400)" x2="0" y2="-400" stroke="#888" stroke-width="1" opacity="1"/></g><g class="mark-text role-axis-title" pointer-events="none"><text text-anchor="middle" transform="translate(-32,200) rotate(-90) translate(0,-2)" font-family="sans-serif" font-size="11px" font-weight="bold" fill="#000" opacity="1">rstudent</text></g></g><path class="foreground" aria-hidden="true" d="" pointer-events="none" display="none"/></g></g><g class="mark-symbol role-mark layer_0_marks" role="graphics-object" aria-roledescription="symbol mark container"><path aria-label="leverage: 0.0585886105171; rstudent: −0.806647449568" role="graphics-symbol" aria-roledescription="point" transform="translate(195.29536839020076,240.48345087769593)" d="M2.7386127875258306,0A2.7386127875258306,2.7386127875258306,0,1,1,-2.7386127875258306,0A2.7386127875258306,2.7386127875258306,0,1,1,2.7386127875258306,0" stroke="#4c78a8" stroke-width="2" opacity="0.7"/><path aria-label="leverage: 0.0562452127594; rstudent: −1.57779836379" role="graphics-symbol" aria-roledescription="point" transform="translate(187.4840425312931,296.5671537301596)" d="M2.7386127875258306,0A2.7386127875258306,2.7386127875258306,0,1,1,-2.7386127875258306,0A2.7386127875258306,2.7386127875258306,0,1,1,2.7386127875258306,0" stroke="#4c78a8" stroke-width="2" opacity="0.7"/><path aria-label="leverage: 0.0539206201835; rstudent: −0.546849025263" role="graphics-symbol" aria-roledescription="point" transform="translate(179.73540061180947,221.5890200190916)" d="M2.7386127875258306,0A2.7386127875258306,2.7386127875258306,0,1,1,-2.7386127875258306,0A2.7386127875258306,2.7386127875258306,0,1,1,2.7386127875258306,0" stroke="#4c78a8" stroke-width="2" opacity="0.7"/><path aria-label="leverage: 0.0516212429306; rstudent: −1.07432810026" role="graphics-symbol" aria-roledescription="point" transform="translate(172.07080976853862,259.9511345644736)" d="M2.7386127875258306,0A2.7386127875258306,2.7386127875258306,0,1,1,-2.7386127875258306,0A2.7386127875258306,2.7386127875258306,0,1,1,2.7386127875258306,0" stroke="#4c78a8" stroke-width="2" opacity="0.7"/><path aria-label="leverage: 0.0493533223019; rstudent: 1.23674933858" role="graphics-symbol" aria-roledescription="point" transform="translate(164.51107433964697,91.87277537615644)" d="M2.7386127875258306,0A2.7386127875258306,2.7386127875258306,0,1,1,-2.7386127875258306,0A2.7386127875258306,2.7386127875258306,0,1,1,2.7386127875258306,0" stroke="#4c78a8" stroke-width="2" opacity="0.7"/><path aria-label="leverage: 0.0471229061; rstudent: 2.03567625563" role="graphics-symbol" aria-roledescription="point" transform="translate(157.07635366658172,33.76899959080997)" d="M2.7386127875258306,0A2.7386127875258306,2.7386127875258306,0,1,1,-2.7386127875258306,0A2.7386127875258306,2.7386127875258306,0,1,1,2.7386127875258306,0" stroke="#4c78a8" stroke-width="2" opacity="0.7"/><path aria-label="leverage: 0.0449358253779; rstudent: −0.138598685779" role="graphics-symbol" aria-roledescription="point" transform="translate(149.7860845930093,191.89808623849967)" d="M2.7386127875258306,0A2.7386127875258306,2.7386127875258306,0,1,1,-2.7386127875258306,0A2.7386127875258306,2.7386127875258306,0,1,1,2.7386127875258306,0" stroke="#4c78a8" stroke-width="2" opacity="0.7"/><path aria-label="leverage: 0.0427976725982; rstudent: −1.36377719563" role="graphics-symbol" aria-roledescription="point" transform="translate(142.65890866078686,281.00197786383313)" d="M2.7386127875258306,0A2.7386127875258306,2.7386127875258306,0,1,1,-2.7386127875258306,0A2.7386127875258306,2.7386127875258306,0,1,1,2.7386127875258306,0" stroke="#4c78a8" stroke-width="2" opacity="0.7"/><path aria-label="leverage: 0.0407137812009; rstudent: −1.14369831142" role="graphics-symbol" aria-roledescription="point" transform="translate(135.7126040029683,264.9962408308613)" d="M2.7386127875258306,0A2.7386127875258306,2.7386127875258306,0,1,1,-2.7386127875258306,0A2.7386127875258306,2.7386127875258306,0,1,1,2.7386127875258306,0" stroke="#4c78a8" stroke-width="2" opacity="0.7"/><path aria-label="leverage: 0.0386892065802; rstudent: −0.690302590142" role="graphics-symbol" aria-roledescription="point" transform="translate(128.96402193384432,232.02200655577957)" d="M2.7386127875258306,0A2.7386127875258306,2.7386127875258306,0,1,1,-2.7386127875258306,0A2.7386127875258306,2.7386127875258306,0,1,1,2.7386127875258306,0" stroke="#4c78a8" stroke-width="2" opacity="0.7"/><path aria-label="leverage: 0.0367287084708; rstudent: 2.42270709635" role="graphics-symbol" aria-roledescription="point" transform="translate(122.42902823601656,5.621302083480373)" d="M2.7386127875258306,0A2.7386127875258306,2.7386127875258306,0,1,1,-2.7386127875258306,0A2.7386127875258306,2.7386127875258306,0,1,1,2.7386127875258306,0" stroke="#4c78a8" stroke-width="2" opacity="0.7"/><path aria-label="leverage: 0.0348367347434; rstudent: 0.876135514322" role="graphics-symbol" aria-roledescription="point" transform="translate(116.12244914450554,118.09923532202676)" d="M2.7386127875258306,0A2.7386127875258306,2.7386127875258306,0,1,1,-2.7386127875258306,0A2.7386127875258306,2.7386127875258306,0,1,1,2.7386127875258306,0" stroke="#4c78a8" stroke-width="2" opacity="0.7"/><path aria-label="leverage: 0.0330174066084; rstudent: 0.0232242537093" role="graphics-symbol" aria-roledescription="point" transform="translate(110.05802202789326,180.12914518477595)" d="M2.7386127875258306,0A2.7386127875258306,2.7386127875258306,0,1,1,-2.7386127875258306,0A2.7386127875258306,2.7386127875258306,0,1,1,2.7386127875258306,0" stroke="#4c78a8" stroke-width="2" opacity="0.7"/><path aria-label="leverage: 0.0312745052299; rstudent: −2.88445749415" role="graphics-symbol" aria-roledescription="point" transform="translate(104.24835076649916,391.5969086654898)" d="M2.7386127875258306,0A2.7386127875258306,2.7386127875258306,0,1,1,-2.7386127875258306,0A2.7386127875258306,2.7386127875258306,0,1,1,2.7386127875258306,0" stroke="#4c78a8" stroke-width="2" opacity="0.7"/><path aria-label="leverage: 0.0296114597483; rstudent: −0.192692139338" role="graphics-symbol" aria-roledescription="point" transform="translate(98.7048658275908,195.8321555882037)" d="M2.7386127875258306,0A2.7386127875258306,2.7386127875258306,0,1,1,-2.7386127875258306,0A2.7386127875258306,2.7386127875258306,0,1,1,2.7386127875258306,0" stroke="#4c78a8" stroke-width="2" opacity="0.7"/><path aria-label="leverage: 0.0280313367113; rstudent: 0.0728457871526" role="graphics-symbol" aria-roledescription="point" transform="translate(93.43778903762801,176.52030638890318)" d="M2.7386127875258306,0A2.7386127875258306,2.7386127875258306,0,1,1,-2.7386127875258306,0A2.7386127875258306,2.7386127875258306,0,1,1,2.7386127875258306,0" stroke="#4c78a8" stroke-width="2" opacity="0.7"/><path aria-label="leverage: 0.0265368309155; rstudent: 1.32828239856" role="graphics-symbol" aria-roledescription="point" transform="translate(88.45610305154166,85.21582555918403)" d="M2.7386127875258306,0A2.7386127875258306,2.7386127875258306,0,1,1,-2.7386127875258306,0A2.7386127875258306,2.7386127875258306,0,1,1,2.7386127875258306,0" stroke="#4c78a8" stroke-width="2" opacity="0.7"/><path aria-label="leverage: 0.0251302576557; rstudent: −0.928129189543" role="graphics-symbol" aria-roledescription="point" transform="translate(83.76752551904616,249.31848651218243)" d="M2.7386127875258306,0A2.7386127875258306,2.7386127875258306,0,1,1,-2.7386127875258306,0A2.7386127875258306,2.7386127875258306,0,1,1,2.7386127875258306,0" stroke="#4c78a8" stroke-width="2" opacity="0.7"/><path aria-label="leverage: 0.0238135463844; rstudent: 0.983061901802" role="graphics-symbol" aria-roledescription="point" transform="translate(79.37848794798616,110.32277077806553)" d="M2.7386127875258306,0A2.7386127875258306,2.7386127875258306,0,1,1,-2.7386127875258306,0A2.7386127875258306,2.7386127875258306,0,1,1,2.7386127875258306,0" stroke="#4c78a8" stroke-width="2" opacity="0.7"/><path aria-label="leverage: 0.0225882357794; rstudent: 0.151907331707" role="graphics-symbol" aria-roledescription="point" transform="translate(75.2941192647173,170.77037587586753)" d="M2.7386127875258306,0A2.7386127875258306,2.7386127875258306,0,1,1,-2.7386127875258306,0A2.7386127875258306,2.7386127875258306,0,1,1,2.7386127875258306,0" stroke="#4c78a8" stroke-width="2" opacity="0.7"/><path aria-label="leverage: 0.0214554702215; rstudent: 1.49922160929" role="graphics-symbol" aria-roledescription="point" transform="translate(71.51823407152095,72.78388296094943)" d="M2.7386127875258306,0A2.7386127875258306,2.7386127875258306,0,1,1,-2.7386127875258306,0A2.7386127875258306,2.7386127875258306,0,1,1,2.7386127875258306,0" stroke="#4c78a8" stroke-width="2" opacity="0.7"/><path aria-label="leverage: 0.0204159976803; rstudent: 0.757225344072" role="graphics-symbol" aria-roledescription="point" transform="translate(68.05332560105325,126.74724770387122)" d="M2.7386127875258306,0A2.7386127875258306,2.7386127875258306,0,1,1,-2.7386127875258306,0A2.7386127875258306,2.7386127875258306,0,1,1,2.7386127875258306,0" stroke="#4c78a8" stroke-width="2" opacity="0.7"/><path aria-label="leverage: 0.0194701690103; rstudent: 0.430638002167" role="graphics-symbol" aria-roledescription="point" transform="translate(64.9005633678279,150.49905438782307)" d="M2.7386127875258306,0A2.7386127875258306,2.7386127875258306,0,1,1,-2.7386127875258306,0A2.7386127875258306,2.7386127875258306,0,1,1,2.7386127875258306,0" stroke="#4c78a8" stroke-width="2" opacity="0.7"/><path aria-label="leverage: 0.018617938655; rstudent: 0.117303484321" role="graphics-symbol" aria-roledescription="point" transform="translate(62.059795516733395,173.2870193221439)" d="M2.7386127875258306,0A2.7386127875258306,2.7386127875258306,0,1,1,-2.7386127875258306,0A2.7386127875258306,2.7386127875258306,0,1,1,2.7386127875258306,0" stroke="#4c78a8" stroke-width="2" opacity="0.7"/><path aria-label="leverage: 0.0178588667606; rstudent: 0.152188833907" role="graphics-symbol" aria-roledescription="point" transform="translate(59.52955586858392,170.74990298857637)" d="M2.7386127875258306,0A2.7386127875258306,2.7386127875258306,0,1,1,-2.7386127875258306,0A2.7386127875258306,2.7386127875258306,0,1,1,2.7386127875258306,0" stroke="#4c78a8" stroke-width="2" opacity="0.7"/><path aria-label="leverage: 0.0171921226988; rstudent: −0.428240443653" role="graphics-symbol" aria-roledescription="point" transform="translate(57.307075662704655,212.96294135661213)" d="M2.7386127875258306,0A2.7386127875258306,2.7386127875258306,0,1,1,-2.7386127875258306,0A2.7386127875258306,2.7386127875258306,0,1,1,2.7386127875258306,0" stroke="#4c78a8" stroke-width="2" opacity="0.7"/><path aria-label="leverage: 0.016616489999; rstudent: 1.12180553115" role="graphics-symbol" aria-roledescription="point" transform="translate(55.38829999655108,100.23232500753845)" d="M2.7386127875258306,0A2.7386127875258306,2.7386127875258306,0,1,1,-2.7386127875258306,0A2.7386127875258306,2.7386127875258306,0,1,1,2.7386127875258306,0" stroke="#4c78a8" stroke-width="2" opacity="0.7"/><path aria-label="leverage: 0.0161303726887; rstudent: −0.0143928140144" role="graphics-symbol" aria-roledescription="point" transform="translate(53.76790896236214,182.86493192831904)" d="M2.7386127875258306,0A2.7386127875258306,2.7386127875258306,0,1,1,-2.7386127875258306,0A2.7386127875258306,2.7386127875258306,0,1,1,2.7386127875258306,0" stroke="#4c78a8" stroke-width="2" opacity="0.7"/><path aria-label="leverage: 0.0157318030443; rstudent: 1.87409322999" role="graphics-symbol" aria-roledescription="point" transform="translate(52.43934348084781,45.52049236457609)" d="M2.7386127875258306,0A2.7386127875258306,2.7386127875258306,0,1,1,-2.7386127875258306,0A2.7386127875258306,2.7386127875258306,0,1,1,2.7386127875258306,0" stroke="#4c78a8" stroke-width="2" opacity="0.7"/><path aria-label="leverage: 0.0154184507496; rstudent: −0.155310331467" role="graphics-symbol" aria-roledescription="point" transform="translate(51.39483583191045,193.11347865215893)" d="M2.7386127875258306,0A2.7386127875258306,2.7386127875258306,0,1,1,-2.7386127875258306,0A2.7386127875258306,2.7386127875258306,0,1,1,2.7386127875258306,0" stroke="#4c78a8" stroke-width="2" opacity="0.7"/><path aria-label="leverage: 0.0151876334647; rstudent: 0.660033496076" role="graphics-symbol" aria-roledescription="point" transform="translate(50.625444882400394,133.81574573994675)" d="M2.7386127875258306,0A2.7386127875258306,2.7386127875258306,0,1,1,-2.7386127875258306,0A2.7386127875258306,2.7386127875258306,0,1,1,2.7386127875258306,0" stroke="#4c78a8" stroke-width="2" opacity="0.7"/><path aria-label="leverage: 0.0150363288033; rstudent: 0.709397745099" role="graphics-symbol" aria-roledescription="point" transform="translate(50.121096010905596,130.22561853825718)" d="M2.7386127875258306,0A2.7386127875258306,2.7386127875258306,0,1,1,-2.7386127875258306,0A2.7386127875258306,2.7386127875258306,0,1,1,2.7386127875258306,0" stroke="#4c78a8" stroke-width="2" opacity="0.7"/><path aria-label="leverage: 0.0149611877189; rstudent: 0.924001272964" role="graphics-symbol" aria-roledescription="point" transform="translate(49.870625729575266,114.61808923898009)" d="M2.7386127875258306,0A2.7386127875258306,2.7386127875258306,0,1,1,-2.7386127875258306,0A2.7386127875258306,2.7386127875258306,0,1,1,2.7386127875258306,0" stroke="#4c78a8" stroke-width="2" opacity="0.7"/><path aria-label="leverage: 0.0149585493009; rstudent: 1.29061829975" role="graphics-symbol" aria-roledescription="point" transform="translate(49.86183100297767,87.9550327458087)" d="M2.7386127875258306,0A2.7386127875258306,2.7386127875258306,0,1,1,-2.7386127875258306,0A2.7386127875258306,2.7386127875258306,0,1,1,2.7386127875258306,0" stroke="#4c78a8" stroke-width="2" opacity="0.7"/><path aria-label="leverage: 0.0150244569792; rstudent: −1.84388556326" role="graphics-symbol" aria-roledescription="point" transform="translate(50.081523263991926,315.91895005492677)" d="M2.7386127875258306,0A2.7386127875258306,2.7386127875258306,0,1,1,-2.7386127875258306,0A2.7386127875258306,2.7386127875258306,0,1,1,2.7386127875258306,0" stroke="#4c78a8" stroke-width="2" opacity="0.7"/><path aria-label="leverage: 0.015154676138; rstudent: −0.693829275718" role="graphics-symbol" aria-roledescription="point" transform="translate(50.51558712673396,232.2784927795019)" d="M2.7386127875258306,0A2.7386127875258306,2.7386127875258306,0,1,1,-2.7386127875258306,0A2.7386127875258306,2.7386127875258306,0,1,1,2.7386127875258306,0" stroke="#4c78a8" stroke-width="2" opacity="0.7"/><path aria-label="leverage: 0.015344713139; rstudent: −1.25181303251" role="graphics-symbol" aria-roledescription="point" transform="translate(51.149043796516494,272.8591296371961)" d="M2.7386127875258306,0A2.7386127875258306,2.7386127875258306,0,1,1,-2.7386127875258306,0A2.7386127875258306,2.7386127875258306,0,1,1,2.7386127875258306,0" stroke="#4c78a8" stroke-width="2" opacity="0.7"/><path aria-label="leverage: 0.0155898357531; rstudent: −0.966839997342" role="graphics-symbol" aria-roledescription="point" transform="translate(51.96611917684301,252.1338179885126)" d="M2.7386127875258306,0A2.7386127875258306,2.7386127875258306,0,1,1,-2.7386127875258306,0A2.7386127875258306,2.7386127875258306,0,1,1,2.7386127875258306,0" stroke="#4c78a8" stroke-width="2" opacity="0.7"/><path aria-label="leverage: 0.015885095002; rstudent: 0.0480839072342" role="graphics-symbol" aria-roledescription="point" transform="translate(52.950316673435985,178.32117038296923)" d="M2.7386127875258306,0A2.7386127875258306,2.7386127875258306,0,1,1,-2.7386127875258306,0A2.7386127875258306,2.7386127875258306,0,1,1,2.7386127875258306,0" stroke="#4c78a8" stroke-width="2" opacity="0.7"/><path aria-label="leverage: 0.0162253484086; rstudent: −1.21896872227" role="graphics-symbol" aria-roledescription="point" transform="translate(54.08449469529899,270.47045252837734)" d="M2.7386127875258306,0A2.7386127875258306,2.7386127875258306,0,1,1,-2.7386127875258306,0A2.7386127875258306,2.7386127875258306,0,1,1,2.7386127875258306,0" stroke="#4c78a8" stroke-width="2" opacity="0.7"/><path aria-label="leverage: 0.0166052846558; rstudent: 0.628159723221" role="graphics-symbol" aria-roledescription="point" transform="translate(55.35094885281311,136.1338383112305)" d="M2.7386127875258306,0A2.7386127875258306,2.7386127875258306,0,1,1,-2.7386127875258306,0A2.7386127875258306,2.7386127875258306,0,1,1,2.7386127875258306,0" stroke="#4c78a8" stroke-width="2" opacity="0.7"/><path aria-label="leverage: 0.0170194496559; rstudent: 0.887385776191" role="graphics-symbol" aria-roledescription="point" transform="translate(56.73149885286707,117.2810344588691)" d="M2.7386127875258306,0A2.7386127875258306,2.7386127875258306,0,1,1,-2.7386127875258306,0A2.7386127875258306,2.7386127875258306,0,1,1,2.7386127875258306,0" stroke="#4c78a8" stroke-width="2" opacity="0.7"/><path aria-label="leverage: 0.0174622740273; rstudent: −1.77003887684" role="graphics-symbol" aria-roledescription="point" transform="translate(58.20758009102184,310.5482819521917)" d="M2.7386127875258306,0A2.7386127875258306,2.7386127875258306,0,1,1,-2.7386127875258306,0A2.7386127875258306,2.7386127875258306,0,1,1,2.7386127875258306,0" stroke="#4c78a8" stroke-width="2" opacity="0.7"/><path aria-label="leverage: 0.0179281019822; rstudent: −0.20774734995" role="graphics-symbol" aria-roledescription="point" transform="translate(59.76033994070905,196.92707999635465)" d="M2.7386127875258306,0A2.7386127875258306,2.7386127875258306,0,1,1,-2.7386127875258306,0A2.7386127875258306,2.7386127875258306,0,1,1,2.7386127875258306,0" stroke="#4c78a8" stroke-width="2" opacity="0.7"/><path aria-label="leverage: 0.0184112216218; rstudent: −0.358558913806" role="graphics-symbol" aria-roledescription="point" transform="translate(61.37073873946355,207.89519373135184)" d="M2.7386127875258306,0A2.7386127875258306,2.7386127875258306,0,1,1,-2.7386127875258306,0A2.7386127875258306,2.7386127875258306,0,1,1,2.7386127875258306,0" stroke="#4c78a8" stroke-width="2" opacity="0.7"/><path aria-label="leverage: 0.0189058966417; rstudent: 1.29105710621" role="graphics-symbol" aria-roledescription="point" transform="translate(63.019655472190074,87.92311954867303)" d="M2.7386127875258306,0A2.7386127875258306,2.7386127875258306,0,1,1,-2.7386127875258306,0A2.7386127875258306,2.7386127875258306,0,1,1,2.7386127875258306,0" stroke="#4c78a8" stroke-width="2" opacity="0.7"/><path aria-label="leverage: 0.0194063994454; rstudent: 0.657856055111" role="graphics-symbol" aria-roledescription="point" transform="translate(64.68799815146384,133.97410508282465)" d="M2.7386127875258306,0A2.7386127875258306,2.7386127875258306,0,1,1,-2.7386127875258306,0A2.7386127875258306,2.7386127875258306,0,1,1,2.7386127875258306,0" stroke="#4c78a8" stroke-width="2" opacity="0.7"/><path aria-label="leverage: 0.0199070456685; rstudent: −0.630733706822" role="graphics-symbol" aria-roledescription="point" transform="translate(66.35681889486557,227.68972413248437)" d="M2.7386127875258306,0A2.7386127875258306,2.7386127875258306,0,1,1,-2.7386127875258306,0A2.7386127875258306,2.7386127875258306,0,1,1,2.7386127875258306,0" stroke="#4c78a8" stroke-width="2" opacity="0.7"/><path aria-label="leverage: 0.0204022301098; rstudent: 0.859956731048" role="graphics-symbol" aria-roledescription="point" transform="translate(68.00743369935,119.27587410558087)" d="M2.7386127875258306,0A2.7386127875258306,2.7386127875258306,0,1,1,-2.7386127875258306,0A2.7386127875258306,2.7386127875258306,0,1,1,2.7386127875258306,0" stroke="#4c78a8" stroke-width="2" opacity="0.7"/><path aria-label="leverage: 0.0208864640738; rstudent: 0.108007171467" role="graphics-symbol" aria-roledescription="point" transform="translate(69.62154691264915,173.96311480241064)" d="M2.7386127875258306,0A2.7386127875258306,2.7386127875258306,0,1,1,-2.7386127875258306,0A2.7386127875258306,2.7386127875258306,0,1,1,2.7386127875258306,0" stroke="#4c78a8" stroke-width="2" opacity="0.7"/><path aria-label="leverage: 0.0213544141205; rstudent: 0.390089809212" role="graphics-symbol" aria-roledescription="point" transform="translate(71.18138040170908,153.44801387547676)" d="M2.7386127875258306,0A2.7386127875258306,2.7386127875258306,0,1,1,-2.7386127875258306,0A2.7386127875258306,2.7386127875258306,0,1,1,2.7386127875258306,0" stroke="#4c78a8" stroke-width="2" opacity="0.7"/><path aria-label="leverage: 0.0218009422254; rstudent: −0.932437030472" role="graphics-symbol" aria-roledescription="point" transform="translate(72.66980741816104,249.63178403430524)" d="M2.7386127875258306,0A2.7386127875258306,2.7386127875258306,0,1,1,-2.7386127875258306,0A2.7386127875258306,2.7386127875258306,0,1,1,2.7386127875258306,0" stroke="#4c78a8" stroke-width="2" opacity="0.7"/><path aria-label="leverage: 0.0222211473482; rstudent: 0.00500770334677" role="graphics-symbol" aria-roledescription="point" transform="translate(74.0704911608267,181.4539852111438)" d="M2.7386127875258306,0A2.7386127875258306,2.7386127875258306,0,1,1,-2.7386127875258306,0A2.7386127875258306,2.7386127875258306,0,1,1,2.7386127875258306,0" stroke="#4c78a8" stroke-width="2" opacity="0.7"/><path aria-label="leverage: 0.0226104084106; rstudent: −1.1102911676" role="graphics-symbol" aria-roledescription="point" transform="translate(75.36802803525717,262.56663037107415)" d="M2.7386127875258306,0A2.7386127875258306,2.7386127875258306,0,1,1,-2.7386127875258306,0A2.7386127875258306,2.7386127875258306,0,1,1,2.7386127875258306,0" stroke="#4c78a8" stroke-width="2" opacity="0.7"/><path aria-label="leverage: 0.0229644286831; rstudent: −0.890781787807" role="graphics-symbol" aria-roledescription="point" transform="translate(76.5480956103065,246.60231184052233)" d="M2.7386127875258306,0A2.7386127875258306,2.7386127875258306,0,1,1,-2.7386127875258306,0A2.7386127875258306,2.7386127875258306,0,1,1,2.7386127875258306,0" stroke="#4c78a8" stroke-width="2" opacity="0.7"/><path aria-label="leverage: 0.0232792815815; rstudent: −0.910319286761" role="graphics-symbol" aria-roledescription="point" transform="translate(77.59760527173883,248.02322085532086)" d="M2.7386127875258306,0A2.7386127875258306,2.7386127875258306,0,1,1,-2.7386127875258306,0A2.7386127875258306,2.7386127875258306,0,1,1,2.7386127875258306,0" stroke="#4c78a8" stroke-width="2" opacity="0.7"/><path aria-label="leverage: 0.0235514578719; rstudent: 0.421638559275" role="graphics-symbol" aria-roledescription="point" transform="translate(78.50485957287005,151.15355932548528)" d="M2.7386127875258306,0A2.7386127875258306,2.7386127875258306,0,1,1,-2.7386127875258306,0A2.7386127875258306,2.7386127875258306,0,1,1,2.7386127875258306,0" stroke="#4c78a8" stroke-width="2" opacity="0.7"/><path aria-label="leverage: 0.0237779142847; rstudent: −0.875884656739" role="graphics-symbol" aria-roledescription="point" transform="translate(79.25971428224312,245.51888412644428)" d="M2.7386127875258306,0A2.7386127875258306,2.7386127875258306,0,1,1,-2.7386127875258306,0A2.7386127875258306,2.7386127875258306,0,1,1,2.7386127875258306,0" stroke="#4c78a8" stroke-width="2" opacity="0.7"/><path aria-label="leverage: 0.0239561235385; rstudent: −1.10639311877" role="graphics-symbol" aria-roledescription="point" transform="translate(79.85374512833772,262.2831359107729)" d="M2.7386127875258306,0A2.7386127875258306,2.7386127875258306,0,1,1,-2.7386127875258306,0A2.7386127875258306,2.7386127875258306,0,1,1,2.7386127875258306,0" stroke="#4c78a8" stroke-width="2" opacity="0.7"/><path aria-label="leverage: 0.0240841257724; rstudent: 1.46225152933" role="graphics-symbol" aria-roledescription="point" transform="translate(80.280419241314,75.4726160489986)" d="M2.7386127875258306,0A2.7386127875258306,2.7386127875258306,0,1,1,-2.7386127875258306,0A2.7386127875258306,2.7386127875258306,0,1,1,2.7386127875258306,0" stroke="#4c78a8" stroke-width="2" opacity="0.7"/><path aria-label="leverage: 0.0241605813875; rstudent: −0.37390938187" role="graphics-symbol" aria-roledescription="point" transform="translate(80.53527129179,209.01159140874285)" d="M2.7386127875258306,0A2.7386127875258306,2.7386127875258306,0,1,1,-2.7386127875258306,0A2.7386127875258306,2.7386127875258306,0,1,1,2.7386127875258306,0" stroke="#4c78a8" stroke-width="2" opacity="0.7"/><path aria-label="leverage: 0.024184825298; rstudent: 0.0579716154335" role="graphics-symbol" aria-roledescription="point" transform="translate(80.61608432665385,177.6020643321079)" d="M2.7386127875258306,0A2.7386127875258306,2.7386127875258306,0,1,1,-2.7386127875258306,0A2.7386127875258306,2.7386127875258306,0,1,1,2.7386127875258306,0" stroke="#4c78a8" stroke-width="2" opacity="0.7"/><path aria-label="leverage: 0.0241569225906; rstudent: −0.0151962147009" role="graphics-symbol" aria-roledescription="point" transform="translate(80.52307530190937,182.9233610691596)" d="M2.7386127875258306,0A2.7386127875258306,2.7386127875258306,0,1,1,-2.7386127875258306,0A2.7386127875258306,2.7386127875258306,0,1,1,2.7386127875258306,0" stroke="#4c78a8" stroke-width="2" opacity="0.7"/><path aria-label="leverage: 0.0240777255938; rstudent: −0.397561824655" role="graphics-symbol" aria-roledescription="point" transform="translate(80.25908531255604,210.73176906585172)" d="M2.7386127875258306,0A2.7386127875258306,2.7386127875258306,0,1,1,-2.7386127875258306,0A2.7386127875258306,2.7386127875258306,0,1,1,2.7386127875258306,0" stroke="#4c78a8" stroke-width="2" opacity="0.7"/><path aria-label="leverage: 0.0239489323559; rstudent: −0.458105419869" role="graphics-symbol" aria-roledescription="point" transform="translate(79.8297745195031,215.13493962682446)" d="M2.7386127875258306,0A2.7386127875258306,2.7386127875258306,0,1,1,-2.7386127875258306,0A2.7386127875258306,2.7386127875258306,0,1,1,2.7386127875258306,0" stroke="#4c78a8" stroke-width="2" opacity="0.7"/><path aria-label="leverage: 0.0237731465321; rstudent: −0.448617317347" role="graphics-symbol" aria-roledescription="point" transform="translate(79.24382177351767,214.44489580702566)" d="M2.7386127875258306,0A2.7386127875258306,2.7386127875258306,0,1,1,-2.7386127875258306,0A2.7386127875258306,2.7386127875258306,0,1,1,2.7386127875258306,0" stroke="#4c78a8" stroke-width="2" opacity="0.7"/><path aria-label="leverage: 0.0235539386809; rstudent: −0.549281444225" role="graphics-symbol" aria-roledescription="point" transform="translate(78.51312893620661,221.76592321635846)" d="M2.7386127875258306,0A2.7386127875258306,2.7386127875258306,0,1,1,-2.7386127875258306,0A2.7386127875258306,2.7386127875258306,0,1,1,2.7386127875258306,0" stroke="#4c78a8" stroke-width="2" opacity="0.7"/><path aria-label="leverage: 0.0232959089694; rstudent: 0.529432580893" role="graphics-symbol" aria-roledescription="point" transform="translate(77.65302989803324,143.31399411689895)" d="M2.7386127875258306,0A2.7386127875258306,2.7386127875258306,0,1,1,-2.7386127875258306,0A2.7386127875258306,2.7386127875258306,0,1,1,2.7386127875258306,0" stroke="#4c78a8" stroke-width="2" opacity="0.7"/><path aria-label="leverage: 0.023004751288; rstudent: 0.217882690974" role="graphics-symbol" aria-roledescription="point" transform="translate(76.68250429336723,165.9721679291763)" d="M2.7386127875258306,0A2.7386127875258306,2.7386127875258306,0,1,1,-2.7386127875258306,0A2.7386127875258306,2.7386127875258306,0,1,1,2.7386127875258306,0" stroke="#4c78a8" stroke-width="2" opacity="0.7"/><path aria-label="leverage: 0.0226873187738; rstudent: 2.13777828912" role="graphics-symbol" aria-roledescription="point" transform="translate(75.62439591256917,26.34339715515095)" d="M2.7386127875258306,0A2.7386127875258306,2.7386127875258306,0,1,1,-2.7386127875258306,0A2.7386127875258306,2.7386127875258306,0,1,1,2.7386127875258306,0" stroke="#4c78a8" stroke-width="2" opacity="0.7"/><path aria-label="leverage: 0.0223516907433; rstudent: −1.70840614153" role="graphics-symbol" aria-roledescription="point" transform="translate(74.50563581110885,306.0659012018687)" d="M2.7386127875258306,0A2.7386127875258306,2.7386127875258306,0,1,1,-2.7386127875258306,0A2.7386127875258306,2.7386127875258306,0,1,1,2.7386127875258306,0" stroke="#4c78a8" stroke-width="2" opacity="0.7"/><path aria-label="leverage: 0.0220072410347; rstudent: −1.30247618996" role="graphics-symbol" aria-roledescription="point" transform="translate(73.35747011571821,276.5437229064803)" d="M2.7386127875258306,0A2.7386127875258306,2.7386127875258306,0,1,1,-2.7386127875258306,0A2.7386127875258306,2.7386127875258306,0,1,1,2.7386127875258306,0" stroke="#4c78a8" stroke-width="2" opacity="0.7"/><path aria-label="leverage: 0.0216647077583; rstudent: 0.908494645785" role="graphics-symbol" aria-roledescription="point" transform="translate(72.21569252757739,115.74584394294138)" d="M2.7386127875258306,0A2.7386127875258306,2.7386127875258306,0,1,1,-2.7386127875258306,0A2.7386127875258306,2.7386127875258306,0,1,1,2.7386127875258306,0" stroke="#4c78a8" stroke-width="2" opacity="0.7"/><path aria-label="leverage: 0.0213362644568; rstudent: 0.522666414821" role="graphics-symbol" aria-roledescription="point" transform="translate(71.1208815225356,143.80607892211526)" d="M2.7386127875258306,0A2.7386127875258306,2.7386127875258306,0,1,1,-2.7386127875258306,0A2.7386127875258306,2.7386127875258306,0,1,1,2.7386127875258306,0" stroke="#4c78a8" stroke-width="2" opacity="0.7"/><path aria-label="leverage: 0.0210355926745; rstudent: −0.910779913602" role="graphics-symbol" aria-roledescription="point" transform="translate(70.11864224836623,248.05672098921585)" d="M2.7386127875258306,0A2.7386127875258306,2.7386127875258306,0,1,1,-2.7386127875258306,0A2.7386127875258306,2.7386127875258306,0,1,1,2.7386127875258306,0" stroke="#4c78a8" stroke-width="2" opacity="0.7"/><path aria-label="leverage: 0.0207779559357; rstudent: 2.49111084961" role="graphics-symbol" aria-roledescription="point" transform="translate(69.25985311905511,0.6464836644402006)" d="M2.7386127875258306,0A2.7386127875258306,2.7386127875258306,0,1,1,-2.7386127875258306,0A2.7386127875258306,2.7386127875258306,0,1,1,2.7386127875258306,0" stroke="#4c78a8" stroke-width="2" opacity="0.7"/><path aria-label="leverage: 0.0205802751318; rstudent: 0.390775454667" role="graphics-symbol" aria-roledescription="point" transform="translate(68.60091710612346,153.3981487514585)" d="M2.7386127875258306,0A2.7386127875258306,2.7386127875258306,0,1,1,-2.7386127875258306,0A2.7386127875258306,2.7386127875258306,0,1,1,2.7386127875258306,0" stroke="#4c78a8" stroke-width="2" opacity="0.7"/><path aria-label="leverage: 0.0204612053181; rstudent: 0.830487367186" role="graphics-symbol" aria-roledescription="point" transform="translate(68.20401772698541,121.41910056828502)" d="M2.7386127875258306,0A2.7386127875258306,2.7386127875258306,0,1,1,-2.7386127875258306,0A2.7386127875258306,2.7386127875258306,0,1,1,2.7386127875258306,0" stroke="#4c78a8" stroke-width="2" opacity="0.7"/><path aria-label="leverage: 0.0204412139191; rstudent: 1.6321053287" role="graphics-symbol" aria-roledescription="point" transform="translate(68.1373797303384,63.119612458010145)" d="M2.7386127875258306,0A2.7386127875258306,2.7386127875258306,0,1,1,-2.7386127875258306,0A2.7386127875258306,2.7386127875258306,0,1,1,2.7386127875258306,0" stroke="#4c78a8" stroke-width="2" opacity="0.7"/><path aria-label="leverage: 0.0205426603436; rstudent: 0.110690926102" role="graphics-symbol" aria-roledescription="point" transform="translate(68.47553447858851,173.7679326471582)" d="M2.7386127875258306,0A2.7386127875258306,2.7386127875258306,0,1,1,-2.7386127875258306,0A2.7386127875258306,2.7386127875258306,0,1,1,2.7386127875258306,0" stroke="#4c78a8" stroke-width="2" opacity="0.7"/><path aria-label="leverage: 0.0207898770082; rstudent: 0.806972354153" role="graphics-symbol" aria-roledescription="point" transform="translate(69.29959002730963,123.12928333435207)" d="M2.7386127875258306,0A2.7386127875258306,2.7386127875258306,0,1,1,-2.7386127875258306,0A2.7386127875258306,2.7386127875258306,0,1,1,2.7386127875258306,0" stroke="#4c78a8" stroke-width="2" opacity="0.7"/><path aria-label="leverage: 0.0212092517705; rstudent: 0.538085380806" role="graphics-symbol" aria-roledescription="point" transform="translate(70.69750590173692,142.68469957777117)" d="M2.7386127875258306,0A2.7386127875258306,2.7386127875258306,0,1,1,-2.7386127875258306,0A2.7386127875258306,2.7386127875258306,0,1,1,2.7386127875258306,0" stroke="#4c78a8" stroke-width="2" opacity="0.7"/><path aria-label="leverage: 0.0218293117711; rstudent: −1.40427869649" role="graphics-symbol" aria-roledescription="point" transform="translate(72.76437257029376,283.94754156258347)" d="M2.7386127875258306,0A2.7386127875258306,2.7386127875258306,0,1,1,-2.7386127875258306,0A2.7386127875258306,2.7386127875258306,0,1,1,2.7386127875258306,0" stroke="#4c78a8" stroke-width="2" opacity="0.7"/><path aria-label="leverage: 0.0226808086845; rstudent: 0.140476732487" role="graphics-symbol" aria-roledescription="point" transform="translate(75.60269561515356,171.60169218273364)" d="M2.7386127875258306,0A2.7386127875258306,2.7386127875258306,0,1,1,-2.7386127875258306,0A2.7386127875258306,2.7386127875258306,0,1,1,2.7386127875258306,0" stroke="#4c78a8" stroke-width="2" opacity="0.7"/><path aria-label="leverage: 0.02379680538; rstudent: −0.932327241185" role="graphics-symbol" aria-roledescription="point" transform="translate(79.32268459983473,249.62379935889203)" d="M2.7386127875258306,0A2.7386127875258306,2.7386127875258306,0,1,1,-2.7386127875258306,0A2.7386127875258306,2.7386127875258306,0,1,1,2.7386127875258306,0" stroke="#4c78a8" stroke-width="2" opacity="0.7"/><path aria-label="leverage: 0.0252127639901; rstudent: −1.3586975992" role="graphics-symbol" aria-roledescription="point" transform="translate(84.04254663383031,280.6325526691547)" d="M2.7386127875258306,0A2.7386127875258306,2.7386127875258306,0,1,1,-2.7386127875258306,0A2.7386127875258306,2.7386127875258306,0,1,1,2.7386127875258306,0" stroke="#4c78a8" stroke-width="2" opacity="0.7"/><path aria-label="leverage: 0.0269666353903; rstudent: 1.39700899764" role="graphics-symbol" aria-roledescription="point" transform="translate(89.88878463427227,80.21752744426678)" d="M2.7386127875258306,0A2.7386127875258306,2.7386127875258306,0,1,1,-2.7386127875258306,0A2.7386127875258306,2.7386127875258306,0,1,1,2.7386127875258306,0" stroke="#4c78a8" stroke-width="2" opacity="0.7"/><path aria-label="leverage: 0.0290989500854; rstudent: 0.175437178354" role="graphics-symbol" aria-roledescription="point" transform="translate(96.99650028462844,169.05911430150465)" d="M2.7386127875258306,0A2.7386127875258306,2.7386127875258306,0,1,1,-2.7386127875258306,0A2.7386127875258306,2.7386127875258306,0,1,1,2.7386127875258306,0" stroke="#4c78a8" stroke-width="2" opacity="0.7"/><path aria-label="leverage: 0.0316529105071; rstudent: −0.469638035893" role="graphics-symbol" aria-roledescription="point" transform="translate(105.50970169043445,215.97367533766558)" d="M2.7386127875258306,0A2.7386127875258306,2.7386127875258306,0,1,1,-2.7386127875258306,0A2.7386127875258306,2.7386127875258306,0,1,1,2.7386127875258306,0" stroke="#4c78a8" stroke-width="2" opacity="0.7"/><path aria-label="leverage: 0.0346744847196; rstudent: −0.380409029686" role="graphics-symbol" aria-roledescription="point" transform="translate(115.58161573205967,209.48429306808927)" d="M2.7386127875258306,0A2.7386127875258306,2.7386127875258306,0,1,1,-2.7386127875258306,0A2.7386127875258306,2.7386127875258306,0,1,1,2.7386127875258306,0" stroke="#4c78a8" stroke-width="2" opacity="0.7"/><path aria-label="leverage: 0.0382125015344; rstudent: −0.117282019013" role="graphics-symbol" aria-roledescription="point" transform="translate(127.37500511450664,190.347783200929)" d="M2.7386127875258306,0A2.7386127875258306,2.7386127875258306,0,1,1,-2.7386127875258306,0A2.7386127875258306,2.7386127875258306,0,1,1,2.7386127875258306,0" stroke="#4c78a8" stroke-width="2" opacity="0.7"/><path aria-label="leverage: 0.0423187470343; rstudent: −0.411529499493" role="graphics-symbol" aria-roledescription="point" transform="translate(141.06249011424657,211.7475999631332)" d="M2.7386127875258306,0A2.7386127875258306,2.7386127875258306,0,1,1,-2.7386127875258306,0A2.7386127875258306,2.7386127875258306,0,1,1,2.7386127875258306,0" stroke="#4c78a8" stroke-width="2" opacity="0.7"/><path aria-label="leverage: 0.0470480625069; rstudent: −0.307756597386" role="graphics-symbol" aria-roledescription="point" transform="translate(156.82687502308534,204.2004798098561)" d="M2.7386127875258306,0A2.7386127875258306,2.7386127875258306,0,1,1,-2.7386127875258306,0A2.7386127875258306,2.7386127875258306,0,1,1,2.7386127875258306,0" stroke="#4c78a8" stroke-width="2" opacity="0.7"/><path aria-label="leverage: 0.0524584437867; rstudent: −0.568984648408" role="graphics-symbol" aria-roledescription="point" transform="translate(174.86147928906664,223.1988835205794)" d="M2.7386127875258306,0A2.7386127875258306,2.7386127875258306,0,1,1,-2.7386127875258306,0A2.7386127875258306,2.7386127875258306,0,1,1,2.7386127875258306,0" stroke="#4c78a8" stroke-width="2" opacity="0.7"/><path aria-label="leverage: 0.0586111420063; rstudent: 0.380142426764" role="graphics-symbol" aria-roledescription="point" transform="translate(195.37047335440863,154.17145987173453)" d="M2.7386127875258306,0A2.7386127875258306,2.7386127875258306,0,1,1,-2.7386127875258306,0A2.7386127875258306,2.7386127875258306,0,1,1,2.7386127875258306,0" stroke="#4c78a8" stroke-width="2" opacity="0.7"/><path aria-label="leverage: 0.0655707657571; rstudent: −0.900851670138" role="graphics-symbol" aria-roledescription="point" transform="translate(218.56921919047267,247.3346669191196)" d="M2.7386127875258306,0A2.7386127875258306,2.7386127875258306,0,1,1,-2.7386127875258306,0A2.7386127875258306,2.7386127875258306,0,1,1,2.7386127875258306,0" stroke="#4c78a8" stroke-width="2" opacity="0.7"/><path aria-label="leverage: 0.0734053846589; rstudent: 0.782883845342" role="graphics-symbol" aria-roledescription="point" transform="translate(244.68461552976996,124.88117488425328)" d="M2.7386127875258306,0A2.7386127875258306,2.7386127875258306,0,1,1,-2.7386127875258306,0A2.7386127875258306,2.7386127875258306,0,1,1,2.7386127875258306,0" stroke="#4c78a8" stroke-width="2" opacity="0.7"/><path aria-label="leverage: 0.0821866343385; rstudent: −0.102007878577" role="graphics-symbol" aria-roledescription="point" transform="translate(273.95544779499795,189.23693662375888)" d="M2.7386127875258306,0A2.7386127875258306,2.7386127875258306,0,1,1,-2.7386127875258306,0A2.7386127875258306,2.7386127875258306,0,1,1,2.7386127875258306,0" stroke="#4c78a8" stroke-width="2" opacity="0.7"/><path aria-label="leverage: 0.0919898228175; rstudent: −0.3346672681" role="graphics-symbol" aria-roledescription="point" transform="translate(306.6327427251132,206.1576194981642)" d="M2.7386127875258306,0A2.7386127875258306,2.7386127875258306,0,1,1,-2.7386127875258306,0A2.7386127875258306,2.7386127875258306,0,1,1,2.7386127875258306,0" stroke="#4c78a8" stroke-width="2" opacity="0.7"/><path aria-label="leverage: 0.10289403831; rstudent: −0.739248559255" role="graphics-symbol" aria-roledescription="point" transform="translate(342.9801276984388,235.581713400373)" d="M2.7386127875258306,0A2.7386127875258306,2.7386127875258306,0,1,1,-2.7386127875258306,0A2.7386127875258306,2.7386127875258306,0,1,1,2.7386127875258306,0" stroke="#4c78a8" stroke-width="2" opacity="0.7"/><path aria-label="leverage: 0.114982258426; rstudent: 1.46052405394" role="graphics-symbol" aria-roledescription="point" transform="translate(383.27419475280425,75.59825062239427)" d="M2.7386127875258306,0A2.7386127875258306,2.7386127875258306,0,1,1,-2.7386127875258306,0A2.7386127875258306,2.7386127875258306,0,1,1,2.7386127875258306,0" stroke="#4c78a8" stroke-width="2" opacity="0.7"/></g><g class="mark-rule role-mark layer_1_marks" role="graphics-symbol" aria-roledescription="rule mark container"><line transform="translate(400,327.27272727272725)" x2="-400" y2="0" stroke="darkgrey"/><line transform="translate(400,327.27272727272725)" x2="-400" y2="0" stroke="darkgrey"/><line transform="translate(400,327.27272727272725)" x2="-400" y2="0" stroke="darkgrey"/><line transform="translate(400,327.27272727272725)" x2="-400" y2="0" stroke="darkgrey"/><line transform="translate(400,327.27272727272725)" x2="-400" y2="0" stroke="darkgrey"/><line transform="translate(400,327.27272727272725)" x2="-400" y2="0" stroke="darkgrey"/><line transform="translate(400,327.27272727272725)" x2="-400" y2="0" stroke="darkgrey"/><line transform="translate(400,327.27272727272725)" x2="-400" y2="0" stroke="darkgrey"/><line transform="translate(400,327.27272727272725)" x2="-400" y2="0" stroke="darkgrey"/><line transform="translate(400,327.27272727272725)" x2="-400" y2="0" stroke="darkgrey"/><line transform="translate(400,327.27272727272725)" x2="-400" y2="0" stroke="darkgrey"/><line transform="translate(400,327.27272727272725)" x2="-400" y2="0" stroke="darkgrey"/><line transform="translate(400,327.27272727272725)" x2="-400" y2="0" stroke="darkgrey"/><line transform="translate(400,327.27272727272725)" x2="-400" y2="0" stroke="darkgrey"/><line transform="translate(400,327.27272727272725)" x2="-400" y2="0" stroke="darkgrey"/><line transform="translate(400,327.27272727272725)" x2="-400" y2="0" stroke="darkgrey"/><line transform="translate(400,327.27272727272725)" x2="-400" y2="0" stroke="darkgrey"/><line transform="translate(400,327.27272727272725)" x2="-400" y2="0" stroke="darkgrey"/><line transform="translate(400,327.27272727272725)" x2="-400" y2="0" stroke="darkgrey"/><line transform="translate(400,327.27272727272725)" x2="-400" y2="0" stroke="darkgrey"/><line transform="translate(400,327.27272727272725)" x2="-400" y2="0" stroke="darkgrey"/><line transform="translate(400,327.27272727272725)" x2="-400" y2="0" stroke="darkgrey"/><line transform="translate(400,327.27272727272725)" x2="-400" y2="0" stroke="darkgrey"/><line transform="translate(400,327.27272727272725)" x2="-400" y2="0" stroke="darkgrey"/><line transform="translate(400,327.27272727272725)" x2="-400" y2="0" stroke="darkgrey"/><line transform="translate(400,327.27272727272725)" x2="-400" y2="0" stroke="darkgrey"/><line transform="translate(400,327.27272727272725)" x2="-400" y2="0" stroke="darkgrey"/><line transform="translate(400,327.27272727272725)" x2="-400" y2="0" stroke="darkgrey"/><line transform="translate(400,327.27272727272725)" x2="-400" y2="0" stroke="darkgrey"/><line transform="translate(400,327.27272727272725)" x2="-400" y2="0" stroke="darkgrey"/><line transform="translate(400,327.27272727272725)" x2="-400" y2="0" stroke="darkgrey"/><line transform="translate(400,327.27272727272725)" x2="-400" y2="0" stroke="darkgrey"/><line transform="translate(400,327.27272727272725)" x2="-400" y2="0" stroke="darkgrey"/><line transform="translate(400,327.27272727272725)" x2="-400" y2="0" stroke="darkgrey"/><line transform="translate(400,327.27272727272725)" x2="-400" y2="0" stroke="darkgrey"/><line transform="translate(400,327.27272727272725)" x2="-400" y2="0" stroke="darkgrey"/><line transform="translate(400,327.27272727272725)" x2="-400" y2="0" stroke="darkgrey"/><line transform="translate(400,327.27272727272725)" x2="-400" y2="0" stroke="darkgrey"/><line transform="translate(400,327.27272727272725)" x2="-400" y2="0" stroke="darkgrey"/><line transform="translate(400,327.27272727272725)" x2="-400" y2="0" stroke="darkgrey"/><line transform="translate(400,327.27272727272725)" x2="-400" y2="0" stroke="darkgrey"/><line transform="translate(400,327.27272727272725)" x2="-400" y2="0" stroke="darkgrey"/><line transform="translate(400,327.27272727272725)" x2="-400" y2="0" stroke="darkgrey"/><line transform="translate(400,327.27272727272725)" x2="-400" y2="0" stroke="darkgrey"/><line transform="translate(400,327.27272727272725)" x2="-400" y2="0" stroke="darkgrey"/><line transform="translate(400,327.27272727272725)" x2="-400" y2="0" stroke="darkgrey"/><line transform="translate(400,327.27272727272725)" x2="-400" y2="0" stroke="darkgrey"/><line transform="translate(400,327.27272727272725)" x2="-400" y2="0" stroke="darkgrey"/><line transform="translate(400,327.27272727272725)" x2="-400" y2="0" stroke="darkgrey"/><line transform="translate(400,327.27272727272725)" x2="-400" y2="0" stroke="darkgrey"/><line transform="translate(400,327.27272727272725)" x2="-400" y2="0" stroke="darkgrey"/><line transform="translate(400,327.27272727272725)" x2="-400" y2="0" stroke="darkgrey"/><line transform="translate(400,327.27272727272725)" x2="-400" y2="0" stroke="darkgrey"/><line transform="translate(400,327.27272727272725)" x2="-400" y2="0" stroke="darkgrey"/><line transform="translate(400,327.27272727272725)" x2="-400" y2="0" stroke="darkgrey"/><line transform="translate(400,327.27272727272725)" x2="-400" y2="0" stroke="darkgrey"/><line transform="translate(400,327.27272727272725)" x2="-400" y2="0" stroke="darkgrey"/><line transform="translate(400,327.27272727272725)" x2="-400" y2="0" stroke="darkgrey"/><line transform="translate(400,327.27272727272725)" x2="-400" y2="0" stroke="darkgrey"/><line transform="translate(400,327.27272727272725)" x2="-400" y2="0" stroke="darkgrey"/><line transform="translate(400,327.27272727272725)" x2="-400" y2="0" stroke="darkgrey"/><line transform="translate(400,327.27272727272725)" x2="-400" y2="0" stroke="darkgrey"/><line transform="translate(400,327.27272727272725)" x2="-400" y2="0" stroke="darkgrey"/><line transform="translate(400,327.27272727272725)" x2="-400" y2="0" stroke="darkgrey"/><line transform="translate(400,327.27272727272725)" x2="-400" y2="0" stroke="darkgrey"/><line transform="translate(400,327.27272727272725)" x2="-400" y2="0" stroke="darkgrey"/><line transform="translate(400,327.27272727272725)" x2="-400" y2="0" stroke="darkgrey"/><line transform="translate(400,327.27272727272725)" x2="-400" y2="0" stroke="darkgrey"/><line transform="translate(400,327.27272727272725)" x2="-400" y2="0" stroke="darkgrey"/><line transform="translate(400,327.27272727272725)" x2="-400" y2="0" stroke="darkgrey"/><line transform="translate(400,327.27272727272725)" x2="-400" y2="0" stroke="darkgrey"/><line transform="translate(400,327.27272727272725)" x2="-400" y2="0" stroke="darkgrey"/><line transform="translate(400,327.27272727272725)" x2="-400" y2="0" stroke="darkgrey"/><line transform="translate(400,327.27272727272725)" x2="-400" y2="0" stroke="darkgrey"/><line transform="translate(400,327.27272727272725)" x2="-400" y2="0" stroke="darkgrey"/><line transform="translate(400,327.27272727272725)" x2="-400" y2="0" stroke="darkgrey"/><line transform="translate(400,327.27272727272725)" x2="-400" y2="0" stroke="darkgrey"/><line transform="translate(400,327.27272727272725)" x2="-400" y2="0" stroke="darkgrey"/><line transform="translate(400,327.27272727272725)" x2="-400" y2="0" stroke="darkgrey"/><line transform="translate(400,327.27272727272725)" x2="-400" y2="0" stroke="darkgrey"/><line transform="translate(400,327.27272727272725)" x2="-400" y2="0" stroke="darkgrey"/><line transform="translate(400,327.27272727272725)" x2="-400" y2="0" stroke="darkgrey"/><line transform="translate(400,327.27272727272725)" x2="-400" y2="0" stroke="darkgrey"/><line transform="translate(400,327.27272727272725)" x2="-400" y2="0" stroke="darkgrey"/><line transform="translate(400,327.27272727272725)" x2="-400" y2="0" stroke="darkgrey"/><line transform="translate(400,327.27272727272725)" x2="-400" y2="0" stroke="darkgrey"/><line transform="translate(400,327.27272727272725)" x2="-400" y2="0" stroke="darkgrey"/><line transform="translate(400,327.27272727272725)" x2="-400" y2="0" stroke="darkgrey"/><line transform="translate(400,327.27272727272725)" x2="-400" y2="0" stroke="darkgrey"/><line transform="translate(400,327.27272727272725)" x2="-400" y2="0" stroke="darkgrey"/><line transform="translate(400,327.27272727272725)" x2="-400" y2="0" stroke="darkgrey"/><line transform="translate(400,327.27272727272725)" x2="-400" y2="0" stroke="darkgrey"/><line transform="translate(400,327.27272727272725)" x2="-400" y2="0" stroke="darkgrey"/><line transform="translate(400,327.27272727272725)" x2="-400" y2="0" stroke="darkgrey"/><line transform="translate(400,327.27272727272725)" x2="-400" y2="0" stroke="darkgrey"/><line transform="translate(400,327.27272727272725)" x2="-400" y2="0" stroke="darkgrey"/><line transform="translate(400,327.27272727272725)" x2="-400" y2="0" stroke="darkgrey"/><line transform="translate(400,327.27272727272725)" x2="-400" y2="0" stroke="darkgrey"/><line transform="translate(400,327.27272727272725)" x2="-400" y2="0" stroke="darkgrey"/><line transform="translate(400,327.27272727272725)" x2="-400" y2="0" stroke="darkgrey"/><line transform="translate(400,327.27272727272725)" x2="-400" y2="0" stroke="darkgrey"/></g><g class="mark-rule role-mark layer_2_marks" role="graphics-symbol" aria-roledescription="rule mark container"><line transform="translate(198.01980198019803,0)" x2="0" y2="400" stroke="darkgrey"/><line transform="translate(198.01980198019803,0)" x2="0" y2="400" stroke="darkgrey"/><line transform="translate(198.01980198019803,0)" x2="0" y2="400" stroke="darkgrey"/><line transform="translate(198.01980198019803,0)" x2="0" y2="400" stroke="darkgrey"/><line transform="translate(198.01980198019803,0)" x2="0" y2="400" stroke="darkgrey"/><line transform="translate(198.01980198019803,0)" x2="0" y2="400" stroke="darkgrey"/><line transform="translate(198.01980198019803,0)" x2="0" y2="400" stroke="darkgrey"/><line transform="translate(198.01980198019803,0)" x2="0" y2="400" stroke="darkgrey"/><line transform="translate(198.01980198019803,0)" x2="0" y2="400" stroke="darkgrey"/><line transform="translate(198.01980198019803,0)" x2="0" y2="400" stroke="darkgrey"/><line transform="translate(198.01980198019803,0)" x2="0" y2="400" stroke="darkgrey"/><line transform="translate(198.01980198019803,0)" x2="0" y2="400" stroke="darkgrey"/><line transform="translate(198.01980198019803,0)" x2="0" y2="400" stroke="darkgrey"/><line transform="translate(198.01980198019803,0)" x2="0" y2="400" stroke="darkgrey"/><line transform="translate(198.01980198019803,0)" x2="0" y2="400" stroke="darkgrey"/><line transform="translate(198.01980198019803,0)" x2="0" y2="400" stroke="darkgrey"/><line transform="translate(198.01980198019803,0)" x2="0" y2="400" stroke="darkgrey"/><line transform="translate(198.01980198019803,0)" x2="0" y2="400" stroke="darkgrey"/><line transform="translate(198.01980198019803,0)" x2="0" y2="400" stroke="darkgrey"/><line transform="translate(198.01980198019803,0)" x2="0" y2="400" stroke="darkgrey"/><line transform="translate(198.01980198019803,0)" x2="0" y2="400" stroke="darkgrey"/><line transform="translate(198.01980198019803,0)" x2="0" y2="400" stroke="darkgrey"/><line transform="translate(198.01980198019803,0)" x2="0" y2="400" stroke="darkgrey"/><line transform="translate(198.01980198019803,0)" x2="0" y2="400" stroke="darkgrey"/><line transform="translate(198.01980198019803,0)" x2="0" y2="400" stroke="darkgrey"/><line transform="translate(198.01980198019803,0)" x2="0" y2="400" stroke="darkgrey"/><line transform="translate(198.01980198019803,0)" x2="0" y2="400" stroke="darkgrey"/><line transform="translate(198.01980198019803,0)" x2="0" y2="400" stroke="darkgrey"/><line transform="translate(198.01980198019803,0)" x2="0" y2="400" stroke="darkgrey"/><line transform="translate(198.01980198019803,0)" x2="0" y2="400" stroke="darkgrey"/><line transform="translate(198.01980198019803,0)" x2="0" y2="400" stroke="darkgrey"/><line transform="translate(198.01980198019803,0)" x2="0" y2="400" stroke="darkgrey"/><line transform="translate(198.01980198019803,0)" x2="0" y2="400" stroke="darkgrey"/><line transform="translate(198.01980198019803,0)" x2="0" y2="400" stroke="darkgrey"/><line transform="translate(198.01980198019803,0)" x2="0" y2="400" stroke="darkgrey"/><line transform="translate(198.01980198019803,0)" x2="0" y2="400" stroke="darkgrey"/><line transform="translate(198.01980198019803,0)" x2="0" y2="400" stroke="darkgrey"/><line transform="translate(198.01980198019803,0)" x2="0" y2="400" stroke="darkgrey"/><line transform="translate(198.01980198019803,0)" x2="0" y2="400" stroke="darkgrey"/><line transform="translate(198.01980198019803,0)" x2="0" y2="400" stroke="darkgrey"/><line transform="translate(198.01980198019803,0)" x2="0" y2="400" stroke="darkgrey"/><line transform="translate(198.01980198019803,0)" x2="0" y2="400" stroke="darkgrey"/><line transform="translate(198.01980198019803,0)" x2="0" y2="400" stroke="darkgrey"/><line transform="translate(198.01980198019803,0)" x2="0" y2="400" stroke="darkgrey"/><line transform="translate(198.01980198019803,0)" x2="0" y2="400" stroke="darkgrey"/><line transform="translate(198.01980198019803,0)" x2="0" y2="400" stroke="darkgrey"/><line transform="translate(198.01980198019803,0)" x2="0" y2="400" stroke="darkgrey"/><line transform="translate(198.01980198019803,0)" x2="0" y2="400" stroke="darkgrey"/><line transform="translate(198.01980198019803,0)" x2="0" y2="400" stroke="darkgrey"/><line transform="translate(198.01980198019803,0)" x2="0" y2="400" stroke="darkgrey"/><line transform="translate(198.01980198019803,0)" x2="0" y2="400" stroke="darkgrey"/><line transform="translate(198.01980198019803,0)" x2="0" y2="400" stroke="darkgrey"/><line transform="translate(198.01980198019803,0)" x2="0" y2="400" stroke="darkgrey"/><line transform="translate(198.01980198019803,0)" x2="0" y2="400" stroke="darkgrey"/><line transform="translate(198.01980198019803,0)" x2="0" y2="400" stroke="darkgrey"/><line transform="translate(198.01980198019803,0)" x2="0" y2="400" stroke="darkgrey"/><line transform="translate(198.01980198019803,0)" x2="0" y2="400" stroke="darkgrey"/><line transform="translate(198.01980198019803,0)" x2="0" y2="400" stroke="darkgrey"/><line transform="translate(198.01980198019803,0)" x2="0" y2="400" stroke="darkgrey"/><line transform="translate(198.01980198019803,0)" x2="0" y2="400" stroke="darkgrey"/><line transform="translate(198.01980198019803,0)" x2="0" y2="400" stroke="darkgrey"/><line transform="translate(198.01980198019803,0)" x2="0" y2="400" stroke="darkgrey"/><line transform="translate(198.01980198019803,0)" x2="0" y2="400" stroke="darkgrey"/><line transform="translate(198.01980198019803,0)" x2="0" y2="400" stroke="darkgrey"/><line transform="translate(198.01980198019803,0)" x2="0" y2="400" stroke="darkgrey"/><line transform="translate(198.01980198019803,0)" x2="0" y2="400" stroke="darkgrey"/><line transform="translate(198.01980198019803,0)" x2="0" y2="400" stroke="darkgrey"/><line transform="translate(198.01980198019803,0)" x2="0" y2="400" stroke="darkgrey"/><line transform="translate(198.01980198019803,0)" x2="0" y2="400" stroke="darkgrey"/><line transform="translate(198.01980198019803,0)" x2="0" y2="400" stroke="darkgrey"/><line transform="translate(198.01980198019803,0)" x2="0" y2="400" stroke="darkgrey"/><line transform="translate(198.01980198019803,0)" x2="0" y2="400" stroke="darkgrey"/><line transform="translate(198.01980198019803,0)" x2="0" y2="400" stroke="darkgrey"/><line transform="translate(198.01980198019803,0)" x2="0" y2="400" stroke="darkgrey"/><line transform="translate(198.01980198019803,0)" x2="0" y2="400" stroke="darkgrey"/><line transform="translate(198.01980198019803,0)" x2="0" y2="400" stroke="darkgrey"/><line transform="translate(198.01980198019803,0)" x2="0" y2="400" stroke="darkgrey"/><line transform="translate(198.01980198019803,0)" x2="0" y2="400" stroke="darkgrey"/><line transform="translate(198.01980198019803,0)" x2="0" y2="400" stroke="darkgrey"/><line transform="translate(198.01980198019803,0)" x2="0" y2="400" stroke="darkgrey"/><line transform="translate(198.01980198019803,0)" x2="0" y2="400" stroke="darkgrey"/><line transform="translate(198.01980198019803,0)" x2="0" y2="400" stroke="darkgrey"/><line transform="translate(198.01980198019803,0)" x2="0" y2="400" stroke="darkgrey"/><line transform="translate(198.01980198019803,0)" x2="0" y2="400" stroke="darkgrey"/><line transform="translate(198.01980198019803,0)" x2="0" y2="400" stroke="darkgrey"/><line transform="translate(198.01980198019803,0)" x2="0" y2="400" stroke="darkgrey"/><line transform="translate(198.01980198019803,0)" x2="0" y2="400" stroke="darkgrey"/><line transform="translate(198.01980198019803,0)" x2="0" y2="400" stroke="darkgrey"/><line transform="translate(198.01980198019803,0)" x2="0" y2="400" stroke="darkgrey"/><line transform="translate(198.01980198019803,0)" x2="0" y2="400" stroke="darkgrey"/><line transform="translate(198.01980198019803,0)" x2="0" y2="400" stroke="darkgrey"/><line transform="translate(198.01980198019803,0)" x2="0" y2="400" stroke="darkgrey"/><line transform="translate(198.01980198019803,0)" x2="0" y2="400" stroke="darkgrey"/><line transform="translate(198.01980198019803,0)" x2="0" y2="400" stroke="darkgrey"/><line transform="translate(198.01980198019803,0)" x2="0" y2="400" stroke="darkgrey"/><line transform="translate(198.01980198019803,0)" x2="0" y2="400" stroke="darkgrey"/><line transform="translate(198.01980198019803,0)" x2="0" y2="400" stroke="darkgrey"/><line transform="translate(198.01980198019803,0)" x2="0" y2="400" stroke="darkgrey"/><line transform="translate(198.01980198019803,0)" x2="0" y2="400" stroke="darkgrey"/><line transform="translate(198.01980198019803,0)" x2="0" y2="400" stroke="darkgrey"/><line transform="translate(198.01980198019803,0)" x2="0" y2="400" stroke="darkgrey"/></g><g class="mark-rule role-mark layer_3_marks" role="graphics-symbol" aria-roledescription="rule mark container"><line transform="translate(400,36.363636363636374)" x2="-400" y2="0" stroke="darkgrey"/><line transform="translate(400,36.363636363636374)" x2="-400" y2="0" stroke="darkgrey"/><line transform="translate(400,36.363636363636374)" x2="-400" y2="0" stroke="darkgrey"/><line transform="translate(400,36.363636363636374)" x2="-400" y2="0" stroke="darkgrey"/><line transform="translate(400,36.363636363636374)" x2="-400" y2="0" stroke="darkgrey"/><line transform="translate(400,36.363636363636374)" x2="-400" y2="0" stroke="darkgrey"/><line transform="translate(400,36.363636363636374)" x2="-400" y2="0" stroke="darkgrey"/><line transform="translate(400,36.363636363636374)" x2="-400" y2="0" stroke="darkgrey"/><line transform="translate(400,36.363636363636374)" x2="-400" y2="0" stroke="darkgrey"/><line transform="translate(400,36.363636363636374)" x2="-400" y2="0" stroke="darkgrey"/><line transform="translate(400,36.363636363636374)" x2="-400" y2="0" stroke="darkgrey"/><line transform="translate(400,36.363636363636374)" x2="-400" y2="0" stroke="darkgrey"/><line transform="translate(400,36.363636363636374)" x2="-400" y2="0" stroke="darkgrey"/><line transform="translate(400,36.363636363636374)" x2="-400" y2="0" stroke="darkgrey"/><line transform="translate(400,36.363636363636374)" x2="-400" y2="0" stroke="darkgrey"/><line transform="translate(400,36.363636363636374)" x2="-400" y2="0" stroke="darkgrey"/><line transform="translate(400,36.363636363636374)" x2="-400" y2="0" stroke="darkgrey"/><line transform="translate(400,36.363636363636374)" x2="-400" y2="0" stroke="darkgrey"/><line transform="translate(400,36.363636363636374)" x2="-400" y2="0" stroke="darkgrey"/><line transform="translate(400,36.363636363636374)" x2="-400" y2="0" stroke="darkgrey"/><line transform="translate(400,36.363636363636374)" x2="-400" y2="0" stroke="darkgrey"/><line transform="translate(400,36.363636363636374)" x2="-400" y2="0" stroke="darkgrey"/><line transform="translate(400,36.363636363636374)" x2="-400" y2="0" stroke="darkgrey"/><line transform="translate(400,36.363636363636374)" x2="-400" y2="0" stroke="darkgrey"/><line transform="translate(400,36.363636363636374)" x2="-400" y2="0" stroke="darkgrey"/><line transform="translate(400,36.363636363636374)" x2="-400" y2="0" stroke="darkgrey"/><line transform="translate(400,36.363636363636374)" x2="-400" y2="0" stroke="darkgrey"/><line transform="translate(400,36.363636363636374)" x2="-400" y2="0" stroke="darkgrey"/><line transform="translate(400,36.363636363636374)" x2="-400" y2="0" stroke="darkgrey"/><line transform="translate(400,36.363636363636374)" x2="-400" y2="0" stroke="darkgrey"/><line transform="translate(400,36.363636363636374)" x2="-400" y2="0" stroke="darkgrey"/><line transform="translate(400,36.363636363636374)" x2="-400" y2="0" stroke="darkgrey"/><line transform="translate(400,36.363636363636374)" x2="-400" y2="0" stroke="darkgrey"/><line transform="translate(400,36.363636363636374)" x2="-400" y2="0" stroke="darkgrey"/><line transform="translate(400,36.363636363636374)" x2="-400" y2="0" stroke="darkgrey"/><line transform="translate(400,36.363636363636374)" x2="-400" y2="0" stroke="darkgrey"/><line transform="translate(400,36.363636363636374)" x2="-400" y2="0" stroke="darkgrey"/><line transform="translate(400,36.363636363636374)" x2="-400" y2="0" stroke="darkgrey"/><line transform="translate(400,36.363636363636374)" x2="-400" y2="0" stroke="darkgrey"/><line transform="translate(400,36.363636363636374)" x2="-400" y2="0" stroke="darkgrey"/><line transform="translate(400,36.363636363636374)" x2="-400" y2="0" stroke="darkgrey"/><line transform="translate(400,36.363636363636374)" x2="-400" y2="0" stroke="darkgrey"/><line transform="translate(400,36.363636363636374)" x2="-400" y2="0" stroke="darkgrey"/><line transform="translate(400,36.363636363636374)" x2="-400" y2="0" stroke="darkgrey"/><line transform="translate(400,36.363636363636374)" x2="-400" y2="0" stroke="darkgrey"/><line transform="translate(400,36.363636363636374)" x2="-400" y2="0" stroke="darkgrey"/><line transform="translate(400,36.363636363636374)" x2="-400" y2="0" stroke="darkgrey"/><line transform="translate(400,36.363636363636374)" x2="-400" y2="0" stroke="darkgrey"/><line transform="translate(400,36.363636363636374)" x2="-400" y2="0" stroke="darkgrey"/><line transform="translate(400,36.363636363636374)" x2="-400" y2="0" stroke="darkgrey"/><line transform="translate(400,36.363636363636374)" x2="-400" y2="0" stroke="darkgrey"/><line transform="translate(400,36.363636363636374)" x2="-400" y2="0" stroke="darkgrey"/><line transform="translate(400,36.363636363636374)" x2="-400" y2="0" stroke="darkgrey"/><line transform="translate(400,36.363636363636374)" x2="-400" y2="0" stroke="darkgrey"/><line transform="translate(400,36.363636363636374)" x2="-400" y2="0" stroke="darkgrey"/><line transform="translate(400,36.363636363636374)" x2="-400" y2="0" stroke="darkgrey"/><line transform="translate(400,36.363636363636374)" x2="-400" y2="0" stroke="darkgrey"/><line transform="translate(400,36.363636363636374)" x2="-400" y2="0" stroke="darkgrey"/><line transform="translate(400,36.363636363636374)" x2="-400" y2="0" stroke="darkgrey"/><line transform="translate(400,36.363636363636374)" x2="-400" y2="0" stroke="darkgrey"/><line transform="translate(400,36.363636363636374)" x2="-400" y2="0" stroke="darkgrey"/><line transform="translate(400,36.363636363636374)" x2="-400" y2="0" stroke="darkgrey"/><line transform="translate(400,36.363636363636374)" x2="-400" y2="0" stroke="darkgrey"/><line transform="translate(400,36.363636363636374)" x2="-400" y2="0" stroke="darkgrey"/><line transform="translate(400,36.363636363636374)" x2="-400" y2="0" stroke="darkgrey"/><line transform="translate(400,36.363636363636374)" x2="-400" y2="0" stroke="darkgrey"/><line transform="translate(400,36.363636363636374)" x2="-400" y2="0" stroke="darkgrey"/><line transform="translate(400,36.363636363636374)" x2="-400" y2="0" stroke="darkgrey"/><line transform="translate(400,36.363636363636374)" x2="-400" y2="0" stroke="darkgrey"/><line transform="translate(400,36.363636363636374)" x2="-400" y2="0" stroke="darkgrey"/><line transform="translate(400,36.363636363636374)" x2="-400" y2="0" stroke="darkgrey"/><line transform="translate(400,36.363636363636374)" x2="-400" y2="0" stroke="darkgrey"/><line transform="translate(400,36.363636363636374)" x2="-400" y2="0" stroke="darkgrey"/><line transform="translate(400,36.363636363636374)" x2="-400" y2="0" stroke="darkgrey"/><line transform="translate(400,36.363636363636374)" x2="-400" y2="0" stroke="darkgrey"/><line transform="translate(400,36.363636363636374)" x2="-400" y2="0" stroke="darkgrey"/><line transform="translate(400,36.363636363636374)" x2="-400" y2="0" stroke="darkgrey"/><line transform="translate(400,36.363636363636374)" x2="-400" y2="0" stroke="darkgrey"/><line transform="translate(400,36.363636363636374)" x2="-400" y2="0" stroke="darkgrey"/><line transform="translate(400,36.363636363636374)" x2="-400" y2="0" stroke="darkgrey"/><line transform="translate(400,36.363636363636374)" x2="-400" y2="0" stroke="darkgrey"/><line transform="translate(400,36.363636363636374)" x2="-400" y2="0" stroke="darkgrey"/><line transform="translate(400,36.363636363636374)" x2="-400" y2="0" stroke="darkgrey"/><line transform="translate(400,36.363636363636374)" x2="-400" y2="0" stroke="darkgrey"/><line transform="translate(400,36.363636363636374)" x2="-400" y2="0" stroke="darkgrey"/><line transform="translate(400,36.363636363636374)" x2="-400" y2="0" stroke="darkgrey"/><line transform="translate(400,36.363636363636374)" x2="-400" y2="0" stroke="darkgrey"/><line transform="translate(400,36.363636363636374)" x2="-400" y2="0" stroke="darkgrey"/><line transform="translate(400,36.363636363636374)" x2="-400" y2="0" stroke="darkgrey"/><line transform="translate(400,36.363636363636374)" x2="-400" y2="0" stroke="darkgrey"/><line transform="translate(400,36.363636363636374)" x2="-400" y2="0" stroke="darkgrey"/><line transform="translate(400,36.363636363636374)" x2="-400" y2="0" stroke="darkgrey"/><line transform="translate(400,36.363636363636374)" x2="-400" y2="0" stroke="darkgrey"/><line transform="translate(400,36.363636363636374)" x2="-400" y2="0" stroke="darkgrey"/><line transform="translate(400,36.363636363636374)" x2="-400" y2="0" stroke="darkgrey"/><line transform="translate(400,36.363636363636374)" x2="-400" y2="0" stroke="darkgrey"/><line transform="translate(400,36.363636363636374)" x2="-400" y2="0" stroke="darkgrey"/><line transform="translate(400,36.363636363636374)" x2="-400" y2="0" stroke="darkgrey"/><line transform="translate(400,36.363636363636374)" x2="-400" y2="0" stroke="darkgrey"/><line transform="translate(400,36.363636363636374)" x2="-400" y2="0" stroke="darkgrey"/><line transform="translate(400,36.363636363636374)" x2="-400" y2="0" stroke="darkgrey"/></g><g class="mark-group role-title"><g transform="translate(200,-22)"><path class="background" aria-hidden="true" d="M0,0h0v0h0Z" pointer-events="none"/><g><g class="mark-text role-title-text" role="graphics-symbol" aria-roledescription="title" aria-label="Title text 'Leverage vs Rstudent'" pointer-events="none"><text text-anchor="middle" transform="translate(0,10)" font-family="sans-serif" font-size="13px" font-weight="bold" fill="#000" opacity="1">Leverage vs Rstudent</text></g></g><path class="foreground" aria-hidden="true" d="" pointer-events="none" display="none"/></g></g></g><path class="foreground" aria-hidden="true" d="" display="none"/></g></g></g></svg>
