<?xml version="1.0" encoding="utf-8"?>
<!DOCTYPE svg PUBLIC "-//W3C//DTD SVG 1.1//EN" "http://www.w3.org/Graphics/SVG/1.1/DTD/svg11.dtd">
<svg xmlns="http://www.w3.org/2000/svg" xmlns:xlink="http://www.w3.org/1999/xlink" version="1.1" class="marks" width="451" height="464" viewBox="0 0 451 464"><rect width="451" height="464" fill="white"/><g fill="none" stroke-miterlimit="10" transform="translate(45,27)"><g class="mark-group role-frame root" role="graphics-object" aria-roledescription="group mark container"><g transform="translate(0,0)"><path class="background" aria-hidden="true" d="M0.5,0.5h400v400h-400Z" stroke="#ddd"/><g><g class="mark-group role-axis" role="graphics-symbol" aria-roledescription="axis" aria-label="X-axis titled 'predicted' for a linear scale with values from −50 to 500"><g transform="translate(0.5,400.5)"><path class="background" aria-hidden="true" d="M0,0h0v0h0Z" pointer-events="none"/><g><g class="mark-rule role-axis-tick" pointer-events="none"><line transform="translate(0,0)" x2="0" y2="5" stroke="#888" stroke-width="1" opacity="1"/><line transform="translate(36,0)" x2="0" y2="5" stroke="#888" stroke-width="1" opacity="1"/><line transform="translate(73,0)" x2="0" y2="5" stroke="#888" stroke-width="1" opacity="1"/><line transform="translate(109,0)" x2="0" y2="5" stroke="#888" stroke-width="1" opacity="1"/><line transform="translate(145,0)" x2="0" y2="5" stroke="#888" stroke-width="1" opacity="1"/><line transform="translate(182,0)" x2="0" y2="5" stroke="#888" stroke-width="1" opacity="1"/><line transform="translate(218,0)" x2="0" y2="5" stroke="#888" stroke-width="1" opacity="1"/><line transform="translate(255,0)" x2="0" y2="5" stroke="#888" stroke-width="1" opacity="1"/><line transform="translate(291,0)" x2="0" y2="5" stroke="#888" stroke-width="1" opacity="1"/><line transform="translate(327,0)" x2="0" y2="5" stroke="#888" stroke-width="1" opacity="1"/><line transform="translate(364,0)" x2="0" y2="5" stroke="#888" stroke-width="1" opacity="1"/><line transform="translate(400,0)" x2="0" y2="5" stroke="#888" stroke-width="1" opacity="1"/></g><g class="mark-text role-axis-label" pointer-events="none"><text text-anchor="start" transform="translate(0,15)" font-family="sans-serif" font-size="10px" fill="#000" opacity="1">−50</text><text text-anchor="middle" transform="translate(36.36363636363637,15)" font-family="sans-serif" font-size="10px" fill="#000" opacity="1">0</text><text text-anchor="middle" transform="translate(72.72727272727273,15)" font-family="sans-serif" font-size="10px" fill="#000" opacity="1">50</text><text text-anchor="middle" transform="translate(109.09090909090908,15)" font-family="sans-serif" font-size="10px" fill="#000" opacity="1">100</text><text text-anchor="middle" transform="translate(145.45454545454547,15)" font-family="sans-serif" font-size="10px" fill="#000" opacity="1">150</text><text text-anchor="middle" transform="translate(181.8181818181818,15)" font-family="sans-serif" font-size="10px" fill="#000" opacity="1">200</text><text text-anchor="middle" transform="translate(218.18181818181816,15)" font-family="sans-serif" font-size="10px" fill="#000" opacity="1">250</text><text text-anchor="middle" transform="translate(254.54545454545453,15)" font-family="sans-serif" font-size="10px" fill="#000" opacity="1">300</text><text text-anchor="middle" transform="translate(290.90909090909093,15)" font-family="sans-serif" font-size="10px" fill="#000" opacity="1">350</text><text text-anchor="middle" transform="translate(327.2727272727273,15)" font-family="sans-serif" font-size="10px" fill="#000" opacity="1">400</text><text text-anchor="middle" transform="translate(363.6363636363636,15)" font-family="sans-serif" font-size="10px" fill="#000" opacity="1">450</text><text text-anchor="end" transform="translate(400,15)" font-family="sans-serif" font-size="10px" fill="#000" opacity="1">500</text></g><g class="mark-rule role-axis-domain" pointer-events="none"><line transform="translate(0,0)" x2="400" y2="0" stroke="#888" stroke-width="1" opacity="1"/></g><g class="mark-text role-axis-title" pointer-events="none"><text text-anchor="middle" transform="translate(200,30)" font-family="sans-serif" font-size="11px" font-weight="bold" fill="#000" opacity="1">predicted</text></g></g><path class="foreground" aria-hidden="true" d="" pointer-events="none" display="none"/></g></g><g class="mark-group role-axis" role="graphics-symbol" aria-roledescription="axis" aria-label="Y-axis titled 'residuals' for a linear scale with values from −60 to 60"><g transform="translate(0.5,0.5)"><path class="background" aria-hidden="true" d="M0,0h0v0h0Z" pointer-events="none"/><g><g class="mark-rule role-axis-tick" pointer-events="none"><line transform="translate(0,400)" x2="-5" y2="0" stroke="#888" stroke-width="1" opacity="1"/><line transform="translate(0,367)" x2="-5" y2="0" stroke="#888" stroke-width="1" opacity="1"/><line transform="translate(0,333)" x2="-5" y2="0" stroke="#888" stroke-width="1" opacity="1"/><line transform="translate(0,300)" x2="-5" y2="0" stroke="#888" stroke-width="1" opacity="1"/><line transform="translate(0,267)" x2="-5" y2="0" stroke="#888" stroke-width="1" opacity="1"/><line transform="translate(0,233)" x2="-5" y2="0" stroke="#888" stroke-width="1" opacity="1"/><line transform="translate(0,200)" x2="-5" y2="0" stroke="#888" stroke-width="1" opacity="1"/><line transform="translate(0,167)" x2="-5" y2="0" stroke="#888" stroke-width="1" opacity="1"/><line transform="translate(0,133)" x2="-5" y2="0" stroke="#888" stroke-width="1" opacity="1"/><line transform="translate(0,100)" x2="-5" y2="0" stroke="#888" stroke-width="1" opacity="1"/><line transform="translate(0,67)" x2="-5" y2="0" stroke="#888" stroke-width="1" opacity="1"/><line transform="translate(0,33)" x2="-5" y2="0" stroke="#888" stroke-width="1" opacity="1"/><line transform="translate(0,0)" x2="-5" y2="0" stroke="#888" stroke-width="1" opacity="1"/></g><g class="mark-text role-axis-label" pointer-events="none"><text text-anchor="end" transform="translate(-7,403)" font-family="sans-serif" font-size="10px" fill="#000" opacity="1">−60</text><text text-anchor="end" transform="translate(-7,369.66666666666663)" font-family="sans-serif" font-size="10px" fill="#000" opacity="1">−50</text><text text-anchor="end" transform="translate(-7,336.33333333333337)" font-family="sans-serif" font-size="10px" fill="#000" opacity="1">−40</text><text text-anchor="end" transform="translate(-7,303)" font-family="sans-serif" font-size="10px" fill="#000" opacity="1">−30</text><text text-anchor="end" transform="translate(-7,269.6666666666667)" font-family="sans-serif" font-size="10px" fill="#000" opacity="1">−20</text><text text-anchor="end" transform="translate(-7,236.33333333333331)" font-family="sans-serif" font-size="10px" fill="#000" opacity="1">−10</text><text text-anchor="end" transform="translate(-7,203)" font-family="sans-serif" font-size="10px" fill="#000" opacity="1">0</text><text text-anchor="end" transform="translate(-7,169.66666666666666)" font-family="sans-serif" font-size="10px" fill="#000" opacity="1">10</text><text text-anchor="end" transform="translate(-7,136.33333333333334)" font-family="sans-serif" font-size="10px" fill="#000" opacity="1">20</text><text text-anchor="end" transform="translate(-7,103)" font-family="sans-serif" font-size="10px" fill="#000" opacity="1">30</text><text text-anchor="end" transform="translate(-7,69.66666666666666)" font-family="sans-serif" font-size="10px" fill="#000" opacity="1">40</text><text text-anchor="end" transform="translate(-7,36.33333333333335)" font-family="sans-serif" font-size="10px" fill="#000" opacity="1">50</text><text text-anchor="end" transform="translate(-7,3)" font-family="sans-serif" font-size="10px" fill="#000" opacity="1">60</text></g><g class="mark-rule role-axis-domain" pointer-events="none"><line transform="translate(0,400)" x2="0" y2="-400" stroke="#888" stroke-width="1" opacity="1"/></g><g class="mark-text role-axis-title" pointer-events="none"><text text-anchor="middle" transform="translate(-29,200) rotate(-90) translate(0,-2)" font-family="sans-serif" font-size="11px" font-weight="bold" fill="#000" opacity="1">residuals</text></g></g><path class="foreground" aria-hidden="true" d="" pointer-events="none" display="none"/></g></g><g class="mark-symbol role-mark layer_0_marks" role="graphics-object" aria-roledescription="symbol mark container"><path aria-label="predicted: 33.991305521; residuals: −50.6552047173" role="graphics-symbol" aria-roledescription="point" transform="translate(61.08458583346291,368.8506823908963)" d="M2.7386127875258306,0A2.7386127875258306,2.7386127875258306,0,1,1,-2.7386127875258306,0A2.7386127875258306,2.7386127875258306,0,1,1,2.7386127875258306,0" stroke="#4c78a8" stroke-width="2" opacity="0.7"/><path aria-label="predicted: 29.5646508069; residuals: −47.0028254524" role="graphics-symbol" aria-roledescription="point" transform="translate(57.865200586801556,356.6760848412481)" d="M2.7386127875258306,0A2.7386127875258306,2.7386127875258306,0,1,1,-2.7386127875258306,0A2.7386127875258306,2.7386127875258306,0,1,1,2.7386127875258306,0" stroke="#4c78a8" stroke-width="2" opacity="0.7"/><path aria-label="predicted: 25.3178108221; residuals: −38.5917864997" role="graphics-symbol" aria-roledescription="point" transform="translate(54.776589688814866,328.6392883323441)" d="M2.7386127875258306,0A2.7386127875258306,2.7386127875258306,0,1,1,-2.7386127875258306,0A2.7386127875258306,2.7386127875258306,0,1,1,2.7386127875258306,0" stroke="#4c78a8" stroke-width="2" opacity="0.7"/><path aria-label="predicted: 21.2507855668; residuals: −34.8600916657" role="graphics-symbol" aria-roledescription="point" transform="translate(51.818753139502824,316.20030555239475)" d="M2.7386127875258306,0A2.7386127875258306,2.7386127875258306,0,1,1,-2.7386127875258306,0A2.7386127875258306,2.7386127875258306,0,1,1,2.7386127875258306,0" stroke="#4c78a8" stroke-width="2" opacity="0.7"/><path aria-label="predicted: 17.3635750409; residuals: −23.3258265439" role="graphics-symbol" aria-roledescription="point" transform="translate(48.99169093886545,277.7527551463507)" d="M2.7386127875258306,0A2.7386127875258306,2.7386127875258306,0,1,1,-2.7386127875258306,0A2.7386127875258306,2.7386127875258306,0,1,1,2.7386127875258306,0" stroke="#4c78a8" stroke-width="2" opacity="0.7"/><path aria-label="predicted: 13.6561792445; residuals: −16.4458798407" role="graphics-symbol" aria-roledescription="point" transform="translate(46.295403086902695,254.81959946891334)" d="M2.7386127875258306,0A2.7386127875258306,2.7386127875258306,0,1,1,-2.7386127875258306,0A2.7386127875258306,2.7386127875258306,0,1,1,2.7386127875258306,0" stroke="#4c78a8" stroke-width="2" opacity="0.7"/><path aria-label="predicted: 10.1285981775; residuals: −18.1718941476" role="graphics-symbol" aria-roledescription="point" transform="translate(43.729889583614614,260.5729804918742)" d="M2.7386127875258306,0A2.7386127875258306,2.7386127875258306,0,1,1,-2.7386127875258306,0A2.7386127875258306,2.7386127875258306,0,1,1,2.7386127875258306,0" stroke="#4c78a8" stroke-width="2" opacity="0.7"/><path aria-label="predicted: 6.78083183988; residuals: −17.525688575" role="graphics-symbol" aria-roledescription="point" transform="translate(41.29515042900118,258.418961916825)" d="M2.7386127875258306,0A2.7386127875258306,2.7386127875258306,0,1,1,-2.7386127875258306,0A2.7386127875258306,2.7386127875258306,0,1,1,2.7386127875258306,0" stroke="#4c78a8" stroke-width="2" opacity="0.7"/><path aria-label="predicted: 3.61288023171; residuals: −13.0289946508" role="graphics-symbol" aria-roledescription="point" transform="translate(38.9911856230624,243.4299821693437)" d="M2.7386127875258306,0A2.7386127875258306,2.7386127875258306,0,1,1,-2.7386127875258306,0A2.7386127875258306,2.7386127875258306,0,1,1,2.7386127875258306,0" stroke="#4c78a8" stroke-width="2" opacity="0.7"/><path aria-label="predicted: 0.624743352973; residuals: −8.11106903471" role="graphics-symbol" aria-roledescription="point" transform="translate(36.81799516579827,227.03689678236776)" d="M2.7386127875258306,0A2.7386127875258306,2.7386127875258306,0,1,1,-2.7386127875258306,0A2.7386127875258306,2.7386127875258306,0,1,1,2.7386127875258306,0" stroke="#4c78a8" stroke-width="2" opacity="0.7"/><path aria-label="predicted: −2.18357879634; residuals: 4.05975285845" role="graphics-symbol" aria-roledescription="point" transform="translate(34.77557905720879,186.46749047184184)" d="M2.7386127875258306,0A2.7386127875258306,2.7386127875258306,0,1,1,-2.7386127875258306,0A2.7386127875258306,2.7386127875258306,0,1,1,2.7386127875258306,0" stroke="#4c78a8" stroke-width="2" opacity="0.7"/><path aria-label="predicted: −4.81208621622; residuals: 2.92924905333" role="graphics-symbol" aria-roledescription="point" transform="translate(32.86393729729397,190.2358364888905)" d="M2.7386127875258306,0A2.7386127875258306,2.7386127875258306,0,1,1,-2.7386127875258306,0A2.7386127875258306,2.7386127875258306,0,1,1,2.7386127875258306,0" stroke="#4c78a8" stroke-width="2" opacity="0.7"/><path aria-label="predicted: −7.26077890668; residuals: 3.38203954348" role="graphics-symbol" aria-roledescription="point" transform="translate(31.083069886053792,188.7265348550518)" d="M2.7386127875258306,0A2.7386127875258306,2.7386127875258306,0,1,1,-2.7386127875258306,0A2.7386127875258306,2.7386127875258306,0,1,1,2.7386127875258306,0" stroke="#4c78a8" stroke-width="2" opacity="0.7"/><path aria-label="predicted: −9.5296568677; residuals: −2.02563662506" role="graphics-symbol" aria-roledescription="point" transform="translate(29.43297682348828,206.75212208354122)" d="M2.7386127875258306,0A2.7386127875258306,2.7386127875258306,0,1,1,-2.7386127875258306,0A2.7386127875258306,2.7386127875258306,0,1,1,2.7386127875258306,0" stroke="#4c78a8" stroke-width="2" opacity="0.7"/><path aria-label="predicted: −11.6187200993; residuals: 7.89874146441" role="graphics-symbol" aria-roledescription="point" transform="translate(27.9136581095974,173.67086178529115)" d="M2.7386127875258306,0A2.7386127875258306,2.7386127875258306,0,1,1,-2.7386127875258306,0A2.7386127875258306,2.7386127875258306,0,1,1,2.7386127875258306,0" stroke="#4c78a8" stroke-width="2" opacity="0.7"/><path aria-label="predicted: −13.5279686015; residuals: 10.9137107729" role="graphics-symbol" aria-roledescription="point" transform="translate(26.52511374438119,163.62096409049113)" d="M2.7386127875258306,0A2.7386127875258306,2.7386127875258306,0,1,1,-2.7386127875258306,0A2.7386127875258306,2.7386127875258306,0,1,1,2.7386127875258306,0" stroke="#4c78a8" stroke-width="2" opacity="0.7"/><path aria-label="predicted: −15.2574023742; residuals: 16.5614958781" role="graphics-symbol" aria-roledescription="point" transform="translate(25.267343727839624,144.79501373971812)" d="M2.7386127875258306,0A2.7386127875258306,2.7386127875258306,0,1,1,-2.7386127875258306,0A2.7386127875258306,2.7386127875258306,0,1,1,2.7386127875258306,0" stroke="#4c78a8" stroke-width="2" opacity="0.7"/><path aria-label="predicted: −16.8070214175; residuals: 11.881623526" role="graphics-symbol" aria-roledescription="point" transform="translate(24.14034805997271,160.39458824656455)" d="M2.7386127875258306,0A2.7386127875258306,2.7386127875258306,0,1,1,-2.7386127875258306,0A2.7386127875258306,2.7386127875258306,0,1,1,2.7386127875258306,0" stroke="#4c78a8" stroke-width="2" opacity="0.7"/><path aria-label="predicted: −18.1768257314; residuals: 19.0472766749" role="graphics-symbol" aria-roledescription="point" transform="translate(23.14412674078045,136.50907775043927)" d="M2.7386127875258306,0A2.7386127875258306,2.7386127875258306,0,1,1,-2.7386127875258306,0A2.7386127875258306,2.7386127875258306,0,1,1,2.7386127875258306,0" stroke="#4c78a8" stroke-width="2" opacity="0.7"/><path aria-label="predicted: −19.3668153159; residuals: 18.084947897" role="graphics-symbol" aria-roledescription="point" transform="translate(22.27867977026284,139.7168403433696)" d="M2.7386127875258306,0A2.7386127875258306,2.7386127875258306,0,1,1,-2.7386127875258306,0A2.7386127875258306,2.7386127875258306,0,1,1,2.7386127875258306,0" stroke="#4c78a8" stroke-width="2" opacity="0.7"/><path aria-label="predicted: −20.3769901709; residuals: 23.2156390556" role="graphics-symbol" aria-roledescription="point" transform="translate(21.544007148419883,122.6145364814287)" d="M2.7386127875258306,0A2.7386127875258306,2.7386127875258306,0,1,1,-2.7386127875258306,0A2.7386127875258306,2.7386127875258306,0,1,1,2.7386127875258306,0" stroke="#4c78a8" stroke-width="2" opacity="0.7"/><path aria-label="predicted: −21.2073502965; residuals: 22.1745103638" role="graphics-symbol" aria-roledescription="point" transform="translate(20.94010887525158,126.08496545405296)" d="M2.7386127875258306,0A2.7386127875258306,2.7386127875258306,0,1,1,-2.7386127875258306,0A2.7386127875258306,2.7386127875258306,0,1,1,2.7386127875258306,0" stroke="#4c78a8" stroke-width="2" opacity="0.7"/><path aria-label="predicted: −21.8578956927; residuals: 22.1305745746" role="graphics-symbol" aria-roledescription="point" transform="translate(20.466984950757926,126.23141808471519)" d="M2.7386127875258306,0A2.7386127875258306,2.7386127875258306,0,1,1,-2.7386127875258306,0A2.7386127875258306,2.7386127875258306,0,1,1,2.7386127875258306,0" stroke="#4c78a8" stroke-width="2" opacity="0.7"/><path aria-label="predicted: −22.3286263595; residuals: 21.9524290314" role="graphics-symbol" aria-roledescription="point" transform="translate(20.124635374938926,126.82523656186117)" d="M2.7386127875258306,0A2.7386127875258306,2.7386127875258306,0,1,1,-2.7386127875258306,0A2.7386127875258306,2.7386127875258306,0,1,1,2.7386127875258306,0" stroke="#4c78a8" stroke-width="2" opacity="0.7"/><path aria-label="predicted: −22.6195422968; residuals: 22.6266719704" role="graphics-symbol" aria-roledescription="point" transform="translate(19.913060147794578,124.57776009870503)" d="M2.7386127875258306,0A2.7386127875258306,2.7386127875258306,0,1,1,-2.7386127875258306,0A2.7386127875258306,2.7386127875258306,0,1,1,2.7386127875258306,0" stroke="#4c78a8" stroke-width="2" opacity="0.7"/><path aria-label="predicted: −22.7306435047; residuals: 21.3501978309" role="graphics-symbol" aria-roledescription="point" transform="translate(19.83225926932488,128.83267389716525)" d="M2.7386127875258306,0A2.7386127875258306,2.7386127875258306,0,1,1,-2.7386127875258306,0A2.7386127875258306,2.7386127875258306,0,1,1,2.7386127875258306,0" stroke="#4c78a8" stroke-width="2" opacity="0.7"/><path aria-label="predicted: −22.6619299831; residuals: 26.1205092798" role="graphics-symbol" aria-roledescription="point" transform="translate(19.882232739529837,112.931635734075)" d="M2.7386127875258306,0A2.7386127875258306,2.7386127875258306,0,1,1,-2.7386127875258306,0A2.7386127875258306,2.7386127875258306,0,1,1,2.7386127875258306,0" stroke="#4c78a8" stroke-width="2" opacity="0.7"/><path aria-label="predicted: −22.4134017322; residuals: 22.946691726" role="graphics-symbol" aria-roledescription="point" transform="translate(20.062980558409446,123.51102758005435)" d="M2.7386127875258306,0A2.7386127875258306,2.7386127875258306,0,1,1,-2.7386127875258306,0A2.7386127875258306,2.7386127875258306,0,1,1,2.7386127875258306,0" stroke="#4c78a8" stroke-width="2" opacity="0.7"/><path aria-label="predicted: −21.9850587518; residuals: 28.3521873478" role="graphics-symbol" aria-roledescription="point" transform="translate(20.374502725963705,105.49270884078501)" d="M2.7386127875258306,0A2.7386127875258306,2.7386127875258306,0,1,1,-2.7386127875258306,0A2.7386127875258306,2.7386127875258306,0,1,1,2.7386127875258306,0" stroke="#4c78a8" stroke-width="2" opacity="0.7"/><path aria-label="predicted: −21.376901042; residuals: 22.373335901" role="graphics-symbol" aria-roledescription="point" transform="translate(20.81679924219262,125.42221366338096)" d="M2.7386127875258306,0A2.7386127875258306,2.7386127875258306,0,1,1,-2.7386127875258306,0A2.7386127875258306,2.7386127875258306,0,1,1,2.7386127875258306,0" stroke="#4c78a8" stroke-width="2" opacity="0.7"/><path aria-label="predicted: −20.5889286027; residuals: 24.4789208531" role="graphics-symbol" aria-roledescription="point" transform="translate(21.389870107096183,118.40359715628313)" d="M2.7386127875258306,0A2.7386127875258306,2.7386127875258306,0,1,1,-2.7386127875258306,0A2.7386127875258306,2.7386127875258306,0,1,1,2.7386127875258306,0" stroke="#4c78a8" stroke-width="2" opacity="0.7"/><path aria-label="predicted: −19.6211414341; residuals: 24.2299206982" role="graphics-symbol" aria-roledescription="point" transform="translate(22.0937153206744,119.23359767279047)" d="M2.7386127875258306,0A2.7386127875258306,2.7386127875258306,0,1,1,-2.7386127875258306,0A2.7386127875258306,2.7386127875258306,0,1,1,2.7386127875258306,0" stroke="#4c78a8" stroke-width="2" opacity="0.7"/><path aria-label="predicted: −18.473539536; residuals: 24.3445436264" role="graphics-symbol" aria-roledescription="point" transform="translate(22.928334882927263,118.85152124523918)" d="M2.7386127875258306,0A2.7386127875258306,2.7386127875258306,0,1,1,-2.7386127875258306,0A2.7386127875258306,2.7386127875258306,0,1,1,2.7386127875258306,0" stroke="#4c78a8" stroke-width="2" opacity="0.7"/><path aria-label="predicted: −17.1461229084; residuals: 24.7818175061" role="graphics-symbol" aria-roledescription="point" transform="translate(23.893728793854784,117.39394164620252)" d="M2.7386127875258306,0A2.7386127875258306,2.7386127875258306,0,1,1,-2.7386127875258306,0A2.7386127875258306,2.7386127875258306,0,1,1,2.7386127875258306,0" stroke="#4c78a8" stroke-width="2" opacity="0.7"/><path aria-label="predicted: −15.6388915515; residuals: 15.0295937605" role="graphics-symbol" aria-roledescription="point" transform="translate(24.989897053456957,149.90135413179746)" d="M2.7386127875258306,0A2.7386127875258306,2.7386127875258306,0,1,1,-2.7386127875258306,0A2.7386127875258306,2.7386127875258306,0,1,1,2.7386127875258306,0" stroke="#4c78a8" stroke-width="2" opacity="0.7"/><path aria-label="predicted: −13.9518454651; residuals: 17.4920111197" role="graphics-symbol" aria-roledescription="point" transform="translate(26.216839661733783,141.69329626752037)" d="M2.7386127875258306,0A2.7386127875258306,2.7386127875258306,0,1,1,-2.7386127875258306,0A2.7386127875258306,2.7386127875258306,0,1,1,2.7386127875258306,0" stroke="#4c78a8" stroke-width="2" opacity="0.7"/><path aria-label="predicted: −12.0849846493; residuals: 14.9845512467" role="graphics-symbol" aria-roledescription="point" transform="translate(27.574556618685264,150.05149584449805)" d="M2.7386127875258306,0A2.7386127875258306,2.7386127875258306,0,1,1,-2.7386127875258306,0A2.7386127875258306,2.7386127875258306,0,1,1,2.7386127875258306,0" stroke="#4c78a8" stroke-width="2" opacity="0.7"/><path aria-label="predicted: −10.0383091041; residuals: 14.8166313058" role="graphics-symbol" aria-roledescription="point" transform="translate(29.063047924311388,150.61122898062814)" d="M2.7386127875258306,0A2.7386127875258306,2.7386127875258306,0,1,1,-2.7386127875258306,0A2.7386127875258306,2.7386127875258306,0,1,1,2.7386127875258306,0" stroke="#4c78a8" stroke-width="2" opacity="0.7"/><path aria-label="predicted: −7.81181882941; residuals: 16.7051808168" role="graphics-symbol" aria-roledescription="point" transform="translate(30.68231357861217,144.3160639441259)" d="M2.7386127875258306,0A2.7386127875258306,2.7386127875258306,0,1,1,-2.7386127875258306,0A2.7386127875258306,2.7386127875258306,0,1,1,2.7386127875258306,0" stroke="#4c78a8" stroke-width="2" opacity="0.7"/><path aria-label="predicted: −5.40551382532; residuals: 11.8966428364" role="graphics-symbol" aria-roledescription="point" transform="translate(32.4323535815876,160.34452387874668)" d="M2.7386127875258306,0A2.7386127875258306,2.7386127875258306,0,1,1,-2.7386127875258306,0A2.7386127875258306,2.7386127875258306,0,1,1,2.7386127875258306,0" stroke="#4c78a8" stroke-width="2" opacity="0.7"/><path aria-label="predicted: −2.8193940918; residuals: 16.0596597234" role="graphics-symbol" aria-roledescription="point" transform="translate(34.313167933237686,146.46780092200333)" d="M2.7386127875258306,0A2.7386127875258306,2.7386127875258306,0,1,1,-2.7386127875258306,0A2.7386127875258306,2.7386127875258306,0,1,1,2.7386127875258306,0" stroke="#4c78a8" stroke-width="2" opacity="0.7"/><path aria-label="predicted: −0.0534596288517; residuals: 15.5488090395" role="graphics-symbol" aria-roledescription="point" transform="translate(36.32475663356243,148.17063653483967)" d="M2.7386127875258306,0A2.7386127875258306,2.7386127875258306,0,1,1,-2.7386127875258306,0A2.7386127875258306,2.7386127875258306,0,1,1,2.7386127875258306,0" stroke="#4c78a8" stroke-width="2" opacity="0.7"/><path aria-label="predicted: 2.89228956352; residuals: 6.56935481763" role="graphics-symbol" aria-roledescription="point" transform="translate(38.467119682561815,178.10215060788462)" d="M2.7386127875258306,0A2.7386127875258306,2.7386127875258306,0,1,1,-2.7386127875258306,0A2.7386127875258306,2.7386127875258306,0,1,1,2.7386127875258306,0" stroke="#4c78a8" stroke-width="2" opacity="0.7"/><path aria-label="predicted: 6.01785348532; residuals: 9.68599759614" role="graphics-symbol" aria-roledescription="point" transform="translate(40.74025708023585,167.7133413461875)" d="M2.7386127875258306,0A2.7386127875258306,2.7386127875258306,0,1,1,-2.7386127875258306,0A2.7386127875258306,2.7386127875258306,0,1,1,2.7386127875258306,0" stroke="#4c78a8" stroke-width="2" opacity="0.7"/><path aria-label="predicted: 9.32323213655; residuals: 7.84275527775" role="graphics-symbol" aria-roledescription="point" transform="translate(43.14416882658455,173.8574824074874)" d="M2.7386127875258306,0A2.7386127875258306,2.7386127875258306,0,1,1,-2.7386127875258306,0A2.7386127875258306,2.7386127875258306,0,1,1,2.7386127875258306,0" stroke="#4c78a8" stroke-width="2" opacity="0.7"/><path aria-label="predicted: 12.8084255172; residuals: 11.1819253816" role="graphics-symbol" aria-roledescription="point" transform="translate(45.67885492160789,162.72691539452796)" d="M2.7386127875258306,0A2.7386127875258306,2.7386127875258306,0,1,1,-2.7386127875258306,0A2.7386127875258306,2.7386127875258306,0,1,1,2.7386127875258306,0" stroke="#4c78a8" stroke-width="2" opacity="0.7"/><path aria-label="predicted: 16.4734336273; residuals: 7.89268647845" role="graphics-symbol" aria-roledescription="point" transform="translate(48.344315365305896,173.6910450718449)" d="M2.7386127875258306,0A2.7386127875258306,2.7386127875258306,0,1,1,-2.7386127875258306,0A2.7386127875258306,2.7386127875258306,0,1,1,2.7386127875258306,0" stroke="#4c78a8" stroke-width="2" opacity="0.7"/><path aria-label="predicted: 20.3182564668; residuals: 2.65036388652" role="graphics-symbol" aria-roledescription="point" transform="translate(51.140550157678554,191.1654537115918)" d="M2.7386127875258306,0A2.7386127875258306,2.7386127875258306,0,1,1,-2.7386127875258306,0A2.7386127875258306,2.7386127875258306,0,1,1,2.7386127875258306,0" stroke="#4c78a8" stroke-width="2" opacity="0.7"/><path aria-label="predicted: 24.3428940357; residuals: 5.47081640269" role="graphics-symbol" aria-roledescription="point" transform="translate(54.06755929872584,181.76394532435012)" d="M2.7386127875258306,0A2.7386127875258306,2.7386127875258306,0,1,1,-2.7386127875258306,0A2.7386127875258306,2.7386127875258306,0,1,1,2.7386127875258306,0" stroke="#4c78a8" stroke-width="2" opacity="0.7"/><path aria-label="predicted: 28.5473463341; residuals: 1.76566971608" role="graphics-symbol" aria-roledescription="point" transform="translate(57.12534278844781,194.11443427974388)" d="M2.7386127875258306,0A2.7386127875258306,2.7386127875258306,0,1,1,-2.7386127875258306,0A2.7386127875258306,2.7386127875258306,0,1,1,2.7386127875258306,0" stroke="#4c78a8" stroke-width="2" opacity="0.7"/><path aria-label="predicted: 32.9316133619; residuals: 1.05755429155" role="graphics-symbol" aria-roledescription="point" transform="translate(60.313900626844394,196.47481902816492)" d="M2.7386127875258306,0A2.7386127875258306,2.7386127875258306,0,1,1,-2.7386127875258306,0A2.7386127875258306,2.7386127875258306,0,1,1,2.7386127875258306,0" stroke="#4c78a8" stroke-width="2" opacity="0.7"/><path aria-label="predicted: 37.4956951191; residuals: −4.31005385582" role="graphics-symbol" aria-roledescription="point" transform="translate(63.63323281391566,214.36684618607023)" d="M2.7386127875258306,0A2.7386127875258306,2.7386127875258306,0,1,1,-2.7386127875258306,0A2.7386127875258306,2.7386127875258306,0,1,1,2.7386127875258306,0" stroke="#4c78a8" stroke-width="2" opacity="0.7"/><path aria-label="predicted: 42.2395916058; residuals: −3.11450406489" role="graphics-symbol" aria-roledescription="point" transform="translate(67.08333934966159,210.38168021629718)" d="M2.7386127875258306,0A2.7386127875258306,2.7386127875258306,0,1,1,-2.7386127875258306,0A2.7386127875258306,2.7386127875258306,0,1,1,2.7386127875258306,0" stroke="#4c78a8" stroke-width="2" opacity="0.7"/><path aria-label="predicted: 47.1633028219; residuals: −7.8512631579" role="graphics-symbol" aria-roledescription="point" transform="translate(70.66422023408212,226.17087719298434)" d="M2.7386127875258306,0A2.7386127875258306,2.7386127875258306,0,1,1,-2.7386127875258306,0A2.7386127875258306,2.7386127875258306,0,1,1,2.7386127875258306,0" stroke="#4c78a8" stroke-width="2" opacity="0.7"/><path aria-label="predicted: 52.2668287674; residuals: −8.71372068851" role="graphics-symbol" aria-roledescription="point" transform="translate(74.37587546717734,229.04573562836242)" d="M2.7386127875258306,0A2.7386127875258306,2.7386127875258306,0,1,1,-2.7386127875258306,0A2.7386127875258306,2.7386127875258306,0,1,1,2.7386127875258306,0" stroke="#4c78a8" stroke-width="2" opacity="0.7"/><path aria-label="predicted: 57.5501694423; residuals: −10.2374144976" role="graphics-symbol" aria-roledescription="point" transform="translate(78.2183050489472,234.12471499197346)" d="M2.7386127875258306,0A2.7386127875258306,2.7386127875258306,0,1,1,-2.7386127875258306,0A2.7386127875258306,2.7386127875258306,0,1,1,2.7386127875258306,0" stroke="#4c78a8" stroke-width="2" opacity="0.7"/><path aria-label="predicted: 63.0133248467; residuals: −7.81155744505" role="graphics-symbol" aria-roledescription="point" transform="translate(82.19150897939174,226.03852481681974)" d="M2.7386127875258306,0A2.7386127875258306,2.7386127875258306,0,1,1,-2.7386127875258306,0A2.7386127875258306,2.7386127875258306,0,1,1,2.7386127875258306,0" stroke="#4c78a8" stroke-width="2" opacity="0.7"/><path aria-label="predicted: 68.6562949805; residuals: −12.9771498099" role="graphics-symbol" aria-roledescription="point" transform="translate(86.29548725851089,243.25716603292577)" d="M2.7386127875258306,0A2.7386127875258306,2.7386127875258306,0,1,1,-2.7386127875258306,0A2.7386127875258306,2.7386127875258306,0,1,1,2.7386127875258306,0" stroke="#4c78a8" stroke-width="2" opacity="0.7"/><path aria-label="predicted: 74.4790798437; residuals: −14.9968037719" role="graphics-symbol" aria-roledescription="point" transform="translate(90.53023988630471,249.98934590623367)" d="M2.7386127875258306,0A2.7386127875258306,2.7386127875258306,0,1,1,-2.7386127875258306,0A2.7386127875258306,2.7386127875258306,0,1,1,2.7386127875258306,0" stroke="#4c78a8" stroke-width="2" opacity="0.7"/><path aria-label="predicted: 80.4816794363; residuals: −8.9020492905" role="graphics-symbol" aria-roledescription="point" transform="translate(94.89576686277319,229.67349763498365)" d="M2.7386127875258306,0A2.7386127875258306,2.7386127875258306,0,1,1,-2.7386127875258306,0A2.7386127875258306,2.7386127875258306,0,1,1,2.7386127875258306,0" stroke="#4c78a8" stroke-width="2" opacity="0.7"/><path aria-label="predicted: 86.6640937584; residuals: −15.4534139166" role="graphics-symbol" aria-roledescription="point" transform="translate(99.39206818791632,251.51137972215162)" d="M2.7386127875258306,0A2.7386127875258306,2.7386127875258306,0,1,1,-2.7386127875258306,0A2.7386127875258306,2.7386127875258306,0,1,1,2.7386127875258306,0" stroke="#4c78a8" stroke-width="2" opacity="0.7"/><path aria-label="predicted: 93.0263228099; residuals: −15.3948015021" role="graphics-symbol" aria-roledescription="point" transform="translate(104.0191438617341,251.31600500716377)" d="M2.7386127875258306,0A2.7386127875258306,2.7386127875258306,0,1,1,-2.7386127875258306,0A2.7386127875258306,2.7386127875258306,0,1,1,2.7386127875258306,0" stroke="#4c78a8" stroke-width="2" opacity="0.7"/><path aria-label="predicted: 99.5683665908; residuals: −16.7383081985" role="graphics-symbol" aria-roledescription="point" transform="translate(108.77699388422654,255.7943606615101)" d="M2.7386127875258306,0A2.7386127875258306,2.7386127875258306,0,1,1,-2.7386127875258306,0A2.7386127875258306,2.7386127875258306,0,1,1,2.7386127875258306,0" stroke="#4c78a8" stroke-width="2" opacity="0.7"/><path aria-label="predicted: 106.290225101; residuals: −18.9081451806" role="graphics-symbol" aria-roledescription="point" transform="translate(113.66561825539361,263.0271506019751)" d="M2.7386127875258306,0A2.7386127875258306,2.7386127875258306,0,1,1,-2.7386127875258306,0A2.7386127875258306,2.7386127875258306,0,1,1,2.7386127875258306,0" stroke="#4c78a8" stroke-width="2" opacity="0.7"/><path aria-label="predicted: 113.191898341; residuals: −20.0641675837" role="graphics-symbol" aria-roledescription="point" transform="translate(118.68501697523537,266.88055861248523)" d="M2.7386127875258306,0A2.7386127875258306,2.7386127875258306,0,1,1,-2.7386127875258306,0A2.7386127875258306,2.7386127875258306,0,1,1,2.7386127875258306,0" stroke="#4c78a8" stroke-width="2" opacity="0.7"/><path aria-label="predicted: 120.27338631; residuals: −20.9329030224" role="graphics-symbol" aria-roledescription="point" transform="translate(123.83519004375174,269.776343408042)" d="M2.7386127875258306,0A2.7386127875258306,2.7386127875258306,0,1,1,-2.7386127875258306,0A2.7386127875258306,2.7386127875258306,0,1,1,2.7386127875258306,0" stroke="#4c78a8" stroke-width="2" opacity="0.7"/><path aria-label="predicted: 127.534689009; residuals: −22.030776603" role="graphics-symbol" aria-roledescription="point" transform="translate(129.11613746094278,273.4359220100935)" d="M2.7386127875258306,0A2.7386127875258306,2.7386127875258306,0,1,1,-2.7386127875258306,0A2.7386127875258306,2.7386127875258306,0,1,1,2.7386127875258306,0" stroke="#4c78a8" stroke-width="2" opacity="0.7"/><path aria-label="predicted: 134.975806437; residuals: −19.6062855712" role="graphics-symbol" aria-roledescription="point" transform="translate(134.5278592268085,265.35428523716894)" d="M2.7386127875258306,0A2.7386127875258306,2.7386127875258306,0,1,1,-2.7386127875258306,0A2.7386127875258306,2.7386127875258306,0,1,1,2.7386127875258306,0" stroke="#4c78a8" stroke-width="2" opacity="0.7"/><path aria-label="predicted: 142.596738594; residuals: −21.1183540827" role="graphics-symbol" aria-roledescription="point" transform="translate(140.0703553413488,270.39451360911266)" d="M2.7386127875258306,0A2.7386127875258306,2.7386127875258306,0,1,1,-2.7386127875258306,0A2.7386127875258306,2.7386127875258306,0,1,1,2.7386127875258306,0" stroke="#4c78a8" stroke-width="2" opacity="0.7"/><path aria-label="predicted: 150.397485481; residuals: −16.1702749278" role="graphics-symbol" aria-roledescription="point" transform="translate(145.74362580456383,253.9009164259405)" d="M2.7386127875258306,0A2.7386127875258306,2.7386127875258306,0,1,1,-2.7386127875258306,0A2.7386127875258306,2.7386127875258306,0,1,1,2.7386127875258306,0" stroke="#4c78a8" stroke-width="2" opacity="0.7"/><path aria-label="predicted: 158.378047098; residuals: −27.5378407259" role="graphics-symbol" aria-roledescription="point" transform="translate(151.54767061645344,291.7928024198229)" d="M2.7386127875258306,0A2.7386127875258306,2.7386127875258306,0,1,1,-2.7386127875258306,0A2.7386127875258306,2.7386127875258306,0,1,1,2.7386127875258306,0" stroke="#4c78a8" stroke-width="2" opacity="0.7"/><path aria-label="predicted: 166.538423443; residuals: −26.662126126" role="graphics-symbol" aria-roledescription="point" transform="translate(157.48248977701775,288.8737537533737)" d="M2.7386127875258306,0A2.7386127875258306,2.7386127875258306,0,1,1,-2.7386127875258306,0A2.7386127875258306,2.7386127875258306,0,1,1,2.7386127875258306,0" stroke="#4c78a8" stroke-width="2" opacity="0.7"/><path aria-label="predicted: 174.878614519; residuals: −20.4060437055" role="graphics-symbol" aria-roledescription="point" transform="translate(163.5480832862567,268.0201456850428)" d="M2.7386127875258306,0A2.7386127875258306,2.7386127875258306,0,1,1,-2.7386127875258306,0A2.7386127875258306,2.7386127875258306,0,1,1,2.7386127875258306,0" stroke="#4c78a8" stroke-width="2" opacity="0.7"/><path aria-label="predicted: 183.398620323; residuals: −21.527156171" role="graphics-symbol" aria-roledescription="point" transform="translate(169.7444511441703,271.75718723682155)" d="M2.7386127875258306,0A2.7386127875258306,2.7386127875258306,0,1,1,-2.7386127875258306,0A2.7386127875258306,2.7386127875258306,0,1,1,2.7386127875258306,0" stroke="#4c78a8" stroke-width="2" opacity="0.7"/><path aria-label="predicted: 192.098440857; residuals: −25.5583077733" role="graphics-symbol" aria-roledescription="point" transform="translate(176.0715933507586,285.19435924445713)" d="M2.7386127875258306,0A2.7386127875258306,2.7386127875258306,0,1,1,-2.7386127875258306,0A2.7386127875258306,2.7386127875258306,0,1,1,2.7386127875258306,0" stroke="#4c78a8" stroke-width="2" opacity="0.7"/><path aria-label="predicted: 200.978076121; residuals: −15.6032430118" role="graphics-symbol" aria-roledescription="point" transform="translate(182.52950990602145,252.0108100393247)" d="M2.7386127875258306,0A2.7386127875258306,2.7386127875258306,0,1,1,-2.7386127875258306,0A2.7386127875258306,2.7386127875258306,0,1,1,2.7386127875258306,0" stroke="#4c78a8" stroke-width="2" opacity="0.7"/><path aria-label="predicted: 210.037526114; residuals: −21.0766134411" role="graphics-symbol" aria-roledescription="point" transform="translate(189.118200809959,270.25537813710014)" d="M2.7386127875258306,0A2.7386127875258306,2.7386127875258306,0,1,1,-2.7386127875258306,0A2.7386127875258306,2.7386127875258306,0,1,1,2.7386127875258306,0" stroke="#4c78a8" stroke-width="2" opacity="0.7"/><path aria-label="predicted: 219.276790836; residuals: −19.2206944381" role="graphics-symbol" aria-roledescription="point" transform="translate(195.83766606257126,264.06898146046575)" d="M2.7386127875258306,0A2.7386127875258306,2.7386127875258306,0,1,1,-2.7386127875258306,0A2.7386127875258306,2.7386127875258306,0,1,1,2.7386127875258306,0" stroke="#4c78a8" stroke-width="2" opacity="0.7"/><path aria-label="predicted: 228.695870288; residuals: −16.1956756048" role="graphics-symbol" aria-roledescription="point" transform="translate(202.68790566385815,253.9855853491985)" d="M2.7386127875258306,0A2.7386127875258306,2.7386127875258306,0,1,1,-2.7386127875258306,0A2.7386127875258306,2.7386127875258306,0,1,1,2.7386127875258306,0" stroke="#4c78a8" stroke-width="2" opacity="0.7"/><path aria-label="predicted: 238.294764469; residuals: −19.6532459928" role="graphics-symbol" aria-roledescription="point" transform="translate(209.66891961381964,265.51081997614244)" d="M2.7386127875258306,0A2.7386127875258306,2.7386127875258306,0,1,1,-2.7386127875258306,0A2.7386127875258306,2.7386127875258306,0,1,1,2.7386127875258306,0" stroke="#4c78a8" stroke-width="2" opacity="0.7"/><path aria-label="predicted: 248.07347338; residuals: −16.5456754865" role="graphics-symbol" aria-roledescription="point" transform="translate(216.78070791245582,255.1522516215856)" d="M2.7386127875258306,0A2.7386127875258306,2.7386127875258306,0,1,1,-2.7386127875258306,0A2.7386127875258306,2.7386127875258306,0,1,1,2.7386127875258306,0" stroke="#4c78a8" stroke-width="2" opacity="0.7"/><path aria-label="predicted: 258.03199702; residuals: −16.0572094187" role="graphics-symbol" aria-roledescription="point" transform="translate(224.0232705597666,253.52403139575318)" d="M2.7386127875258306,0A2.7386127875258306,2.7386127875258306,0,1,1,-2.7386127875258306,0A2.7386127875258306,2.7386127875258306,0,1,1,2.7386127875258306,0" stroke="#4c78a8" stroke-width="2" opacity="0.7"/><path aria-label="predicted: 268.170335389; residuals: −20.21819374" role="graphics-symbol" aria-roledescription="point" transform="translate(231.39660755575213,267.3939791332386)" d="M2.7386127875258306,0A2.7386127875258306,2.7386127875258306,0,1,1,-2.7386127875258306,0A2.7386127875258306,2.7386127875258306,0,1,1,2.7386127875258306,0" stroke="#4c78a8" stroke-width="2" opacity="0.7"/><path aria-label="predicted: 278.488488488; residuals: −14.1154487219" role="graphics-symbol" aria-roledescription="point" transform="translate(238.9007189004122,247.05149573974953)" d="M2.7386127875258306,0A2.7386127875258306,2.7386127875258306,0,1,1,-2.7386127875258306,0A2.7386127875258306,2.7386127875258306,0,1,1,2.7386127875258306,0" stroke="#4c78a8" stroke-width="2" opacity="0.7"/><path aria-label="predicted: 288.986456316; residuals: −15.3814215804" role="graphics-symbol" aria-roledescription="point" transform="translate(246.53560459374702,251.27140526792004)" d="M2.7386127875258306,0A2.7386127875258306,2.7386127875258306,0,1,1,-2.7386127875258306,0A2.7386127875258306,2.7386127875258306,0,1,1,2.7386127875258306,0" stroke="#4c78a8" stroke-width="2" opacity="0.7"/><path aria-label="predicted: 299.664238874; residuals: −14.5465311068" role="graphics-symbol" aria-roledescription="point" transform="translate(254.3012646357564,248.4884370225613)" d="M2.7386127875258306,0A2.7386127875258306,2.7386127875258306,0,1,1,-2.7386127875258306,0A2.7386127875258306,2.7386127875258306,0,1,1,2.7386127875258306,0" stroke="#4c78a8" stroke-width="2" opacity="0.7"/><path aria-label="predicted: 310.521836161; residuals: −4.3582576994" role="graphics-symbol" aria-roledescription="point" transform="translate(262.19769902644043,214.52752566466603)" d="M2.7386127875258306,0A2.7386127875258306,2.7386127875258306,0,1,1,-2.7386127875258306,0A2.7386127875258306,2.7386127875258306,0,1,1,2.7386127875258306,0" stroke="#4c78a8" stroke-width="2" opacity="0.7"/><path aria-label="predicted: 321.559248178; residuals: −5.39303649782" role="graphics-symbol" aria-roledescription="point" transform="translate(270.22490776579923,217.97678832605715)" d="M2.7386127875258306,0A2.7386127875258306,2.7386127875258306,0,1,1,-2.7386127875258306,0A2.7386127875258306,2.7386127875258306,0,1,1,2.7386127875258306,0" stroke="#4c78a8" stroke-width="2" opacity="0.7"/><path aria-label="predicted: 332.776474924; residuals: −4.56522744919" role="graphics-symbol" aria-roledescription="point" transform="translate(278.3828908538326,215.21742483062633)" d="M2.7386127875258306,0A2.7386127875258306,2.7386127875258306,0,1,1,-2.7386127875258306,0A2.7386127875258306,2.7386127875258306,0,1,1,2.7386127875258306,0" stroke="#4c78a8" stroke-width="2" opacity="0.7"/><path aria-label="predicted: 344.173516399; residuals: −1.38145535934" role="graphics-symbol" aria-roledescription="point" transform="translate(286.6716482905407,204.60485119779133)" d="M2.7386127875258306,0A2.7386127875258306,2.7386127875258306,0,1,1,-2.7386127875258306,0A2.7386127875258306,2.7386127875258306,0,1,1,2.7386127875258306,0" stroke="#4c78a8" stroke-width="2" opacity="0.7"/><path aria-label="predicted: 355.750372604; residuals: 2.53802850414" role="graphics-symbol" aria-roledescription="point" transform="translate(295.0911800759233,191.53990498619163)" d="M2.7386127875258306,0A2.7386127875258306,2.7386127875258306,0,1,1,-2.7386127875258306,0A2.7386127875258306,2.7386127875258306,0,1,1,2.7386127875258306,0" stroke="#4c78a8" stroke-width="2" opacity="0.7"/><path aria-label="predicted: 367.507043539; residuals: 5.09043492928" role="graphics-symbol" aria-roledescription="point" transform="translate(303.64148620998066,183.03188356905991)" d="M2.7386127875258306,0A2.7386127875258306,2.7386127875258306,0,1,1,-2.7386127875258306,0A2.7386127875258306,2.7386127875258306,0,1,1,2.7386127875258306,0" stroke="#4c78a8" stroke-width="2" opacity="0.7"/><path aria-label="predicted: 379.443529202; residuals: 9.03582452186" role="graphics-symbol" aria-roledescription="point" transform="translate(312.32256669271266,169.88058492712125)" d="M2.7386127875258306,0A2.7386127875258306,2.7386127875258306,0,1,1,-2.7386127875258306,0A2.7386127875258306,2.7386127875258306,0,1,1,2.7386127875258306,0" stroke="#4c78a8" stroke-width="2" opacity="0.7"/><path aria-label="predicted: 391.559829596; residuals: 12.1888016706" role="graphics-symbol" aria-roledescription="point" transform="translate(321.13442152411926,159.3706610978493)" d="M2.7386127875258306,0A2.7386127875258306,2.7386127875258306,0,1,1,-2.7386127875258306,0A2.7386127875258306,2.7386127875258306,0,1,1,2.7386127875258306,0" stroke="#4c78a8" stroke-width="2" opacity="0.7"/><path aria-label="predicted: 403.855944718; residuals: 19.0573733097" role="graphics-symbol" aria-roledescription="point" transform="translate(330.0770507042006,136.47542230085187)" d="M2.7386127875258306,0A2.7386127875258306,2.7386127875258306,0,1,1,-2.7386127875258306,0A2.7386127875258306,2.7386127875258306,0,1,1,2.7386127875258306,0" stroke="#4c78a8" stroke-width="2" opacity="0.7"/><path aria-label="predicted: 416.33187457; residuals: 19.8378654848" role="graphics-symbol" aria-roledescription="point" transform="translate(339.1504542329566,133.87378171737888)" d="M2.7386127875258306,0A2.7386127875258306,2.7386127875258306,0,1,1,-2.7386127875258306,0A2.7386127875258306,2.7386127875258306,0,1,1,2.7386127875258306,0" stroke="#4c78a8" stroke-width="2" opacity="0.7"/><path aria-label="predicted: 428.987619152; residuals: 29.2929869419" role="graphics-symbol" aria-roledescription="point" transform="translate(348.3546321103871,102.3567101937171)" d="M2.7386127875258306,0A2.7386127875258306,2.7386127875258306,0,1,1,-2.7386127875258306,0A2.7386127875258306,2.7386127875258306,0,1,1,2.7386127875258306,0" stroke="#4c78a8" stroke-width="2" opacity="0.7"/><path aria-label="predicted: 441.823178463; residuals: 31.7588191867" role="graphics-symbol" aria-roledescription="point" transform="translate(357.6895843364925,94.13726937759064)" d="M2.7386127875258306,0A2.7386127875258306,2.7386127875258306,0,1,1,-2.7386127875258306,0A2.7386127875258306,2.7386127875258306,0,1,1,2.7386127875258306,0" stroke="#4c78a8" stroke-width="2" opacity="0.7"/><path aria-label="predicted: 454.838552503; residuals: 36.3559131507" role="graphics-symbol" aria-roledescription="point" transform="translate(367.1553109112723,78.81362283109846)" d="M2.7386127875258306,0A2.7386127875258306,2.7386127875258306,0,1,1,-2.7386127875258306,0A2.7386127875258306,2.7386127875258306,0,1,1,2.7386127875258306,0" stroke="#4c78a8" stroke-width="2" opacity="0.7"/><path aria-label="predicted: 468.033741273; residuals: 40.7744581084" role="graphics-symbol" aria-roledescription="point" transform="translate(376.7518118347269,64.08513963876032)" d="M2.7386127875258306,0A2.7386127875258306,2.7386127875258306,0,1,1,-2.7386127875258306,0A2.7386127875258306,2.7386127875258306,0,1,1,2.7386127875258306,0" stroke="#4c78a8" stroke-width="2" opacity="0.7"/><path aria-label="predicted: 481.408744772; residuals: 52.6627520352" role="graphics-symbol" aria-roledescription="point" transform="translate(386.47908710685607,24.457493215949945)" d="M2.7386127875258306,0A2.7386127875258306,2.7386127875258306,0,1,1,-2.7386127875258306,0A2.7386127875258306,2.7386127875258306,0,1,1,2.7386127875258306,0" stroke="#4c78a8" stroke-width="2" opacity="0.7"/></g><g class="mark-rule role-mark layer_1_marks" role="graphics-symbol" aria-roledescription="rule mark container"><line transform="translate(400,200)" x2="-400" y2="0" stroke="darkgrey"/><line transform="translate(400,200)" x2="-400" y2="0" stroke="darkgrey"/><line transform="translate(400,200)" x2="-400" y2="0" stroke="darkgrey"/><line transform="translate(400,200)" x2="-400" y2="0" stroke="darkgrey"/><line transform="translate(400,200)" x2="-400" y2="0" stroke="darkgrey"/><line transform="translate(400,200)" x2="-400" y2="0" stroke="darkgrey"/><line transform="translate(400,200)" x2="-400" y2="0" stroke="darkgrey"/><line transform="translate(400,200)" x2="-400" y2="0" stroke="darkgrey"/><line transform="translate(400,200)" x2="-400" y2="0" stroke="darkgrey"/><line transform="translate(400,200)" x2="-400" y2="0" stroke="darkgrey"/><line transform="translate(400,200)" x2="-400" y2="0" stroke="darkgrey"/><line transform="translate(400,200)" x2="-400" y2="0" stroke="darkgrey"/><line transform="translate(400,200)" x2="-400" y2="0" stroke="darkgrey"/><line transform="translate(400,200)" x2="-400" y2="0" stroke="darkgrey"/><line transform="translate(400,200)" x2="-400" y2="0" stroke="darkgrey"/><line transform="translate(400,200)" x2="-400" y2="0" stroke="darkgrey"/><line transform="translate(400,200)" x2="-400" y2="0" stroke="darkgrey"/><line transform="translate(400,200)" x2="-400" y2="0" stroke="darkgrey"/><line transform="translate(400,200)" x2="-400" y2="0" stroke="darkgrey"/><line transform="translate(400,200)" x2="-400" y2="0" stroke="darkgrey"/><line transform="translate(400,200)" x2="-400" y2="0" stroke="darkgrey"/><line transform="translate(400,200)" x2="-400" y2="0" stroke="darkgrey"/><line transform="translate(400,200)" x2="-400" y2="0" stroke="darkgrey"/><line transform="translate(400,200)" x2="-400" y2="0" stroke="darkgrey"/><line transform="translate(400,200)" x2="-400" y2="0" stroke="darkgrey"/><line transform="translate(400,200)" x2="-400" y2="0" stroke="darkgrey"/><line transform="translate(400,200)" x2="-400" y2="0" stroke="darkgrey"/><line transform="translate(400,200)" x2="-400" y2="0" stroke="darkgrey"/><line transform="translate(400,200)" x2="-400" y2="0" stroke="darkgrey"/><line transform="translate(400,200)" x2="-400" y2="0" stroke="darkgrey"/><line transform="translate(400,200)" x2="-400" y2="0" stroke="darkgrey"/><line transform="translate(400,200)" x2="-400" y2="0" stroke="darkgrey"/><line transform="translate(400,200)" x2="-400" y2="0" stroke="darkgrey"/><line transform="translate(400,200)" x2="-400" y2="0" stroke="darkgrey"/><line transform="translate(400,200)" x2="-400" y2="0" stroke="darkgrey"/><line transform="translate(400,200)" x2="-400" y2="0" stroke="darkgrey"/><line transform="translate(400,200)" x2="-400" y2="0" stroke="darkgrey"/><line transform="translate(400,200)" x2="-400" y2="0" stroke="darkgrey"/><line transform="translate(400,200)" x2="-400" y2="0" stroke="darkgrey"/><line transform="translate(400,200)" x2="-400" y2="0" stroke="darkgrey"/><line transform="translate(400,200)" x2="-400" y2="0" stroke="darkgrey"/><line transform="translate(400,200)" x2="-400" y2="0" stroke="darkgrey"/><line transform="translate(400,200)" x2="-400" y2="0" stroke="darkgrey"/><line transform="translate(400,200)" x2="-400" y2="0" stroke="darkgrey"/><line transform="translate(400,200)" x2="-400" y2="0" stroke="darkgrey"/><line transform="translate(400,200)" x2="-400" y2="0" stroke="darkgrey"/><line transform="translate(400,200)" x2="-400" y2="0" stroke="darkgrey"/><line transform="translate(400,200)" x2="-400" y2="0" stroke="darkgrey"/><line transform="translate(400,200)" x2="-400" y2="0" stroke="darkgrey"/><line transform="translate(400,200)" x2="-400" y2="0" stroke="darkgrey"/><line transform="translate(400,200)" x2="-400" y2="0" stroke="darkgrey"/><line transform="translate(400,200)" x2="-400" y2="0" stroke="darkgrey"/><line transform="translate(400,200)" x2="-400" y2="0" stroke="darkgrey"/><line transform="translate(400,200)" x2="-400" y2="0" stroke="darkgrey"/><line transform="translate(400,200)" x2="-400" y2="0" stroke="darkgrey"/><line transform="translate(400,200)" x2="-400" y2="0" stroke="darkgrey"/><line transform="translate(400,200)" x2="-400" y2="0" stroke="darkgrey"/><line transform="translate(400,200)" x2="-400" y2="0" stroke="darkgrey"/><line transform="translate(400,200)" x2="-400" y2="0" stroke="darkgrey"/><line transform="translate(400,200)" x2="-400" y2="0" stroke="darkgrey"/><line transform="translate(400,200)" x2="-400" y2="0" stroke="darkgrey"/><line transform="translate(400,200)" x2="-400" y2="0" stroke="darkgrey"/><line transform="translate(400,200)" x2="-400" y2="0" stroke="darkgrey"/><line transform="translate(400,200)" x2="-400" y2="0" stroke="darkgrey"/><line transform="translate(400,200)" x2="-400" y2="0" stroke="darkgrey"/><line transform="translate(400,200)" x2="-400" y2="0" stroke="darkgrey"/><line transform="translate(400,200)" x2="-400" y2="0" stroke="darkgrey"/><line transform="translate(400,200)" x2="-400" y2="0" stroke="darkgrey"/><line transform="translate(400,200)" x2="-400" y2="0" stroke="darkgrey"/><line transform="translate(400,200)" x2="-400" y2="0" stroke="darkgrey"/><line transform="translate(400,200)" x2="-400" y2="0" stroke="darkgrey"/><line transform="translate(400,200)" x2="-400" y2="0" stroke="darkgrey"/><line transform="translate(400,200)" x2="-400" y2="0" stroke="darkgrey"/><line transform="translate(400,200)" x2="-400" y2="0" stroke="darkgrey"/><line transform="translate(400,200)" x2="-400" y2="0" stroke="darkgrey"/><line transform="translate(400,200)" x2="-400" y2="0" stroke="darkgrey"/><line transform="translate(400,200)" x2="-400" y2="0" stroke="darkgrey"/><line transform="translate(400,200)" x2="-400" y2="0" stroke="darkgrey"/><line transform="translate(400,200)" x2="-400" y2="0" stroke="darkgrey"/><line transform="translate(400,200)" x2="-400" y2="0" stroke="darkgrey"/><line transform="translate(400,200)" x2="-400" y2="0" stroke="darkgrey"/><line transform="translate(400,200)" x2="-400" y2="0" stroke="darkgrey"/><line transform="translate(400,200)" x2="-400" y2="0" stroke="darkgrey"/><line transform="translate(400,200)" x2="-400" y2="0" stroke="darkgrey"/><line transform="translate(400,200)" x2="-400" y2="0" stroke="darkgrey"/><line transform="translate(400,200)" x2="-400" y2="0" stroke="darkgrey"/><line transform="translate(400,200)" x2="-400" y2="0" stroke="darkgrey"/><line transform="translate(400,200)" x2="-400" y2="0" stroke="darkgrey"/><line transform="translate(400,200)" x2="-400" y2="0" stroke="darkgrey"/><line transform="translate(400,200)" x2="-400" y2="0" stroke="darkgrey"/><line transform="translate(400,200)" x2="-400" y2="0" stroke="darkgrey"/><line transform="translate(400,200)" x2="-400" y2="0" stroke="darkgrey"/><line transform="translate(400,200)" x2="-400" y2="0" stroke="darkgrey"/><line transform="translate(400,200)" x2="-400" y2="0" stroke="darkgrey"/><line transform="translate(400,200)" x2="-400" y2="0" stroke="darkgrey"/><line transform="translate(400,200)" x2="-400" y2="0" stroke="darkgrey"/><line transform="translate(400,200)" x2="-400" y2="0" stroke="darkgrey"/><line transform="translate(400,200)" x2="-400" y2="0" stroke="darkgrey"/><line transform="translate(400,200)" x2="-400" y2="0" stroke="darkgrey"/><line transform="translate(400,200)" x2="-400" y2="0" stroke="darkgrey"/><line transform="translate(400,200)" x2="-400" y2="0" stroke="darkgrey"/></g><g class="mark-group role-title"><g transform="translate(200,-22)"><path class="background" aria-hidden="true" d="M0,0h0v0h0Z" pointer-events="none"/><g><g class="mark-text role-title-text" role="graphics-symbol" aria-roledescription="title" aria-label="Title text 'Predicted vs residuals'" pointer-events="none"><text text-anchor="middle" transform="translate(0,10)" font-family="sans-serif" font-size="13px" font-weight="bold" fill="#000" opacity="1">Predicted vs residuals</text></g></g><path class="foreground" aria-hidden="true" d="" pointer-events="none" display="none"/></g></g></g><path class="foreground" aria-hidden="true" d="" display="none"/></g></g></g></svg>
