<?xml version="1.0" encoding="utf-8"?>
<!DOCTYPE svg PUBLIC "-//W3C//DTD SVG 1.1//EN" "http://www.w3.org/Graphics/SVG/1.1/DTD/svg11.dtd">
<svg xmlns="http://www.w3.org/2000/svg" xmlns:xlink="http://www.w3.org/1999/xlink" version="1.1" class="marks" width="454" height="264" viewBox="0 0 454 264"><rect width="454" height="264" fill="white"/><g fill="none" stroke-miterlimit="10" transform="translate(48,27)"><g class="mark-group role-frame root" role="graphics-object" aria-roledescription="group mark container"><g transform="translate(0,0)"><path class="background" aria-hidden="true" d="M0.5,0.5h400v200h-400Z" stroke="#ddd"/><g><g class="mark-group role-axis" role="graphics-symbol" aria-roledescription="axis" aria-label="X-axis titled 'x' for a linear scale with values from −2 to 8"><g transform="translate(0.5,200.5)"><path class="background" aria-hidden="true" d="M0,0h0v0h0Z" pointer-events="none"/><g><g class="mark-rule role-axis-tick" pointer-events="none"><line transform="translate(0,0)" x2="0" y2="5" stroke="#888" stroke-width="1" opacity="1"/><line transform="translate(40,0)" x2="0" y2="5" stroke="#888" stroke-width="1" opacity="1"/><line transform="translate(80,0)" x2="0" y2="5" stroke="#888" stroke-width="1" opacity="1"/><line transform="translate(120,0)" x2="0" y2="5" stroke="#888" stroke-width="1" opacity="1"/><line transform="translate(160,0)" x2="0" y2="5" stroke="#888" stroke-width="1" opacity="1"/><line transform="translate(200,0)" x2="0" y2="5" stroke="#888" stroke-width="1" opacity="1"/><line transform="translate(240,0)" x2="0" y2="5" stroke="#888" stroke-width="1" opacity="1"/><line transform="translate(280,0)" x2="0" y2="5" stroke="#888" stroke-width="1" opacity="1"/><line transform="translate(320,0)" x2="0" y2="5" stroke="#888" stroke-width="1" opacity="1"/><line transform="translate(360,0)" x2="0" y2="5" stroke="#888" stroke-width="1" opacity="1"/><line transform="translate(400,0)" x2="0" y2="5" stroke="#888" stroke-width="1" opacity="1"/></g><g class="mark-text role-axis-label" pointer-events="none"><text text-anchor="start" transform="translate(0,15)" font-family="sans-serif" font-size="10px" fill="#000" opacity="1">−2</text><text text-anchor="middle" transform="translate(40,15)" font-family="sans-serif" font-size="10px" fill="#000" opacity="1">−1</text><text text-anchor="middle" transform="translate(80,15)" font-family="sans-serif" font-size="10px" fill="#000" opacity="1">0</text><text text-anchor="middle" transform="translate(120,15)" font-family="sans-serif" font-size="10px" fill="#000" opacity="1">1</text><text text-anchor="middle" transform="translate(160,15)" font-family="sans-serif" font-size="10px" fill="#000" opacity="1">2</text><text text-anchor="middle" transform="translate(200,15)" font-family="sans-serif" font-size="10px" fill="#000" opacity="1">3</text><text text-anchor="middle" transform="translate(240,15)" font-family="sans-serif" font-size="10px" fill="#000" opacity="1">4</text><text text-anchor="middle" transform="translate(280,15)" font-family="sans-serif" font-size="10px" fill="#000" opacity="1">5</text><text text-anchor="middle" transform="translate(320,15)" font-family="sans-serif" font-size="10px" fill="#000" opacity="1">6</text><text text-anchor="middle" transform="translate(360,15)" font-family="sans-serif" font-size="10px" fill="#000" opacity="1">7</text><text text-anchor="end" transform="translate(400,15)" font-family="sans-serif" font-size="10px" fill="#000" opacity="1">8</text></g><g class="mark-rule role-axis-domain" pointer-events="none"><line transform="translate(0,0)" x2="400" y2="0" stroke="#888" stroke-width="1" opacity="1"/></g><g class="mark-text role-axis-title" pointer-events="none"><text text-anchor="middle" transform="translate(200,30)" font-family="sans-serif" font-size="11px" font-weight="bold" fill="#000" opacity="1">x</text></g></g><path class="foreground" aria-hidden="true" d="" pointer-events="none" display="none"/></g></g><g class="mark-group role-axis" role="graphics-symbol" aria-roledescription="axis" aria-label="Y-axis titled 'cooksd' for a linear scale with values from 0.00 to 0.10"><g transform="translate(0.5,0.5)"><path class="background" aria-hidden="true" d="M0,0h0v0h0Z" pointer-events="none"/><g><g class="mark-rule role-axis-tick" pointer-events="none"><line transform="translate(0,200)" x2="-5" y2="0" stroke="#888" stroke-width="1" opacity="1"/><line transform="translate(0,160)" x2="-5" y2="0" stroke="#888" stroke-width="1" opacity="1"/><line transform="translate(0,120)" x2="-5" y2="0" stroke="#888" stroke-width="1" opacity="1"/><line transform="translate(0,80)" x2="-5" y2="0" stroke="#888" stroke-width="1" opacity="1"/><line transform="translate(0,40)" x2="-5" y2="0" stroke="#888" stroke-width="1" opacity="1"/><line transform="translate(0,0)" x2="-5" y2="0" stroke="#888" stroke-width="1" opacity="1"/></g><g class="mark-text role-axis-label" pointer-events="none"><text text-anchor="end" transform="translate(-7,203)" font-family="sans-serif" font-size="10px" fill="#000" opacity="1">0.00</text><text text-anchor="end" transform="translate(-7,163)" font-family="sans-serif" font-size="10px" fill="#000" opacity="1">0.02</text><text text-anchor="end" transform="translate(-7,123.00000000000001)" font-family="sans-serif" font-size="10px" fill="#000" opacity="1">0.04</text><text text-anchor="end" transform="translate(-7,83)" font-family="sans-serif" font-size="10px" fill="#000" opacity="1">0.06</text><text text-anchor="end" transform="translate(-7,43.000000000000014)" font-family="sans-serif" font-size="10px" fill="#000" opacity="1">0.08</text><text text-anchor="end" transform="translate(-7,3)" font-family="sans-serif" font-size="10px" fill="#000" opacity="1">0.10</text></g><g class="mark-rule role-axis-domain" pointer-events="none"><line transform="translate(0,200)" x2="0" y2="-200" stroke="#888" stroke-width="1" opacity="1"/></g><g class="mark-text role-axis-title" pointer-events="none"><text text-anchor="middle" transform="translate(-32,100) rotate(-90) translate(0,-2)" font-family="sans-serif" font-size="11px" font-weight="bold" fill="#000" opacity="1">cooksd</text></g></g><path class="foreground" aria-hidden="true" d="" pointer-events="none" display="none"/></g></g><g class="mark-rule role-mark layer_0_marks" role="graphics-object" aria-roledescription="rule mark container"><line aria-label="x: −2; cooksd: 0.0135466162683" role="graphics-symbol" aria-roledescription="rule mark" transform="translate(0,200)" x2="0" y2="-27.093232536511465" stroke="steelblue"/><line aria-label="x: −1.9; cooksd: 0.0487143823086" role="graphics-symbol" aria-roledescription="rule mark" transform="translate(4.0000000000000036,200)" x2="0" y2="-97.428764617137" stroke="steelblue"/><line aria-label="x: −1.8; cooksd: 0.00572213941574" role="graphics-symbol" aria-roledescription="rule mark" transform="translate(7.999999999999999,200)" x2="0" y2="-11.444278831473866" stroke="steelblue"/><line aria-label="x: −1.7; cooksd: 0.0209081943441" role="graphics-symbol" aria-roledescription="rule mark" transform="translate(12.000000000000002,200)" x2="0" y2="-41.81638868820323" stroke="steelblue"/><line aria-label="x: −1.6; cooksd: 0.0263268536021" role="graphics-symbol" aria-roledescription="rule mark" transform="translate(15.999999999999998,200)" x2="0" y2="-52.653707204224474" stroke="steelblue"/><line aria-label="x: −1.5; cooksd: 0.0661877155818" role="graphics-symbol" aria-roledescription="rule mark" transform="translate(20,200)" x2="0" y2="-132.37543116350196" stroke="steelblue"/><line aria-label="x: −1.4; cooksd: 0.000304316487043" role="graphics-symbol" aria-roledescription="rule mark" transform="translate(24.000000000000004,200)" x2="0" y2="-0.608632974085026" stroke="steelblue"/><line aria-label="x: −1.3; cooksd: 0.0274781797532" role="graphics-symbol" aria-roledescription="rule mark" transform="translate(27.999999999999996,200)" x2="0" y2="-54.9563595064123" stroke="steelblue"/><line aria-label="x: −1.2; cooksd: 0.0184472634684" role="graphics-symbol" aria-roledescription="rule mark" transform="translate(32,200)" x2="0" y2="-36.89452693680002" stroke="steelblue"/><line aria-label="x: −1.1; cooksd: 0.00642702258667" role="graphics-symbol" aria-roledescription="rule mark" transform="translate(36,200)" x2="0" y2="-12.854045173342598" stroke="steelblue"/><line aria-label="x: −1; cooksd: 0.0710684778693" role="graphics-symbol" aria-roledescription="rule mark" transform="translate(40,200)" x2="0" y2="-142.1369557386388" stroke="steelblue"/><line aria-label="x: −0.9; cooksd: 0.00925740010838" role="graphics-symbol" aria-roledescription="rule mark" transform="translate(44.00000000000001,200)" x2="0" y2="-18.514800216766673" stroke="steelblue"/><line aria-label="x: −0.8; cooksd: 0.00000620209633827" role="graphics-symbol" aria-roledescription="rule mark" transform="translate(48,200)" x2="0" y2="-0.01240419267654147" stroke="steelblue"/><line aria-label="x: −0.7; cooksd: 0.0833127718487" role="graphics-symbol" aria-roledescription="rule mark" transform="translate(52,200)" x2="0" y2="-166.62554369734738" stroke="steelblue"/><line aria-label="x: −0.6; cooksd: 0.000381424891706" role="graphics-symbol" aria-roledescription="rule mark" transform="translate(55.99999999999999,200)" x2="0" y2="-0.7628497834126904" stroke="steelblue"/><line aria-label="x: −0.5; cooksd: 0.0000515358869325" role="graphics-symbol" aria-roledescription="rule mark" transform="translate(60,200)" x2="0" y2="-0.1030717738650253" stroke="steelblue"/><line aria-label="x: −0.4; cooksd: 0.0159079804634" role="graphics-symbol" aria-roledescription="rule mark" transform="translate(64,200)" x2="0" y2="-31.81596092674829" stroke="steelblue"/><line aria-label="x: −0.3; cooksd: 0.00741242827354" role="graphics-symbol" aria-roledescription="rule mark" transform="translate(68,200)" x2="0" y2="-14.82485654707304" stroke="steelblue"/><line aria-label="x: −0.2; cooksd: 0.00786105174974" role="graphics-symbol" aria-roledescription="rule mark" transform="translate(72,200)" x2="0" y2="-15.722103499478635" stroke="steelblue"/><line aria-label="x: −0.1; cooksd: 0.000179552726148" role="graphics-symbol" aria-roledescription="rule mark" transform="translate(76,200)" x2="0" y2="-0.3591054522963475" stroke="steelblue"/><line aria-label="x: 0; cooksd: 0.0162208508663" role="graphics-symbol" aria-roledescription="rule mark" transform="translate(80,200)" x2="0" y2="-32.44170173263558" stroke="steelblue"/><line aria-label="x: 0.1; cooksd: 0.00400085334443" role="graphics-symbol" aria-roledescription="rule mark" transform="translate(84.00000000000001,200)" x2="0" y2="-8.001706688858604" stroke="steelblue"/><line aria-label="x: 0.2; cooksd: 0.00123776212598" role="graphics-symbol" aria-roledescription="rule mark" transform="translate(88.00000000000001,200)" x2="0" y2="-2.4755242519571823" stroke="steelblue"/><line aria-label="x: 0.3; cooksd: 0.000087899577566" role="graphics-symbol" aria-roledescription="rule mark" transform="translate(92,200)" x2="0" y2="-0.17579915513206856" stroke="steelblue"/><line aria-label="x: 0.4; cooksd: 0.000141799589968" role="graphics-symbol" aria-roledescription="rule mark" transform="translate(96,200)" x2="0" y2="-0.2835991799351518" stroke="steelblue"/><line aria-label="x: 0.5; cooksd: 0.00107832335402" role="graphics-symbol" aria-roledescription="rule mark" transform="translate(100,200)" x2="0" y2="-2.156646708034714" stroke="steelblue"/><line aria-label="x: 0.6; cooksd: 0.00706946331868" role="graphics-symbol" aria-roledescription="rule mark" transform="translate(104,200)" x2="0" y2="-14.138926637363681" stroke="steelblue"/><line aria-label="x: 0.7; cooksd: 0.0000011437482275" role="graphics-symbol" aria-roledescription="rule mark" transform="translate(108,200)" x2="0" y2="-0.002287496454982829" stroke="steelblue"/><line aria-label="x: 0.8; cooksd: 0.018244558726" role="graphics-symbol" aria-roledescription="rule mark" transform="translate(111.99999999999999,200)" x2="0" y2="-36.48911745191492" stroke="steelblue"/><line aria-label="x: 0.9; cooksd: 0.000127178834539" role="graphics-symbol" aria-roledescription="rule mark" transform="translate(115.99999999999999,200)" x2="0" y2="-0.25435766907705215" stroke="steelblue"/><line aria-label="x: 1; cooksd: 0.00225245190325" role="graphics-symbol" aria-roledescription="rule mark" transform="translate(120,200)" x2="0" y2="-4.5049038064979925" stroke="steelblue"/><line aria-label="x: 1.1; cooksd: 0.00257387208284" role="graphics-symbol" aria-roledescription="rule mark" transform="translate(124,200)" x2="0" y2="-5.147744165683491" stroke="steelblue"/><line aria-label="x: 1.2; cooksd: 0.00432897512131" role="graphics-symbol" aria-roledescription="rule mark" transform="translate(128,200)" x2="0" y2="-8.657950242618142" stroke="steelblue"/><line aria-label="x: 1.3; cooksd: 0.00837469978435" role="graphics-symbol" aria-roledescription="rule mark" transform="translate(131.99999999999997,200)" x2="0" y2="-16.749399568691786" stroke="steelblue"/><line aria-label="x: 1.4; cooksd: 0.0168737941131" role="graphics-symbol" aria-roledescription="rule mark" transform="translate(136,200)" x2="0" y2="-33.747588226249036" stroke="steelblue"/><line aria-label="x: 1.5; cooksd: 0.00248237244216" role="graphics-symbol" aria-roledescription="rule mark" transform="translate(140,200)" x2="0" y2="-4.964744884320567" stroke="steelblue"/><line aria-label="x: 1.6; cooksd: 0.00809331825518" role="graphics-symbol" aria-roledescription="rule mark" transform="translate(144,200)" x2="0" y2="-16.186636510355783" stroke="steelblue"/><line aria-label="x: 1.7; cooksd: 0.00493790281591" role="graphics-symbol" aria-roledescription="rule mark" transform="translate(148,200)" x2="0" y2="-9.875805631819645" stroke="steelblue"/><line aria-label="x: 1.8; cooksd: 0.0000125680020641" role="graphics-symbol" aria-roledescription="rule mark" transform="translate(152,200)" x2="0" y2="-0.025136004128256673" stroke="steelblue"/><line aria-label="x: 1.9; cooksd: 0.00812857388407" role="graphics-symbol" aria-roledescription="rule mark" transform="translate(156,200)" x2="0" y2="-16.257147768140044" stroke="steelblue"/><line aria-label="x: 2; cooksd: 0.00223474842099" role="graphics-symbol" aria-roledescription="rule mark" transform="translate(160,200)" x2="0" y2="-4.469496841981112" stroke="steelblue"/><line aria-label="x: 2.1; cooksd: 0.00455456808153" role="graphics-symbol" aria-roledescription="rule mark" transform="translate(164,200)" x2="0" y2="-9.109136163054075" stroke="steelblue"/><line aria-label="x: 2.2; cooksd: 0.0181653849143" role="graphics-symbol" aria-roledescription="rule mark" transform="translate(168.00000000000003,200)" x2="0" y2="-36.3307698285345" stroke="steelblue"/><line aria-label="x: 2.3; cooksd: 0.00026521733752" role="graphics-symbol" aria-roledescription="rule mark" transform="translate(172,200)" x2="0" y2="-0.5304346750396576" stroke="steelblue"/><line aria-label="x: 2.4; cooksd: 0.000811020662402" role="graphics-symbol" aria-roledescription="rule mark" transform="translate(176.00000000000003,200)" x2="0" y2="-1.6220413248042007" stroke="steelblue"/><line aria-label="x: 2.5; cooksd: 0.0106343554218" role="graphics-symbol" aria-roledescription="rule mark" transform="translate(180,200)" x2="0" y2="-21.268710843620966" stroke="steelblue"/><line aria-label="x: 2.6; cooksd: 0.00287155682776" role="graphics-symbol" aria-roledescription="rule mark" transform="translate(184,200)" x2="0" y2="-5.743113655526173" stroke="steelblue"/><line aria-label="x: 2.7; cooksd: 0.00271011168674" role="graphics-symbol" aria-roledescription="rule mark" transform="translate(188,200)" x2="0" y2="-5.420223373483907" stroke="steelblue"/><line aria-label="x: 2.8; cooksd: 0.00514775238363" role="graphics-symbol" aria-roledescription="rule mark" transform="translate(192,200)" x2="0" y2="-10.29550476726422" stroke="steelblue"/><line aria-label="x: 2.9; cooksd: 0.0000837949631581" role="graphics-symbol" aria-roledescription="rule mark" transform="translate(196.00000000000003,200)" x2="0" y2="-0.1675899263162819" stroke="steelblue"/><line aria-label="x: 3; cooksd: 0.00111646148074" role="graphics-symbol" aria-roledescription="rule mark" transform="translate(200,200)" x2="0" y2="-2.232922961476305" stroke="steelblue"/><line aria-label="x: 3.1; cooksd: 0.00646762411908" role="graphics-symbol" aria-roledescription="rule mark" transform="translate(204,200)" x2="0" y2="-12.935248238156987" stroke="steelblue"/><line aria-label="x: 3.2; cooksd: 1.91926967217e-7" role="graphics-symbol" aria-roledescription="rule mark" transform="translate(208,200)" x2="0" y2="-0.00038385393443718385" stroke="steelblue"/><line aria-label="x: 3.3; cooksd: 0.00948337669115" role="graphics-symbol" aria-roledescription="rule mark" transform="translate(212,200)" x2="0" y2="-18.96675338230898" stroke="steelblue"/><line aria-label="x: 3.4; cooksd: 0.00622992465395" role="graphics-symbol" aria-roledescription="rule mark" transform="translate(216,200)" x2="0" y2="-12.459849307902601" stroke="steelblue"/><line aria-label="x: 3.5; cooksd: 0.00659515920281" role="graphics-symbol" aria-roledescription="rule mark" transform="translate(220.00000000000003,200)" x2="0" y2="-13.190318405618001" stroke="steelblue"/><line aria-label="x: 3.6; cooksd: 0.00144140799779" role="graphics-symbol" aria-roledescription="rule mark" transform="translate(223.99999999999997,200)" x2="0" y2="-2.8828159955835986" stroke="steelblue"/><line aria-label="x: 3.7; cooksd: 0.00624353750866" role="graphics-symbol" aria-roledescription="rule mark" transform="translate(228.00000000000003,200)" x2="0" y2="-12.487075017328806" stroke="steelblue"/><line aria-label="x: 3.8; cooksd: 0.00999201028439" role="graphics-symbol" aria-roledescription="rule mark" transform="translate(231.99999999999997,200)" x2="0" y2="-19.984020568786548" stroke="steelblue"/><line aria-label="x: 3.9; cooksd: 0.0173870760609" role="graphics-symbol" aria-roledescription="rule mark" transform="translate(236.00000000000003,200)" x2="0" y2="-34.77415212183118" stroke="steelblue"/><line aria-label="x: 4; cooksd: 0.00116404381407" role="graphics-symbol" aria-roledescription="rule mark" transform="translate(240,200)" x2="0" y2="-2.328087628144658" stroke="steelblue"/><line aria-label="x: 4.1; cooksd: 0.0000280494424107" role="graphics-symbol" aria-roledescription="rule mark" transform="translate(244,200)" x2="0" y2="-0.05609888482135261" stroke="steelblue"/><line aria-label="x: 4.2; cooksd: 0.00000192514974714" role="graphics-symbol" aria-roledescription="rule mark" transform="translate(248,200)" x2="0" y2="-0.0038502994942746227" stroke="steelblue"/><line aria-label="x: 4.3; cooksd: 0.00131109930631" role="graphics-symbol" aria-roledescription="rule mark" transform="translate(252,200)" x2="0" y2="-2.622198612613005" stroke="steelblue"/><line aria-label="x: 4.4; cooksd: 0.00173037000064" role="graphics-symbol" aria-roledescription="rule mark" transform="translate(256,200)" x2="0" y2="-3.4607400012816356" stroke="steelblue"/><line aria-label="x: 4.5; cooksd: 0.00164710362517" role="graphics-symbol" aria-roledescription="rule mark" transform="translate(260,200)" x2="0" y2="-3.2942072503466022" stroke="steelblue"/><line aria-label="x: 4.6; cooksd: 0.00244337139884" role="graphics-symbol" aria-roledescription="rule mark" transform="translate(263.99999999999994,200)" x2="0" y2="-4.886742797670308" stroke="steelblue"/><line aria-label="x: 4.7; cooksd: 0.00224500807024" role="graphics-symbol" aria-roledescription="rule mark" transform="translate(268,200)" x2="0" y2="-4.490016140470146" stroke="steelblue"/><line aria-label="x: 4.8; cooksd: 0.000376262677548" role="graphics-symbol" aria-roledescription="rule mark" transform="translate(272,200)" x2="0" y2="-0.7525253550950026" stroke="steelblue"/><line aria-label="x: 4.9; cooksd: 0.0341203848869" role="graphics-symbol" aria-roledescription="rule mark" transform="translate(276,200)" x2="0" y2="-68.24076977382333" stroke="steelblue"/><line aria-label="x: 5; cooksd: 0.0218156536981" role="graphics-symbol" aria-roledescription="rule mark" transform="translate(280,200)" x2="0" y2="-43.63130739624211" stroke="steelblue"/><line aria-label="x: 5.1; cooksd: 0.012634930608" role="graphics-symbol" aria-roledescription="rule mark" transform="translate(284,200)" x2="0" y2="-25.269861216003278" stroke="steelblue"/><line aria-label="x: 5.2; cooksd: 0.00610327886681" role="graphics-symbol" aria-roledescription="rule mark" transform="translate(288,200)" x2="0" y2="-12.206557733627392" stroke="steelblue"/><line aria-label="x: 5.3; cooksd: 0.00200007271363" role="graphics-symbol" aria-roledescription="rule mark" transform="translate(292,200)" x2="0" y2="-4.00014542725836" stroke="steelblue"/><line aria-label="x: 5.4; cooksd: 0.0059518179209" role="graphics-symbol" aria-roledescription="rule mark" transform="translate(296,200)" x2="0" y2="-11.903635841796586" stroke="steelblue"/><line aria-label="x: 5.5; cooksd: 0.0416782200875" role="graphics-symbol" aria-roledescription="rule mark" transform="translate(300,200)" x2="0" y2="-83.3564401750428" stroke="steelblue"/><line aria-label="x: 5.6; cooksd: 0.00107891394459" role="graphics-symbol" aria-roledescription="rule mark" transform="translate(304,200)" x2="0" y2="-2.1578278891813056" stroke="steelblue"/><line aria-label="x: 5.7; cooksd: 0.00481760997678" role="graphics-symbol" aria-roledescription="rule mark" transform="translate(308,200)" x2="0" y2="-9.635219953567741" stroke="steelblue"/><line aria-label="x: 5.8; cooksd: 0.018219651411" role="graphics-symbol" aria-roledescription="rule mark" transform="translate(312,200)" x2="0" y2="-36.43930282209277" stroke="steelblue"/><line aria-label="x: 5.9; cooksd: 0.0000865313411897" role="graphics-symbol" aria-roledescription="rule mark" transform="translate(316,200)" x2="0" y2="-0.17306268237945233" stroke="steelblue"/><line aria-label="x: 6; cooksd: 0.00462509391451" role="graphics-symbol" aria-roledescription="rule mark" transform="translate(320,200)" x2="0" y2="-9.250187829016312" stroke="steelblue"/><line aria-label="x: 6.1; cooksd: 0.00210657325988" role="graphics-symbol" aria-roledescription="rule mark" transform="translate(324,200)" x2="0" y2="-4.213146519760841" stroke="steelblue"/><line aria-label="x: 6.2; cooksd: 0.0145252793763" role="graphics-symbol" aria-roledescription="rule mark" transform="translate(328,200)" x2="0" y2="-29.050558752567525" stroke="steelblue"/><line aria-label="x: 6.3; cooksd: 0.000154196900763" role="graphics-symbol" aria-roledescription="rule mark" transform="translate(332,200)" x2="0" y2="-0.308393801525483" stroke="steelblue"/><line aria-label="x: 6.4; cooksd: 0.00707251395875" role="graphics-symbol" aria-roledescription="rule mark" transform="translate(336.00000000000006,200)" x2="0" y2="-14.14502791750391" stroke="steelblue"/><line aria-label="x: 6.5; cooksd: 0.0157798075515" role="graphics-symbol" aria-roledescription="rule mark" transform="translate(340,200)" x2="0" y2="-31.559615103042432" stroke="steelblue"/><line aria-label="x: 6.6; cooksd: 0.0178557989691" role="graphics-symbol" aria-roledescription="rule mark" transform="translate(344,200)" x2="0" y2="-35.71159793823878" stroke="steelblue"/><line aria-label="x: 6.7; cooksd: 0.00031055671399" role="graphics-symbol" aria-roledescription="rule mark" transform="translate(347.99999999999994,200)" x2="0" y2="-0.6211134279799353" stroke="steelblue"/><line aria-label="x: 6.8; cooksd: 0.0024224556102" role="graphics-symbol" aria-roledescription="rule mark" transform="translate(352.00000000000006,200)" x2="0" y2="-4.844911220390571" stroke="steelblue"/><line aria-label="x: 6.9; cooksd: 0.00174792794194" role="graphics-symbol" aria-roledescription="rule mark" transform="translate(356,200)" x2="0" y2="-3.4958558838868896" stroke="steelblue"/><line aria-label="x: 7; cooksd: 0.000184018173173" role="graphics-symbol" aria-roledescription="rule mark" transform="translate(360,200)" x2="0" y2="-0.3680363463469405" stroke="steelblue"/><line aria-label="x: 7.1; cooksd: 0.00251587611994" role="graphics-symbol" aria-roledescription="rule mark" transform="translate(363.99999999999994,200)" x2="0" y2="-5.031752239884469" stroke="steelblue"/><line aria-label="x: 7.2; cooksd: 0.00157323906921" role="graphics-symbol" aria-roledescription="rule mark" transform="translate(368,200)" x2="0" y2="-3.1464781384240723" stroke="steelblue"/><line aria-label="x: 7.3; cooksd: 0.00601595044683" role="graphics-symbol" aria-roledescription="rule mark" transform="translate(372,200)" x2="0" y2="-12.031900893656854" stroke="steelblue"/><line aria-label="x: 7.4; cooksd: 0.00302545280099" role="graphics-symbol" aria-roledescription="rule mark" transform="translate(376,200)" x2="0" y2="-6.050905601981782" stroke="steelblue"/><line aria-label="x: 7.5; cooksd: 0.0190188899963" role="graphics-symbol" aria-roledescription="rule mark" transform="translate(380,200)" x2="0" y2="-38.03777999253441" stroke="steelblue"/><line aria-label="x: 7.6; cooksd: 0.0162491401185" role="graphics-symbol" aria-roledescription="rule mark" transform="translate(384,200)" x2="0" y2="-32.49828023690196" stroke="steelblue"/><line aria-label="x: 7.7; cooksd: 0.000313762292961" role="graphics-symbol" aria-roledescription="rule mark" transform="translate(388,200)" x2="0" y2="-0.6275245859220036" stroke="steelblue"/><line aria-label="x: 7.8; cooksd: 0.00381687077035" role="graphics-symbol" aria-roledescription="rule mark" transform="translate(392.00000000000006,200)" x2="0" y2="-7.633741540707462" stroke="steelblue"/><line aria-label="x: 7.9; cooksd: 0.0209903956307" role="graphics-symbol" aria-roledescription="rule mark" transform="translate(396,200)" x2="0" y2="-41.98079126143247" stroke="steelblue"/><line aria-label="x: 8; cooksd: 0.0913234449089" role="graphics-symbol" aria-roledescription="rule mark" transform="translate(400,200)" x2="0" y2="-182.64688981775757" stroke="steelblue"/></g><g class="mark-rule role-mark layer_1_marks" role="graphics-symbol" aria-roledescription="rule mark container"><line transform="translate(400,120.7920792079208)" x2="-400" y2="0" stroke="darkgrey"/><line transform="translate(400,120.7920792079208)" x2="-400" y2="0" stroke="darkgrey"/><line transform="translate(400,120.7920792079208)" x2="-400" y2="0" stroke="darkgrey"/><line transform="translate(400,120.7920792079208)" x2="-400" y2="0" stroke="darkgrey"/><line transform="translate(400,120.7920792079208)" x2="-400" y2="0" stroke="darkgrey"/><line transform="translate(400,120.7920792079208)" x2="-400" y2="0" stroke="darkgrey"/><line transform="translate(400,120.7920792079208)" x2="-400" y2="0" stroke="darkgrey"/><line transform="translate(400,120.7920792079208)" x2="-400" y2="0" stroke="darkgrey"/><line transform="translate(400,120.7920792079208)" x2="-400" y2="0" stroke="darkgrey"/><line transform="translate(400,120.7920792079208)" x2="-400" y2="0" stroke="darkgrey"/><line transform="translate(400,120.7920792079208)" x2="-400" y2="0" stroke="darkgrey"/><line transform="translate(400,120.7920792079208)" x2="-400" y2="0" stroke="darkgrey"/><line transform="translate(400,120.7920792079208)" x2="-400" y2="0" stroke="darkgrey"/><line transform="translate(400,120.7920792079208)" x2="-400" y2="0" stroke="darkgrey"/><line transform="translate(400,120.7920792079208)" x2="-400" y2="0" stroke="darkgrey"/><line transform="translate(400,120.7920792079208)" x2="-400" y2="0" stroke="darkgrey"/><line transform="translate(400,120.7920792079208)" x2="-400" y2="0" stroke="darkgrey"/><line transform="translate(400,120.7920792079208)" x2="-400" y2="0" stroke="darkgrey"/><line transform="translate(400,120.7920792079208)" x2="-400" y2="0" stroke="darkgrey"/><line transform="translate(400,120.7920792079208)" x2="-400" y2="0" stroke="darkgrey"/><line transform="translate(400,120.7920792079208)" x2="-400" y2="0" stroke="darkgrey"/><line transform="translate(400,120.7920792079208)" x2="-400" y2="0" stroke="darkgrey"/><line transform="translate(400,120.7920792079208)" x2="-400" y2="0" stroke="darkgrey"/><line transform="translate(400,120.7920792079208)" x2="-400" y2="0" stroke="darkgrey"/><line transform="translate(400,120.7920792079208)" x2="-400" y2="0" stroke="darkgrey"/><line transform="translate(400,120.7920792079208)" x2="-400" y2="0" stroke="darkgrey"/><line transform="translate(400,120.7920792079208)" x2="-400" y2="0" stroke="darkgrey"/><line transform="translate(400,120.7920792079208)" x2="-400" y2="0" stroke="darkgrey"/><line transform="translate(400,120.7920792079208)" x2="-400" y2="0" stroke="darkgrey"/><line transform="translate(400,120.7920792079208)" x2="-400" y2="0" stroke="darkgrey"/><line transform="translate(400,120.7920792079208)" x2="-400" y2="0" stroke="darkgrey"/><line transform="translate(400,120.7920792079208)" x2="-400" y2="0" stroke="darkgrey"/><line transform="translate(400,120.7920792079208)" x2="-400" y2="0" stroke="darkgrey"/><line transform="translate(400,120.7920792079208)" x2="-400" y2="0" stroke="darkgrey"/><line transform="translate(400,120.7920792079208)" x2="-400" y2="0" stroke="darkgrey"/><line transform="translate(400,120.7920792079208)" x2="-400" y2="0" stroke="darkgrey"/><line transform="translate(400,120.7920792079208)" x2="-400" y2="0" stroke="darkgrey"/><line transform="translate(400,120.7920792079208)" x2="-400" y2="0" stroke="darkgrey"/><line transform="translate(400,120.7920792079208)" x2="-400" y2="0" stroke="darkgrey"/><line transform="translate(400,120.7920792079208)" x2="-400" y2="0" stroke="darkgrey"/><line transform="translate(400,120.7920792079208)" x2="-400" y2="0" stroke="darkgrey"/><line transform="translate(400,120.7920792079208)" x2="-400" y2="0" stroke="darkgrey"/><line transform="translate(400,120.7920792079208)" x2="-400" y2="0" stroke="darkgrey"/><line transform="translate(400,120.7920792079208)" x2="-400" y2="0" stroke="darkgrey"/><line transform="translate(400,120.7920792079208)" x2="-400" y2="0" stroke="darkgrey"/><line transform="translate(400,120.7920792079208)" x2="-400" y2="0" stroke="darkgrey"/><line transform="translate(400,120.7920792079208)" x2="-400" y2="0" stroke="darkgrey"/><line transform="translate(400,120.7920792079208)" x2="-400" y2="0" stroke="darkgrey"/><line transform="translate(400,120.7920792079208)" x2="-400" y2="0" stroke="darkgrey"/><line transform="translate(400,120.7920792079208)" x2="-400" y2="0" stroke="darkgrey"/><line transform="translate(400,120.7920792079208)" x2="-400" y2="0" stroke="darkgrey"/><line transform="translate(400,120.7920792079208)" x2="-400" y2="0" stroke="darkgrey"/><line transform="translate(400,120.7920792079208)" x2="-400" y2="0" stroke="darkgrey"/><line transform="translate(400,120.7920792079208)" x2="-400" y2="0" stroke="darkgrey"/><line transform="translate(400,120.7920792079208)" x2="-400" y2="0" stroke="darkgrey"/><line transform="translate(400,120.7920792079208)" x2="-400" y2="0" stroke="darkgrey"/><line transform="translate(400,120.7920792079208)" x2="-400" y2="0" stroke="darkgrey"/><line transform="translate(400,120.7920792079208)" x2="-400" y2="0" stroke="darkgrey"/><line transform="translate(400,120.7920792079208)" x2="-400" y2="0" stroke="darkgrey"/><line transform="translate(400,120.7920792079208)" x2="-400" y2="0" stroke="darkgrey"/><line transform="translate(400,120.7920792079208)" x2="-400" y2="0" stroke="darkgrey"/><line transform="translate(400,120.7920792079208)" x2="-400" y2="0" stroke="darkgrey"/><line transform="translate(400,120.7920792079208)" x2="-400" y2="0" stroke="darkgrey"/><line transform="translate(400,120.7920792079208)" x2="-400" y2="0" stroke="darkgrey"/><line transform="translate(400,120.7920792079208)" x2="-400" y2="0" stroke="darkgrey"/><line transform="translate(400,120.7920792079208)" x2="-400" y2="0" stroke="darkgrey"/><line transform="translate(400,120.7920792079208)" x2="-400" y2="0" stroke="darkgrey"/><line transform="translate(400,120.7920792079208)" x2="-400" y2="0" stroke="darkgrey"/><line transform="translate(400,120.7920792079208)" x2="-400" y2="0" stroke="darkgrey"/><line transform="translate(400,120.7920792079208)" x2="-400" y2="0" stroke="darkgrey"/><line transform="translate(400,120.7920792079208)" x2="-400" y2="0" stroke="darkgrey"/><line transform="translate(400,120.7920792079208)" x2="-400" y2="0" stroke="darkgrey"/><line transform="translate(400,120.7920792079208)" x2="-400" y2="0" stroke="darkgrey"/><line transform="translate(400,120.7920792079208)" x2="-400" y2="0" stroke="darkgrey"/><line transform="translate(400,120.7920792079208)" x2="-400" y2="0" stroke="darkgrey"/><line transform="translate(400,120.7920792079208)" x2="-400" y2="0" stroke="darkgrey"/><line transform="translate(400,120.7920792079208)" x2="-400" y2="0" stroke="darkgrey"/><line transform="translate(400,120.7920792079208)" x2="-400" y2="0" stroke="darkgrey"/><line transform="translate(400,120.7920792079208)" x2="-400" y2="0" stroke="darkgrey"/><line transform="translate(400,120.7920792079208)" x2="-400" y2="0" stroke="darkgrey"/><line transform="translate(400,120.7920792079208)" x2="-400" y2="0" stroke="darkgrey"/><line transform="translate(400,120.7920792079208)" x2="-400" y2="0" stroke="darkgrey"/><line transform="translate(400,120.7920792079208)" x2="-400" y2="0" stroke="darkgrey"/><line transform="translate(400,120.7920792079208)" x2="-400" y2="0" stroke="darkgrey"/><line transform="translate(400,120.7920792079208)" x2="-400" y2="0" stroke="darkgrey"/><line transform="translate(400,120.7920792079208)" x2="-400" y2="0" stroke="darkgrey"/><line transform="translate(400,120.7920792079208)" x2="-400" y2="0" stroke="darkgrey"/><line transform="translate(400,120.7920792079208)" x2="-400" y2="0" stroke="darkgrey"/><line transform="translate(400,120.7920792079208)" x2="-400" y2="0" stroke="darkgrey"/><line transform="translate(400,120.7920792079208)" x2="-400" y2="0" stroke="darkgrey"/><line transform="translate(400,120.7920792079208)" x2="-400" y2="0" stroke="darkgrey"/><line transform="translate(400,120.7920792079208)" x2="-400" y2="0" stroke="darkgrey"/><line transform="translate(400,120.7920792079208)" x2="-400" y2="0" stroke="darkgrey"/><line transform="translate(400,120.7920792079208)" x2="-400" y2="0" stroke="darkgrey"/><line transform="translate(400,120.7920792079208)" x2="-400" y2="0" stroke="darkgrey"/><line transform="translate(400,120.7920792079208)" x2="-400" y2="0" stroke="darkgrey"/><line transform="translate(400,120.7920792079208)" x2="-400" y2="0" stroke="darkgrey"/><line transform="translate(400,120.7920792079208)" x2="-400" y2="0" stroke="darkgrey"/><line transform="translate(400,120.7920792079208)" x2="-400" y2="0" stroke="darkgrey"/><line transform="translate(400,120.7920792079208)" x2="-400" y2="0" stroke="darkgrey"/><line transform="translate(400,120.7920792079208)" x2="-400" y2="0" stroke="darkgrey"/></g><g class="mark-group role-title"><g transform="translate(200,-22)"><path class="background" aria-hidden="true" d="M0,0h0v0h0Z" pointer-events="none"/><g><g class="mark-text role-title-text" role="graphics-symbol" aria-roledescription="title" aria-label="Title text 'x vs Cook's Distance'" pointer-events="none"><text text-anchor="middle" transform="translate(0,10)" font-family="sans-serif" font-size="13px" font-weight="bold" fill="#000" opacity="1">x vs Cook's Distance</text></g></g><path class="foreground" aria-hidden="true" d="" pointer-events="none" display="none"/></g></g></g><path class="foreground" aria-hidden="true" d="" display="none"/></g></g></g></svg>
