<?xml version="1.0" encoding="utf-8"?>
<!DOCTYPE svg PUBLIC "-//W3C//DTD SVG 1.1//EN" "http://www.w3.org/Graphics/SVG/1.1/DTD/svg11.dtd">
<svg xmlns="http://www.w3.org/2000/svg" xmlns:xlink="http://www.w3.org/1999/xlink" version="1.1" class="marks" width="451" height="464" viewBox="0 0 451 464"><rect width="451" height="464" fill="white"/><g fill="none" stroke-miterlimit="10" transform="translate(45,27)"><g class="mark-group role-frame root" role="graphics-object" aria-roledescription="group mark container"><g transform="translate(0,0)"><path class="background" aria-hidden="true" d="M0.5,0.5h400v400h-400Z" stroke="#ddd"/><g><g class="mark-group role-axis" role="graphics-symbol" aria-roledescription="axis" aria-label="X-axis titled 'predicted' for a linear scale with values from −50 to 550"><g transform="translate(0.5,400.5)"><path class="background" aria-hidden="true" d="M0,0h0v0h0Z" pointer-events="none"/><g><g class="mark-rule role-axis-tick" pointer-events="none"><line transform="translate(0,0)" x2="0" y2="5" stroke="#888" stroke-width="1" opacity="1"/><line transform="translate(33,0)" x2="0" y2="5" stroke="#888" stroke-width="1" opacity="1"/><line transform="translate(67,0)" x2="0" y2="5" stroke="#888" stroke-width="1" opacity="1"/><line transform="translate(100,0)" x2="0" y2="5" stroke="#888" stroke-width="1" opacity="1"/><line transform="translate(133,0)" x2="0" y2="5" stroke="#888" stroke-width="1" opacity="1"/><line transform="translate(167,0)" x2="0" y2="5" stroke="#888" stroke-width="1" opacity="1"/><line transform="translate(200,0)" x2="0" y2="5" stroke="#888" stroke-width="1" opacity="1"/><line transform="translate(233,0)" x2="0" y2="5" stroke="#888" stroke-width="1" opacity="1"/><line transform="translate(267,0)" x2="0" y2="5" stroke="#888" stroke-width="1" opacity="1"/><line transform="translate(300,0)" x2="0" y2="5" stroke="#888" stroke-width="1" opacity="1"/><line transform="translate(333,0)" x2="0" y2="5" stroke="#888" stroke-width="1" opacity="1"/><line transform="translate(367,0)" x2="0" y2="5" stroke="#888" stroke-width="1" opacity="1"/><line transform="translate(400,0)" x2="0" y2="5" stroke="#888" stroke-width="1" opacity="1"/></g><g class="mark-text role-axis-label" pointer-events="none"><text text-anchor="start" transform="translate(0,15)" font-family="sans-serif" font-size="10px" fill="#000" opacity="1">−50</text><text text-anchor="middle" transform="translate(33.33333333333333,15)" font-family="sans-serif" font-size="10px" fill="#000" opacity="1">0</text><text text-anchor="middle" transform="translate(66.66666666666666,15)" font-family="sans-serif" font-size="10px" fill="#000" opacity="1">50</text><text text-anchor="middle" transform="translate(100,15)" font-family="sans-serif" font-size="10px" fill="#000" opacity="1">100</text><text text-anchor="middle" transform="translate(133.33333333333331,15)" font-family="sans-serif" font-size="10px" fill="#000" opacity="1">150</text><text text-anchor="middle" transform="translate(166.66666666666669,15)" font-family="sans-serif" font-size="10px" fill="#000" opacity="1">200</text><text text-anchor="middle" transform="translate(200,15)" font-family="sans-serif" font-size="10px" fill="#000" opacity="1">250</text><text text-anchor="middle" transform="translate(233.33333333333334,15)" font-family="sans-serif" font-size="10px" fill="#000" opacity="1">300</text><text text-anchor="middle" transform="translate(266.66666666666663,15)" font-family="sans-serif" font-size="10px" fill="#000" opacity="1">350</text><text text-anchor="middle" transform="translate(300,15)" font-family="sans-serif" font-size="10px" fill="#000" opacity="1">400</text><text text-anchor="middle" transform="translate(333.33333333333337,15)" font-family="sans-serif" font-size="10px" fill="#000" opacity="1">450</text><text text-anchor="middle" transform="translate(366.66666666666663,15)" font-family="sans-serif" font-size="10px" fill="#000" opacity="1">500</text><text text-anchor="end" transform="translate(400,15)" font-family="sans-serif" font-size="10px" fill="#000" opacity="1">550</text></g><g class="mark-rule role-axis-domain" pointer-events="none"><line transform="translate(0,0)" x2="400" y2="0" stroke="#888" stroke-width="1" opacity="1"/></g><g class="mark-text role-axis-title" pointer-events="none"><text text-anchor="middle" transform="translate(200,30)" font-family="sans-serif" font-size="11px" font-weight="bold" fill="#000" opacity="1">predicted</text></g></g><path class="foreground" aria-hidden="true" d="" pointer-events="none" display="none"/></g></g><g class="mark-group role-axis" role="graphics-symbol" aria-roledescription="axis" aria-label="Y-axis titled 'residuals' for a linear scale with values from −10 to 8"><g transform="translate(0.5,0.5)"><path class="background" aria-hidden="true" d="M0,0h0v0h0Z" pointer-events="none"/><g><g class="mark-rule role-axis-tick" pointer-events="none"><line transform="translate(0,400)" x2="-5" y2="0" stroke="#888" stroke-width="1" opacity="1"/><line transform="translate(0,356)" x2="-5" y2="0" stroke="#888" stroke-width="1" opacity="1"/><line transform="translate(0,311)" x2="-5" y2="0" stroke="#888" stroke-width="1" opacity="1"/><line transform="translate(0,267)" x2="-5" y2="0" stroke="#888" stroke-width="1" opacity="1"/><line transform="translate(0,222)" x2="-5" y2="0" stroke="#888" stroke-width="1" opacity="1"/><line transform="translate(0,178)" x2="-5" y2="0" stroke="#888" stroke-width="1" opacity="1"/><line transform="translate(0,133)" x2="-5" y2="0" stroke="#888" stroke-width="1" opacity="1"/><line transform="translate(0,89)" x2="-5" y2="0" stroke="#888" stroke-width="1" opacity="1"/><line transform="translate(0,44)" x2="-5" y2="0" stroke="#888" stroke-width="1" opacity="1"/><line transform="translate(0,0)" x2="-5" y2="0" stroke="#888" stroke-width="1" opacity="1"/></g><g class="mark-text role-axis-label" pointer-events="none"><text text-anchor="end" transform="translate(-7,403)" font-family="sans-serif" font-size="10px" fill="#000" opacity="1">−10</text><text text-anchor="end" transform="translate(-7,358.55555555555554)" font-family="sans-serif" font-size="10px" fill="#000" opacity="1">−8</text><text text-anchor="end" transform="translate(-7,314.11111111111114)" font-family="sans-serif" font-size="10px" fill="#000" opacity="1">−6</text><text text-anchor="end" transform="translate(-7,269.6666666666667)" font-family="sans-serif" font-size="10px" fill="#000" opacity="1">−4</text><text text-anchor="end" transform="translate(-7,225.22222222222223)" font-family="sans-serif" font-size="10px" fill="#000" opacity="1">−2</text><text text-anchor="end" transform="translate(-7,180.77777777777777)" font-family="sans-serif" font-size="10px" fill="#000" opacity="1">0</text><text text-anchor="end" transform="translate(-7,136.33333333333334)" font-family="sans-serif" font-size="10px" fill="#000" opacity="1">2</text><text text-anchor="end" transform="translate(-7,91.88888888888889)" font-family="sans-serif" font-size="10px" fill="#000" opacity="1">4</text><text text-anchor="end" transform="translate(-7,47.444444444444464)" font-family="sans-serif" font-size="10px" fill="#000" opacity="1">6</text><text text-anchor="end" transform="translate(-7,3)" font-family="sans-serif" font-size="10px" fill="#000" opacity="1">8</text></g><g class="mark-rule role-axis-domain" pointer-events="none"><line transform="translate(0,400)" x2="0" y2="-400" stroke="#888" stroke-width="1" opacity="1"/></g><g class="mark-text role-axis-title" pointer-events="none"><text text-anchor="middle" transform="translate(-29,200) rotate(-90) translate(0,-2)" font-family="sans-serif" font-size="11px" font-weight="bold" fill="#000" opacity="1">residuals</text></g></g><path class="foreground" aria-hidden="true" d="" pointer-events="none" display="none"/></g></g><g class="mark-symbol role-mark layer_0_marks" role="graphics-object" aria-roledescription="symbol mark container"><path aria-label="predicted: −14.3669629664; residuals: −2.29693622983" role="graphics-symbol" aria-roledescription="point" transform="translate(23.755358022384684,228.8208051074309)" d="M2.7386127875258306,0A2.7386127875258306,2.7386127875258306,0,1,1,-2.7386127875258306,0A2.7386127875258306,2.7386127875258306,0,1,1,2.7386127875258306,0" stroke="#4c78a8" stroke-width="2" opacity="0.7"/><path aria-label="predicted: −12.9815540775; residuals: −4.45662056799" role="graphics-symbol" aria-roledescription="point" transform="translate(24.678963948308503,276.81379039966754)" d="M2.7386127875258306,0A2.7386127875258306,2.7386127875258306,0,1,1,-2.7386127875258306,0A2.7386127875258306,2.7386127875258306,0,1,1,2.7386127875258306,0" stroke="#4c78a8" stroke-width="2" opacity="0.7"/><path aria-label="predicted: −11.7101439155; residuals: −1.56383176211" role="graphics-symbol" aria-roledescription="point" transform="translate(25.526570723016512,212.52959471350098)" d="M2.7386127875258306,0A2.7386127875258306,2.7386127875258306,0,1,1,-2.7386127875258306,0A2.7386127875258306,2.7386127875258306,0,1,1,2.7386127875258306,0" stroke="#4c78a8" stroke-width="2" opacity="0.7"/><path aria-label="predicted: −10.5467325472; residuals: −3.06257355166" role="graphics-symbol" aria-roledescription="point" transform="translate(26.30217830183586,245.83496781457387)" d="M2.7386127875258306,0A2.7386127875258306,2.7386127875258306,0,1,1,-2.7386127875258306,0A2.7386127875258306,2.7386127875258306,0,1,1,2.7386127875258306,0" stroke="#4c78a8" stroke-width="2" opacity="0.7"/><path aria-label="predicted: −9.48532003986; residuals: 3.52306853689" role="graphics-symbol" aria-roledescription="point" transform="translate(27.0097866400937,99.48736584679492)" d="M2.7386127875258306,0A2.7386127875258306,2.7386127875258306,0,1,1,-2.7386127875258306,0A2.7386127875258306,2.7386127875258306,0,1,1,2.7386127875258306,0" stroke="#4c78a8" stroke-width="2" opacity="0.7"/><path aria-label="predicted: −8.51990646032; residuals: 5.73020586414" role="graphics-symbol" aria-roledescription="point" transform="translate(27.653395693117183,50.439869685745634)" d="M2.7386127875258306,0A2.7386127875258306,2.7386127875258306,0,1,1,-2.7386127875258306,0A2.7386127875258306,2.7386127875258306,0,1,1,2.7386127875258306,0" stroke="#4c78a8" stroke-width="2" opacity="0.7"/><path aria-label="predicted: −7.64449187565; residuals: −0.398804094442" role="graphics-symbol" aria-roledescription="point" transform="translate(28.237005416233448,186.6400909876074)" d="M2.7386127875258306,0A2.7386127875258306,2.7386127875258306,0,1,1,-2.7386127875258306,0A2.7386127875258306,2.7386127875258306,0,1,1,2.7386127875258306,0" stroke="#4c78a8" stroke-width="2" opacity="0.7"/><path aria-label="predicted: −6.85307635285; residuals: −3.89178038233" role="graphics-symbol" aria-roledescription="point" transform="translate(28.76461576476964,264.26178627389663)" d="M2.7386127875258306,0A2.7386127875258306,2.7386127875258306,0,1,1,-2.7386127875258306,0A2.7386127875258306,2.7386127875258306,0,1,1,2.7386127875258306,0" stroke="#4c78a8" stroke-width="2" opacity="0.7"/><path aria-label="predicted: −6.13965995892; residuals: −3.27645446017" role="graphics-symbol" aria-roledescription="point" transform="translate(29.240226694052918,250.5878768927041)" d="M2.7386127875258306,0A2.7386127875258306,2.7386127875258306,0,1,1,-2.7386127875258306,0A2.7386127875258306,2.7386127875258306,0,1,1,2.7386127875258306,0" stroke="#4c78a8" stroke-width="2" opacity="0.7"/><path aria-label="predicted: −5.49824276088; residuals: −1.98808292085" role="graphics-symbol" aria-roledescription="point" transform="translate(29.66783815941042,221.95739824118527)" d="M2.7386127875258306,0A2.7386127875258306,2.7386127875258306,0,1,1,-2.7386127875258306,0A2.7386127875258306,2.7386127875258306,0,1,1,2.7386127875258306,0" stroke="#4c78a8" stroke-width="2" opacity="0.7"/><path aria-label="predicted: −4.92282482575; residuals: 6.79899888786" role="graphics-symbol" aria-roledescription="point" transform="translate(30.051450116169303,26.68891360320904)" d="M2.7386127875258306,0A2.7386127875258306,2.7386127875258306,0,1,1,-2.7386127875258306,0A2.7386127875258306,2.7386127875258306,0,1,1,2.7386127875258306,0" stroke="#4c78a8" stroke-width="2" opacity="0.7"/><path aria-label="predicted: −4.40740622051; residuals: 2.52456905763" role="graphics-symbol" aria-roledescription="point" transform="translate(30.3950625196567,121.6762431638442)" d="M2.7386127875258306,0A2.7386127875258306,2.7386127875258306,0,1,1,-2.7386127875258306,0A2.7386127875258306,2.7386127875258306,0,1,1,2.7386127875258306,0" stroke="#4c78a8" stroke-width="2" opacity="0.7"/><path aria-label="predicted: −3.9459870122; residuals: 0.0672476490088" role="graphics-symbol" aria-roledescription="point" transform="translate(30.70267532519978,176.28338557758286)" d="M2.7386127875258306,0A2.7386127875258306,2.7386127875258306,0,1,1,-2.7386127875258306,0A2.7386127875258306,2.7386127875258306,0,1,1,2.7386127875258306,0" stroke="#4c78a8" stroke-width="2" opacity="0.7"/><path aria-label="predicted: −3.53256726781; residuals: −8.02272622495" role="graphics-symbol" aria-roledescription="point" transform="translate(30.978288488125667,356.06058277676675)" d="M2.7386127875258306,0A2.7386127875258306,2.7386127875258306,0,1,1,-2.7386127875258306,0A2.7386127875258306,2.7386127875258306,0,1,1,2.7386127875258306,0" stroke="#4c78a8" stroke-width="2" opacity="0.7"/><path aria-label="predicted: −3.16114705436; residuals: −0.558831580533" role="graphics-symbol" aria-roledescription="point" transform="translate(31.225901963761526,190.1962573451825)" d="M2.7386127875258306,0A2.7386127875258306,2.7386127875258306,0,1,1,-2.7386127875258306,0A2.7386127875258306,2.7386127875258306,0,1,1,2.7386127875258306,0" stroke="#4c78a8" stroke-width="2" opacity="0.7"/><path aria-label="predicted: −2.82572643885; residuals: 0.211468610225" role="graphics-symbol" aria-roledescription="point" transform="translate(31.4495157074345,173.07847532833253)" d="M2.7386127875258306,0A2.7386127875258306,2.7386127875258306,0,1,1,-2.7386127875258306,0A2.7386127875258306,2.7386127875258306,0,1,1,2.7386127875258306,0" stroke="#4c78a8" stroke-width="2" opacity="0.7"/><path aria-label="predicted: −2.52030548829; residuals: 3.82439899216" role="graphics-symbol" aria-roledescription="point" transform="translate(31.65312967447173,92.7911335076347)" d="M2.7386127875258306,0A2.7386127875258306,2.7386127875258306,0,1,1,-2.7386127875258306,0A2.7386127875258306,2.7386127875258306,0,1,1,2.7386127875258306,0" stroke="#4c78a8" stroke-width="2" opacity="0.7"/><path aria-label="predicted: −2.2388842697; residuals: −2.68651362181" role="graphics-symbol" aria-roledescription="point" transform="translate(31.84074382020038,237.47808048460993)" d="M2.7386127875258306,0A2.7386127875258306,2.7386127875258306,0,1,1,-2.7386127875258306,0A2.7386127875258306,2.7386127875258306,0,1,1,2.7386127875258306,0" stroke="#4c78a8" stroke-width="2" opacity="0.7"/><path aria-label="predicted: −1.97546285008; residuals: 2.84591379352" role="graphics-symbol" aria-roledescription="point" transform="translate(32.01635809994758,114.53524903288965)" d="M2.7386127875258306,0A2.7386127875258306,2.7386127875258306,0,1,1,-2.7386127875258306,0A2.7386127875258306,2.7386127875258306,0,1,1,2.7386127875258306,0" stroke="#4c78a8" stroke-width="2" opacity="0.7"/><path aria-label="predicted: −1.72404129644; residuals: 0.44217387754" role="graphics-symbol" aria-roledescription="point" transform="translate(32.183972469040484,167.9516916102265)" d="M2.7386127875258306,0A2.7386127875258306,2.7386127875258306,0,1,1,-2.7386127875258306,0A2.7386127875258306,2.7386127875258306,0,1,1,2.7386127875258306,0" stroke="#4c78a8" stroke-width="2" opacity="0.7"/><path aria-label="predicted: −1.47861967579; residuals: 4.31726856044" role="graphics-symbol" aria-roledescription="point" transform="translate(32.34758688280624,81.83847643468081)" d="M2.7386127875258306,0A2.7386127875258306,2.7386127875258306,0,1,1,-2.7386127875258306,0A2.7386127875258306,2.7386127875258306,0,1,1,2.7386127875258306,0" stroke="#4c78a8" stroke-width="2" opacity="0.7"/><path aria-label="predicted: −1.23319805514; residuals: 2.2003581224" role="graphics-symbol" aria-roledescription="point" transform="translate(32.511201296572,128.88093061339939)" d="M2.7386127875258306,0A2.7386127875258306,2.7386127875258306,0,1,1,-2.7386127875258306,0A2.7386127875258306,2.7386127875258306,0,1,1,2.7386127875258306,0" stroke="#4c78a8" stroke-width="2" opacity="0.7"/><path aria-label="predicted: −0.981776501503; residuals: 1.25445538338" role="graphics-symbol" aria-roledescription="point" transform="translate(32.67881566566491,149.90099148043905)" d="M2.7386127875258306,0A2.7386127875258306,2.7386127875258306,0,1,1,-2.7386127875258306,0A2.7386127875258306,2.7386127875258306,0,1,1,2.7386127875258306,0" stroke="#4c78a8" stroke-width="2" opacity="0.7"/><path aria-label="predicted: −0.718355081882; residuals: 0.342157753865" role="graphics-symbol" aria-roledescription="point" transform="translate(32.8544299454121,170.17427213634386)" d="M2.7386127875258306,0A2.7386127875258306,2.7386127875258306,0,1,1,-2.7386127875258306,0A2.7386127875258306,2.7386127875258306,0,1,1,2.7386127875258306,0" stroke="#4c78a8" stroke-width="2" opacity="0.7"/><path aria-label="predicted: −0.436933863289; residuals: 0.444063536895" role="graphics-symbol" aria-roledescription="point" transform="translate(33.042044091140745,167.90969918011314)" d="M2.7386127875258306,0A2.7386127875258306,2.7386127875258306,0,1,1,-2.7386127875258306,0A2.7386127875258306,2.7386127875258306,0,1,1,2.7386127875258306,0" stroke="#4c78a8" stroke-width="2" opacity="0.7"/><path aria-label="predicted: −0.131512912733; residuals: −1.24893276109" role="graphics-symbol" aria-roledescription="point" transform="translate(33.24565805817798,205.53183913544063)" d="M2.7386127875258306,0A2.7386127875258306,2.7386127875258306,0,1,1,-2.7386127875258306,0A2.7386127875258306,2.7386127875258306,0,1,1,2.7386127875258306,0" stroke="#4c78a8" stroke-width="2" opacity="0.7"/><path aria-label="predicted: 0.203907702776; residuals: 3.25467159385" role="graphics-symbol" aria-roledescription="point" transform="translate(33.46927180185096,105.45174235878699)" d="M2.7386127875258306,0A2.7386127875258306,2.7386127875258306,0,1,1,-2.7386127875258306,0A2.7386127875258306,2.7386127875258306,0,1,1,2.7386127875258306,0" stroke="#4c78a8" stroke-width="2" opacity="0.7"/><path aria-label="predicted: 0.57532791623; residuals: −0.0420379224335" role="graphics-symbol" aria-roledescription="point" transform="translate(33.71688527748681,178.71195383185642)" d="M2.7386127875258306,0A2.7386127875258306,2.7386127875258306,0,1,1,-2.7386127875258306,0A2.7386127875258306,2.7386127875258306,0,1,1,2.7386127875258306,0" stroke="#4c78a8" stroke-width="2" opacity="0.7"/><path aria-label="predicted: 0.988747660619; residuals: 5.37838093535" role="graphics-symbol" aria-roledescription="point" transform="translate(33.9924984404127,58.2582014367659)" d="M2.7386127875258306,0A2.7386127875258306,2.7386127875258306,0,1,1,-2.7386127875258306,0A2.7386127875258306,2.7386127875258306,0,1,1,2.7386127875258306,0" stroke="#4c78a8" stroke-width="2" opacity="0.7"/><path aria-label="predicted: 1.45016686893; residuals: −0.453732009933" role="graphics-symbol" aria-roledescription="point" transform="translate(34.30011124595578,187.86071133184697)" d="M2.7386127875258306,0A2.7386127875258306,2.7386127875258306,0,1,1,-2.7386127875258306,0A2.7386127875258306,2.7386127875258306,0,1,1,2.7386127875258306,0" stroke="#4c78a8" stroke-width="2" opacity="0.7"/><path aria-label="predicted: 1.96558547416; residuals: 1.92440677621" role="graphics-symbol" aria-roledescription="point" transform="translate(34.64372364944318,135.01318275094386)" d="M2.7386127875258306,0A2.7386127875258306,2.7386127875258306,0,1,1,-2.7386127875258306,0A2.7386127875258306,2.7386127875258306,0,1,1,2.7386127875258306,0" stroke="#4c78a8" stroke-width="2" opacity="0.7"/><path aria-label="predicted: 2.5410034093; residuals: 2.06777585479" role="graphics-symbol" aria-roledescription="point" transform="translate(35.027335606202065,131.8272032269542)" d="M2.7386127875258306,0A2.7386127875258306,2.7386127875258306,0,1,1,-2.7386127875258306,0A2.7386127875258306,2.7386127875258306,0,1,1,2.7386127875258306,0" stroke="#4c78a8" stroke-width="2" opacity="0.7"/><path aria-label="predicted: 3.18242060734; residuals: 2.68858348311" role="graphics-symbol" aria-roledescription="point" transform="translate(35.45494707155956,118.03147815302447)" d="M2.7386127875258306,0A2.7386127875258306,2.7386127875258306,0,1,1,-2.7386127875258306,0A2.7386127875258306,2.7386127875258306,0,1,1,2.7386127875258306,0" stroke="#4c78a8" stroke-width="2" opacity="0.7"/><path aria-label="predicted: 3.89583700126; residuals: 3.73985759643" role="graphics-symbol" aria-roledescription="point" transform="translate(35.930558000842844,94.66983119054872)" d="M2.7386127875258306,0A2.7386127875258306,2.7386127875258306,0,1,1,-2.7386127875258306,0A2.7386127875258306,2.7386127875258306,0,1,1,2.7386127875258306,0" stroke="#4c78a8" stroke-width="2" opacity="0.7"/><path aria-label="predicted: 4.68725252407; residuals: −5.2965503151" role="graphics-symbol" aria-roledescription="point" transform="translate(36.45816834937904,295.47889589121087)" d="M2.7386127875258306,0A2.7386127875258306,2.7386127875258306,0,1,1,-2.7386127875258306,0A2.7386127875258306,2.7386127875258306,0,1,1,2.7386127875258306,0" stroke="#4c78a8" stroke-width="2" opacity="0.7"/><path aria-label="predicted: 5.56266710874; residuals: −2.02250145412" role="graphics-symbol" aria-roledescription="point" transform="translate(37.041778072495305,222.72225453589124)" d="M2.7386127875258306,0A2.7386127875258306,2.7386127875258306,0,1,1,-2.7386127875258306,0A2.7386127875258306,2.7386127875258306,0,1,1,2.7386127875258306,0" stroke="#4c78a8" stroke-width="2" opacity="0.7"/><path aria-label="predicted: 6.52808068828; residuals: −3.62851409094" role="graphics-symbol" aria-roledescription="point" transform="translate(37.68538712551878,258.41142424300784)" d="M2.7386127875258306,0A2.7386127875258306,2.7386127875258306,0,1,1,-2.7386127875258306,0A2.7386127875258306,2.7386127875258306,0,1,1,2.7386127875258306,0" stroke="#4c78a8" stroke-width="2" opacity="0.7"/><path aria-label="predicted: 7.58949319566; residuals: −2.81117099393" role="graphics-symbol" aria-roledescription="point" transform="translate(38.39299546377662,240.24824430944935)" d="M2.7386127875258306,0A2.7386127875258306,2.7386127875258306,0,1,1,-2.7386127875258306,0A2.7386127875258306,2.7386127875258306,0,1,1,2.7386127875258306,0" stroke="#4c78a8" stroke-width="2" opacity="0.7"/><path aria-label="predicted: 8.75290456389; residuals: 0.14045742346" role="graphics-symbol" aria-roledescription="point" transform="translate(39.168603042595976,174.65650170088867)" d="M2.7386127875258306,0A2.7386127875258306,2.7386127875258306,0,1,1,-2.7386127875258306,0A2.7386127875258306,2.7386127875258306,0,1,1,2.7386127875258306,0" stroke="#4c78a8" stroke-width="2" opacity="0.7"/><path aria-label="predicted: 10.024314726; residuals: −3.5331857149" role="graphics-symbol" aria-roledescription="point" transform="translate(40.016209817303974,256.2930158866007)" d="M2.7386127875258306,0A2.7386127875258306,2.7386127875258306,0,1,1,-2.7386127875258306,0A2.7386127875258306,2.7386127875258306,0,1,1,2.7386127875258306,0" stroke="#4c78a8" stroke-width="2" opacity="0.7"/><path aria-label="predicted: 11.4097236148; residuals: 1.83054201676" role="graphics-symbol" aria-roledescription="point" transform="translate(40.9398157432278,137.09906629424168)" d="M2.7386127875258306,0A2.7386127875258306,2.7386127875258306,0,1,1,-2.7386127875258306,0A2.7386127875258306,2.7386127875258306,0,1,1,2.7386127875258306,0" stroke="#4c78a8" stroke-width="2" opacity="0.7"/><path aria-label="predicted: 12.9151311635; residuals: 2.58021824715" role="graphics-symbol" aria-roledescription="point" transform="translate(41.94342077569456,120.43959450767612)" d="M2.7386127875258306,0A2.7386127875258306,2.7386127875258306,0,1,1,-2.7386127875258306,0A2.7386127875258306,2.7386127875258306,0,1,1,2.7386127875258306,0" stroke="#4c78a8" stroke-width="2" opacity="0.7"/><path aria-label="predicted: 14.546537305; residuals: −5.08489292389" role="graphics-symbol" aria-roledescription="point" transform="translate(43.03102487003144,290.775398308668)" d="M2.7386127875258306,0A2.7386127875258306,2.7386127875258306,0,1,1,-2.7386127875258306,0A2.7386127875258306,2.7386127875258306,0,1,1,2.7386127875258306,0" stroke="#4c78a8" stroke-width="2" opacity="0.7"/><path aria-label="predicted: 16.3099419723; residuals: −0.60609089088" role="graphics-symbol" aria-roledescription="point" transform="translate(44.206627981565546,191.24646424178405)" d="M2.7386127875258306,0A2.7386127875258306,2.7386127875258306,0,1,1,-2.7386127875258306,0A2.7386127875258306,2.7386127875258306,0,1,1,2.7386127875258306,0" stroke="#4c78a8" stroke-width="2" opacity="0.7"/><path aria-label="predicted: 18.2113450984; residuals: −1.04535768413" role="graphics-symbol" aria-roledescription="point" transform="translate(45.47423006562406,201.00794853619064)" d="M2.7386127875258306,0A2.7386127875258306,2.7386127875258306,0,1,1,-2.7386127875258306,0A2.7386127875258306,2.7386127875258306,0,1,1,2.7386127875258306,0" stroke="#4c78a8" stroke-width="2" opacity="0.7"/><path aria-label="predicted: 20.2567466163; residuals: 3.73360428255" role="graphics-symbol" aria-roledescription="point" transform="translate(46.83783107753413,94.8087937210829)" d="M2.7386127875258306,0A2.7386127875258306,2.7386127875258306,0,1,1,-2.7386127875258306,0A2.7386127875258306,2.7386127875258306,0,1,1,2.7386127875258306,0" stroke="#4c78a8" stroke-width="2" opacity="0.7"/><path aria-label="predicted: 22.4521464589; residuals: 1.91397364681" role="graphics-symbol" aria-roledescription="point" transform="translate(48.30143097262288,135.24503007093767)" d="M2.7386127875258306,0A2.7386127875258306,2.7386127875258306,0,1,1,-2.7386127875258306,0A2.7386127875258306,2.7386127875258306,0,1,1,2.7386127875258306,0" stroke="#4c78a8" stroke-width="2" opacity="0.7"/><path aria-label="predicted: 24.8035445593; residuals: −1.834924206" role="graphics-symbol" aria-roledescription="point" transform="translate(49.869029706217475,218.55387124435018)" d="M2.7386127875258306,0A2.7386127875258306,2.7386127875258306,0,1,1,-2.7386127875258306,0A2.7386127875258306,2.7386127875258306,0,1,1,2.7386127875258306,0" stroke="#4c78a8" stroke-width="2" opacity="0.7"/><path aria-label="predicted: 27.3169408505; residuals: 2.49676958798" role="graphics-symbol" aria-roledescription="point" transform="translate(51.544627233645045,122.29400915610182)" d="M2.7386127875258306,0A2.7386127875258306,2.7386127875258306,0,1,1,-2.7386127875258306,0A2.7386127875258306,2.7386127875258306,0,1,1,2.7386127875258306,0" stroke="#4c78a8" stroke-width="2" opacity="0.7"/><path aria-label="predicted: 29.9983352653; residuals: 0.314680784843" role="graphics-symbol" aria-roledescription="point" transform="translate(53.33222351023276,170.78487144792422)" d="M2.7386127875258306,0A2.7386127875258306,2.7386127875258306,0,1,1,-2.7386127875258306,0A2.7386127875258306,2.7386127875258306,0,1,1,2.7386127875258306,0" stroke="#4c78a8" stroke-width="2" opacity="0.7"/><path aria-label="predicted: 32.853727737; residuals: 1.1354399165" role="graphics-symbol" aria-roledescription="point" transform="translate(55.235818491307754,152.5457796333345)" d="M2.7386127875258306,0A2.7386127875258306,2.7386127875258306,0,1,1,-2.7386127875258306,0A2.7386127875258306,2.7386127875258306,0,1,1,2.7386127875258306,0" stroke="#4c78a8" stroke-width="2" opacity="0.7"/><path aria-label="predicted: 35.8891181983; residuals: −2.70347693498" role="graphics-symbol" aria-roledescription="point" transform="translate(57.259412132197184,237.85504299961798)" d="M2.7386127875258306,0A2.7386127875258306,2.7386127875258306,0,1,1,-2.7386127875258306,0A2.7386127875258306,2.7386127875258306,0,1,1,2.7386127875258306,0" stroke="#4c78a8" stroke-width="2" opacity="0.7"/><path aria-label="predicted: 39.1105065823; residuals: 0.0145809585532" role="graphics-symbol" aria-roledescription="point" transform="translate(59.40700438822819,177.45375647659483)" d="M2.7386127875258306,0A2.7386127875258306,2.7386127875258306,0,1,1,-2.7386127875258306,0A2.7386127875258306,2.7386127875258306,0,1,1,2.7386127875258306,0" stroke="#4c78a8" stroke-width="2" opacity="0.7"/><path aria-label="predicted: 42.5238928221; residuals: −3.21185315812" role="graphics-symbol" aria-roledescription="point" transform="translate(61.68259521472791,249.15229240276108)" d="M2.7386127875258306,0A2.7386127875258306,2.7386127875258306,0,1,1,-2.7386127875258306,0A2.7386127875258306,2.7386127875258306,0,1,1,2.7386127875258306,0" stroke="#4c78a8" stroke-width="2" opacity="0.7"/><path aria-label="predicted: 46.1352768505; residuals: −2.58216877168" role="graphics-symbol" aria-roledescription="point" transform="translate(64.09018456702351,235.1593060372257)" d="M2.7386127875258306,0A2.7386127875258306,2.7386127875258306,0,1,1,-2.7386127875258306,0A2.7386127875258306,2.7386127875258306,0,1,1,2.7386127875258306,0" stroke="#4c78a8" stroke-width="2" opacity="0.7"/><path aria-label="predicted: 49.9506586007; residuals: −2.63790365595" role="graphics-symbol" aria-roledescription="point" transform="translate(66.63377240044214,236.39785902117393)" d="M2.7386127875258306,0A2.7386127875258306,2.7386127875258306,0,1,1,-2.7386127875258306,0A2.7386127875258306,2.7386127875258306,0,1,1,2.7386127875258306,0" stroke="#4c78a8" stroke-width="2" opacity="0.7"/><path aria-label="predicted: 53.9760380055; residuals: 1.22572939615" role="graphics-symbol" aria-roledescription="point" transform="translate(69.31735867031094,150.5393467521933)" d="M2.7386127875258306,0A2.7386127875258306,2.7386127875258306,0,1,1,-2.7386127875258306,0A2.7386127875258306,2.7386127875258306,0,1,1,2.7386127875258306,0" stroke="#4c78a8" stroke-width="2" opacity="0.7"/><path aria-label="predicted: 58.2174149979; residuals: −2.53826982736" role="graphics-symbol" aria-roledescription="point" transform="translate(72.14494333195705,234.18377394135143)" d="M2.7386127875258306,0A2.7386127875258306,2.7386127875258306,0,1,1,-2.7386127875258306,0A2.7386127875258306,2.7386127875258306,0,1,1,2.7386127875258306,0" stroke="#4c78a8" stroke-width="2" opacity="0.7"/><path aria-label="predicted: 62.6807895111; residuals: −3.19851343926" role="graphics-symbol" aria-roledescription="point" transform="translate(75.12052634070761,248.85585420583394)" d="M2.7386127875258306,0A2.7386127875258306,2.7386127875258306,0,1,1,-2.7386127875258306,0A2.7386127875258306,2.7386127875258306,0,1,1,2.7386127875258306,0" stroke="#4c78a8" stroke-width="2" opacity="0.7"/><path aria-label="predicted: 67.3721614778; residuals: 4.20746866798" role="graphics-symbol" aria-roledescription="point" transform="translate(78.24810765188978,84.27847404481446)" d="M2.7386127875258306,0A2.7386127875258306,2.7386127875258306,0,1,1,-2.7386127875258306,0A2.7386127875258306,2.7386127875258306,0,1,1,2.7386127875258306,0" stroke="#4c78a8" stroke-width="2" opacity="0.7"/><path aria-label="predicted: 72.2975308312; residuals: −1.08685098951" role="graphics-symbol" aria-roledescription="point" transform="translate(81.53168722083073,201.93002198903653)" d="M2.7386127875258306,0A2.7386127875258306,2.7386127875258306,0,1,1,-2.7386127875258306,0A2.7386127875258306,2.7386127875258306,0,1,1,2.7386127875258306,0" stroke="#4c78a8" stroke-width="2" opacity="0.7"/><path aria-label="predicted: 77.4628975043; residuals: 0.168623803449" role="graphics-symbol" aria-roledescription="point" transform="translate(84.97526500285758,174.0305821455804)" d="M2.7386127875258306,0A2.7386127875258306,2.7386127875258306,0,1,1,-2.7386127875258306,0A2.7386127875258306,2.7386127875258306,0,1,1,2.7386127875258306,0" stroke="#4c78a8" stroke-width="2" opacity="0.7"/><path aria-label="predicted: 82.8742614299; residuals: −0.0442030375878" role="graphics-symbol" aria-roledescription="point" transform="translate(88.58284095329749,178.7600675019503)" d="M2.7386127875258306,0A2.7386127875258306,2.7386127875258306,0,1,1,-2.7386127875258306,0A2.7386127875258306,2.7386127875258306,0,1,1,2.7386127875258306,0" stroke="#4c78a8" stroke-width="2" opacity="0.7"/><path aria-label="predicted: 88.5376225412; residuals: −1.15554262064" role="graphics-symbol" aria-roledescription="point" transform="translate(92.35841502747758,203.4565026809487)" d="M2.7386127875258306,0A2.7386127875258306,2.7386127875258306,0,1,1,-2.7386127875258306,0A2.7386127875258306,2.7386127875258306,0,1,1,2.7386127875258306,0" stroke="#4c78a8" stroke-width="2" opacity="0.7"/><path aria-label="predicted: 94.4589807711; residuals: −1.33125001388" role="graphics-symbol" aria-roledescription="point" transform="translate(96.30598718072508,207.36111141965682)" d="M2.7386127875258306,0A2.7386127875258306,2.7386127875258306,0,1,1,-2.7386127875258306,0A2.7386127875258306,2.7386127875258306,0,1,1,2.7386127875258306,0" stroke="#4c78a8" stroke-width="2" opacity="0.7"/><path aria-label="predicted: 100.644336053; residuals: −1.3038527648" role="graphics-symbol" aria-roledescription="point" transform="translate(100.429557368367,206.75228366232136)" d="M2.7386127875258306,0A2.7386127875258306,2.7386127875258306,0,1,1,-2.7386127875258306,0A2.7386127875258306,2.7386127875258306,0,1,1,2.7386127875258306,0" stroke="#4c78a8" stroke-width="2" opacity="0.7"/><path aria-label="predicted: 107.099688319; residuals: −1.59577591283" role="graphics-symbol" aria-roledescription="point" transform="translate(104.7331255457306,213.23946472950297)" d="M2.7386127875258306,0A2.7386127875258306,2.7386127875258306,0,1,1,-2.7386127875258306,0A2.7386127875258306,2.7386127875258306,0,1,1,2.7386127875258306,0" stroke="#4c78a8" stroke-width="2" opacity="0.7"/><path aria-label="predicted: 113.831037502; residuals: 1.5384833635" role="graphics-symbol" aria-roledescription="point" transform="translate(109.220691668143,143.58925858896674)" d="M2.7386127875258306,0A2.7386127875258306,2.7386127875258306,0,1,1,-2.7386127875258306,0A2.7386127875258306,2.7386127875258306,0,1,1,2.7386127875258306,0" stroke="#4c78a8" stroke-width="2" opacity="0.7"/><path aria-label="predicted: 120.844383536; residuals: 0.634000975224" role="graphics-symbol" aria-roledescription="point" transform="translate(113.89625569093134,163.6888672172486)" d="M2.7386127875258306,0A2.7386127875258306,2.7386127875258306,0,1,1,-2.7386127875258306,0A2.7386127875258306,2.7386127875258306,0,1,1,2.7386127875258306,0" stroke="#4c78a8" stroke-width="2" opacity="0.7"/><path aria-label="predicted: 128.145726354; residuals: 6.08148419936" role="graphics-symbol" aria-roledescription="point" transform="translate(118.76381756942278,42.63368445868929)" d="M2.7386127875258306,0A2.7386127875258306,2.7386127875258306,0,1,1,-2.7386127875258306,0A2.7386127875258306,2.7386127875258306,0,1,1,2.7386127875258306,0" stroke="#4c78a8" stroke-width="2" opacity="0.7"/><path aria-label="predicted: 135.741065888; residuals: −4.90085951674" role="graphics-symbol" aria-roledescription="point" transform="translate(123.82737725894441,286.6857670386663)" d="M2.7386127875258306,0A2.7386127875258306,2.7386127875258306,0,1,1,-2.7386127875258306,0A2.7386127875258306,2.7386127875258306,0,1,1,2.7386127875258306,0" stroke="#4c78a8" stroke-width="2" opacity="0.7"/><path aria-label="predicted: 143.636402072; residuals: −3.76010475485" role="graphics-symbol" aria-roledescription="point" transform="translate(129.09093471482345,261.3356612188416)" d="M2.7386127875258306,0A2.7386127875258306,2.7386127875258306,0,1,1,-2.7386127875258306,0A2.7386127875258306,2.7386127875258306,0,1,1,2.7386127875258306,0" stroke="#4c78a8" stroke-width="2" opacity="0.7"/><path aria-label="predicted: 151.837734839; residuals: 2.63483597451" role="graphics-symbol" aria-roledescription="point" transform="translate(134.55848989238703,119.22586723312003)" d="M2.7386127875258306,0A2.7386127875258306,2.7386127875258306,0,1,1,-2.7386127875258306,0A2.7386127875258306,2.7386127875258306,0,1,1,2.7386127875258306,0" stroke="#4c78a8" stroke-width="2" opacity="0.7"/><path aria-label="predicted: 160.35106412; residuals: 1.52040003174" role="graphics-symbol" aria-roledescription="point" transform="translate(140.23404274696227,143.99111040568187)" d="M2.7386127875258306,0A2.7386127875258306,2.7386127875258306,0,1,1,-2.7386127875258306,0A2.7386127875258306,2.7386127875258306,0,1,1,2.7386127875258306,0" stroke="#4c78a8" stroke-width="2" opacity="0.7"/><path aria-label="predicted: 169.182389851; residuals: −2.64225676686" role="graphics-symbol" aria-roledescription="point" transform="translate(146.12159323387635,236.4945948190805)" d="M2.7386127875258306,0A2.7386127875258306,2.7386127875258306,0,1,1,-2.7386127875258306,0A2.7386127875258306,2.7386127875258306,0,1,1,2.7386127875258306,0" stroke="#4c78a8" stroke-width="2" opacity="0.7"/><path aria-label="predicted: 178.337711963; residuals: 7.0371211463" role="graphics-symbol" aria-roledescription="point" transform="translate(152.22514130845641,21.39730786005569)" d="M2.7386127875258306,0A2.7386127875258306,2.7386127875258306,0,1,1,-2.7386127875258306,0A2.7386127875258306,2.7386127875258306,0,1,1,2.7386127875258306,0" stroke="#4c78a8" stroke-width="2" opacity="0.7"/><path aria-label="predicted: 187.823030389; residuals: 1.13788228352" role="graphics-symbol" aria-roledescription="point" transform="translate(158.54868692602955,152.49150481068216)" d="M2.7386127875258306,0A2.7386127875258306,2.7386127875258306,0,1,1,-2.7386127875258306,0A2.7386127875258306,2.7386127875258306,0,1,1,2.7386127875258306,0" stroke="#4c78a8" stroke-width="2" opacity="0.7"/><path aria-label="predicted: 197.644345063; residuals: 2.41175133501" role="graphics-symbol" aria-roledescription="point" transform="translate(165.09623004192304,124.18330366641737)" d="M2.7386127875258306,0A2.7386127875258306,2.7386127875258306,0,1,1,-2.7386127875258306,0A2.7386127875258306,2.7386127875258306,0,1,1,2.7386127875258306,0" stroke="#4c78a8" stroke-width="2" opacity="0.7"/><path aria-label="predicted: 207.807655917; residuals: 4.69253876585" role="graphics-symbol" aria-roledescription="point" transform="translate(171.87177061146386,73.49913853667607)" d="M2.7386127875258306,0A2.7386127875258306,2.7386127875258306,0,1,1,-2.7386127875258306,0A2.7386127875258306,2.7386127875258306,0,1,1,2.7386127875258306,0" stroke="#4c78a8" stroke-width="2" opacity="0.7"/><path aria-label="predicted: 218.318962885; residuals: 0.32255559119" role="graphics-symbol" aria-roledescription="point" transform="translate(178.8793085899793,170.60987575132648)" d="M2.7386127875258306,0A2.7386127875258306,2.7386127875258306,0,1,1,-2.7386127875258306,0A2.7386127875258306,2.7386127875258306,0,1,1,2.7386127875258306,0" stroke="#4c78a8" stroke-width="2" opacity="0.7"/><path aria-label="predicted: 229.184265899; residuals: 2.34353199396" role="graphics-symbol" aria-roledescription="point" transform="translate(186.12284393279643,125.69928902319134)" d="M2.7386127875258306,0A2.7386127875258306,2.7386127875258306,0,1,1,-2.7386127875258306,0A2.7386127875258306,2.7386127875258306,0,1,1,2.7386127875258306,0" stroke="#4c78a8" stroke-width="2" opacity="0.7"/><path aria-label="predicted: 240.409564893; residuals: 1.56522270809" role="graphics-symbol" aria-roledescription="point" transform="translate(193.6063765952424,142.9950509313446)" d="M2.7386127875258306,0A2.7386127875258306,2.7386127875258306,0,1,1,-2.7386127875258306,0A2.7386127875258306,2.7386127875258306,0,1,1,2.7386127875258306,0" stroke="#4c78a8" stroke-width="2" opacity="0.7"/><path aria-label="predicted: 252.000859799; residuals: −4.04871814978" role="graphics-symbol" aria-roledescription="point" transform="translate(201.3339065326445,267.7492922173144)" d="M2.7386127875258306,0A2.7386127875258306,2.7386127875258306,0,1,1,-2.7386127875258306,0A2.7386127875258306,2.7386127875258306,0,1,1,2.7386127875258306,0" stroke="#4c78a8" stroke-width="2" opacity="0.7"/><path aria-label="predicted: 263.96415055; residuals: 0.408889215647" role="graphics-symbol" aria-roledescription="point" transform="translate(209.3094337003296,168.6913507633891)" d="M2.7386127875258306,0A2.7386127875258306,2.7386127875258306,0,1,1,-2.7386127875258306,0A2.7386127875258306,2.7386127875258306,0,1,1,2.7386127875258306,0" stroke="#4c78a8" stroke-width="2" opacity="0.7"/><path aria-label="predicted: 276.30543708; residuals: −2.70040234441" role="graphics-symbol" aria-roledescription="point" transform="translate(217.53695805362514,237.78671876470096)" d="M2.7386127875258306,0A2.7386127875258306,2.7386127875258306,0,1,1,-2.7386127875258306,0A2.7386127875258306,2.7386127875258306,0,1,1,2.7386127875258306,0" stroke="#4c78a8" stroke-width="2" opacity="0.7"/><path aria-label="predicted: 289.030719322; residuals: −3.91301155439" role="graphics-symbol" aria-roledescription="point" transform="translate(226.02047954785803,264.733590097564)" d="M2.7386127875258306,0A2.7386127875258306,2.7386127875258306,0,1,1,-2.7386127875258306,0A2.7386127875258306,2.7386127875258306,0,1,1,2.7386127875258306,0" stroke="#4c78a8" stroke-width="2" opacity="0.7"/><path aria-label="predicted: 302.145997208; residuals: 4.01758125442" role="graphics-symbol" aria-roledescription="point" transform="translate(234.76399813835548,88.49819434616518)" d="M2.7386127875258306,0A2.7386127875258306,2.7386127875258306,0,1,1,-2.7386127875258306,0A2.7386127875258306,2.7386127875258306,0,1,1,2.7386127875258306,0" stroke="#4c78a8" stroke-width="2" opacity="0.7"/><path aria-label="predicted: 315.657270671; residuals: 0.50894100949" role="graphics-symbol" aria-roledescription="point" transform="translate(243.77151378044482,166.46797756689895)" d="M2.7386127875258306,0A2.7386127875258306,2.7386127875258306,0,1,1,-2.7386127875258306,0A2.7386127875258306,2.7386127875258306,0,1,1,2.7386127875258306,0" stroke="#4c78a8" stroke-width="2" opacity="0.7"/><path aria-label="predicted: 329.570539644; residuals: −1.35929216935" role="graphics-symbol" aria-roledescription="point" transform="translate(253.04702642945293,207.9842704299444)" d="M2.7386127875258306,0A2.7386127875258306,2.7386127875258306,0,1,1,-2.7386127875258306,0A2.7386127875258306,2.7386127875258306,0,1,1,2.7386127875258306,0" stroke="#4c78a8" stroke-width="2" opacity="0.7"/><path aria-label="predicted: 343.891804061; residuals: −1.0997430209" role="graphics-symbol" aria-roledescription="point" transform="translate(262.5945360407072,202.21651157566183)" d="M2.7386127875258306,0A2.7386127875258306,2.7386127875258306,0,1,1,-2.7386127875258306,0A2.7386127875258306,2.7386127875258306,0,1,1,2.7386127875258306,0" stroke="#4c78a8" stroke-width="2" opacity="0.7"/><path aria-label="predicted: 358.627063854; residuals: −0.338662745765" role="graphics-symbol" aria-roledescription="point" transform="translate(272.41804256953446,185.30361657254844)" d="M2.7386127875258306,0A2.7386127875258306,2.7386127875258306,0,1,1,-2.7386127875258306,0A2.7386127875258306,2.7386127875258306,0,1,1,2.7386127875258306,0" stroke="#4c78a8" stroke-width="2" opacity="0.7"/><path aria-label="predicted: 373.782318957; residuals: −1.18484048889" role="graphics-symbol" aria-roledescription="point" transform="translate(282.52154597126224,204.10756641973143)" d="M2.7386127875258306,0A2.7386127875258306,2.7386127875258306,0,1,1,-2.7386127875258306,0A2.7386127875258306,2.7386127875258306,0,1,1,2.7386127875258306,0" stroke="#4c78a8" stroke-width="2" opacity="0.7"/><path aria-label="predicted: 389.363569302; residuals: −0.884215577483" role="graphics-symbol" aria-roledescription="point" transform="translate(292.9090462012175,197.42701283294966)" d="M2.7386127875258306,0A2.7386127875258306,2.7386127875258306,0,1,1,-2.7386127875258306,0A2.7386127875258306,2.7386127875258306,0,1,1,2.7386127875258306,0" stroke="#4c78a8" stroke-width="2" opacity="0.7"/><path aria-label="predicted: 405.376814822; residuals: −1.62818355578" role="graphics-symbol" aria-roledescription="point" transform="translate(303.5845432147273,213.95963457292737)" d="M2.7386127875258306,0A2.7386127875258306,2.7386127875258306,0,1,1,-2.7386127875258306,0A2.7386127875258306,2.7386127875258306,0,1,1,2.7386127875258306,0" stroke="#4c78a8" stroke-width="2" opacity="0.7"/><path aria-label="predicted: 421.828055451; residuals: 1.08526257734" role="graphics-symbol" aria-roledescription="point" transform="translate(314.55203696711897,153.66083161462586)" d="M2.7386127875258306,0A2.7386127875258306,2.7386127875258306,0,1,1,-2.7386127875258306,0A2.7386127875258306,2.7386127875258306,0,1,1,2.7386127875258306,0" stroke="#4c78a8" stroke-width="2" opacity="0.7"/><path aria-label="predicted: 438.723291121; residuals: −2.55355106548" role="graphics-symbol" aria-roledescription="point" transform="translate(325.8155274137195,234.52335701061378)" d="M2.7386127875258306,0A2.7386127875258306,2.7386127875258306,0,1,1,-2.7386127875258306,0A2.7386127875258306,2.7386127875258306,0,1,1,2.7386127875258306,0" stroke="#4c78a8" stroke-width="2" opacity="0.7"/><path aria-label="predicted: 456.068521765; residuals: 2.21208432888" role="graphics-symbol" aria-roledescription="point" transform="translate(337.37901450985606,128.62034824704426)" d="M2.7386127875258306,0A2.7386127875258306,2.7386127875258306,0,1,1,-2.7386127875258306,0A2.7386127875258306,2.7386127875258306,0,1,1,2.7386127875258306,0" stroke="#4c78a8" stroke-width="2" opacity="0.7"/><path aria-label="predicted: 473.869747316; residuals: −0.287749666884" role="graphics-symbol" aria-roledescription="point" transform="translate(349.24649821085603,184.17221481964563)" d="M2.7386127875258306,0A2.7386127875258306,2.7386127875258306,0,1,1,-2.7386127875258306,0A2.7386127875258306,2.7386127875258306,0,1,1,2.7386127875258306,0" stroke="#4c78a8" stroke-width="2" opacity="0.7"/><path aria-label="predicted: 492.132967708; residuals: −0.938502054399" role="graphics-symbol" aria-roledescription="point" transform="translate(361.4219784720461,198.63337898665225)" d="M2.7386127875258306,0A2.7386127875258306,2.7386127875258306,0,1,1,-2.7386127875258306,0A2.7386127875258306,2.7386127875258306,0,1,1,2.7386127875258306,0" stroke="#4c78a8" stroke-width="2" opacity="0.7"/><path aria-label="predicted: 510.864182873; residuals: −2.05598349201" role="graphics-symbol" aria-roledescription="point" transform="translate(373.9094552487539,223.46629982243434)" d="M2.7386127875258306,0A2.7386127875258306,2.7386127875258306,0,1,1,-2.7386127875258306,0A2.7386127875258306,2.7386127875258306,0,1,1,2.7386127875258306,0" stroke="#4c78a8" stroke-width="2" opacity="0.7"/><path aria-label="predicted: 530.069392744; residuals: 4.00210406268" role="graphics-symbol" aria-roledescription="point" transform="translate(386.7129284963063,88.84213194038591)" d="M2.7386127875258306,0A2.7386127875258306,2.7386127875258306,0,1,1,-2.7386127875258306,0A2.7386127875258306,2.7386127875258306,0,1,1,2.7386127875258306,0" stroke="#4c78a8" stroke-width="2" opacity="0.7"/></g><g class="mark-rule role-mark layer_1_marks" role="graphics-symbol" aria-roledescription="rule mark container"><line transform="translate(400,177.77777777777777)" x2="-400" y2="0" stroke="darkgrey"/><line transform="translate(400,177.77777777777777)" x2="-400" y2="0" stroke="darkgrey"/><line transform="translate(400,177.77777777777777)" x2="-400" y2="0" stroke="darkgrey"/><line transform="translate(400,177.77777777777777)" x2="-400" y2="0" stroke="darkgrey"/><line transform="translate(400,177.77777777777777)" x2="-400" y2="0" stroke="darkgrey"/><line transform="translate(400,177.77777777777777)" x2="-400" y2="0" stroke="darkgrey"/><line transform="translate(400,177.77777777777777)" x2="-400" y2="0" stroke="darkgrey"/><line transform="translate(400,177.77777777777777)" x2="-400" y2="0" stroke="darkgrey"/><line transform="translate(400,177.77777777777777)" x2="-400" y2="0" stroke="darkgrey"/><line transform="translate(400,177.77777777777777)" x2="-400" y2="0" stroke="darkgrey"/><line transform="translate(400,177.77777777777777)" x2="-400" y2="0" stroke="darkgrey"/><line transform="translate(400,177.77777777777777)" x2="-400" y2="0" stroke="darkgrey"/><line transform="translate(400,177.77777777777777)" x2="-400" y2="0" stroke="darkgrey"/><line transform="translate(400,177.77777777777777)" x2="-400" y2="0" stroke="darkgrey"/><line transform="translate(400,177.77777777777777)" x2="-400" y2="0" stroke="darkgrey"/><line transform="translate(400,177.77777777777777)" x2="-400" y2="0" stroke="darkgrey"/><line transform="translate(400,177.77777777777777)" x2="-400" y2="0" stroke="darkgrey"/><line transform="translate(400,177.77777777777777)" x2="-400" y2="0" stroke="darkgrey"/><line transform="translate(400,177.77777777777777)" x2="-400" y2="0" stroke="darkgrey"/><line transform="translate(400,177.77777777777777)" x2="-400" y2="0" stroke="darkgrey"/><line transform="translate(400,177.77777777777777)" x2="-400" y2="0" stroke="darkgrey"/><line transform="translate(400,177.77777777777777)" x2="-400" y2="0" stroke="darkgrey"/><line transform="translate(400,177.77777777777777)" x2="-400" y2="0" stroke="darkgrey"/><line transform="translate(400,177.77777777777777)" x2="-400" y2="0" stroke="darkgrey"/><line transform="translate(400,177.77777777777777)" x2="-400" y2="0" stroke="darkgrey"/><line transform="translate(400,177.77777777777777)" x2="-400" y2="0" stroke="darkgrey"/><line transform="translate(400,177.77777777777777)" x2="-400" y2="0" stroke="darkgrey"/><line transform="translate(400,177.77777777777777)" x2="-400" y2="0" stroke="darkgrey"/><line transform="translate(400,177.77777777777777)" x2="-400" y2="0" stroke="darkgrey"/><line transform="translate(400,177.77777777777777)" x2="-400" y2="0" stroke="darkgrey"/><line transform="translate(400,177.77777777777777)" x2="-400" y2="0" stroke="darkgrey"/><line transform="translate(400,177.77777777777777)" x2="-400" y2="0" stroke="darkgrey"/><line transform="translate(400,177.77777777777777)" x2="-400" y2="0" stroke="darkgrey"/><line transform="translate(400,177.77777777777777)" x2="-400" y2="0" stroke="darkgrey"/><line transform="translate(400,177.77777777777777)" x2="-400" y2="0" stroke="darkgrey"/><line transform="translate(400,177.77777777777777)" x2="-400" y2="0" stroke="darkgrey"/><line transform="translate(400,177.77777777777777)" x2="-400" y2="0" stroke="darkgrey"/><line transform="translate(400,177.77777777777777)" x2="-400" y2="0" stroke="darkgrey"/><line transform="translate(400,177.77777777777777)" x2="-400" y2="0" stroke="darkgrey"/><line transform="translate(400,177.77777777777777)" x2="-400" y2="0" stroke="darkgrey"/><line transform="translate(400,177.77777777777777)" x2="-400" y2="0" stroke="darkgrey"/><line transform="translate(400,177.77777777777777)" x2="-400" y2="0" stroke="darkgrey"/><line transform="translate(400,177.77777777777777)" x2="-400" y2="0" stroke="darkgrey"/><line transform="translate(400,177.77777777777777)" x2="-400" y2="0" stroke="darkgrey"/><line transform="translate(400,177.77777777777777)" x2="-400" y2="0" stroke="darkgrey"/><line transform="translate(400,177.77777777777777)" x2="-400" y2="0" stroke="darkgrey"/><line transform="translate(400,177.77777777777777)" x2="-400" y2="0" stroke="darkgrey"/><line transform="translate(400,177.77777777777777)" x2="-400" y2="0" stroke="darkgrey"/><line transform="translate(400,177.77777777777777)" x2="-400" y2="0" stroke="darkgrey"/><line transform="translate(400,177.77777777777777)" x2="-400" y2="0" stroke="darkgrey"/><line transform="translate(400,177.77777777777777)" x2="-400" y2="0" stroke="darkgrey"/><line transform="translate(400,177.77777777777777)" x2="-400" y2="0" stroke="darkgrey"/><line transform="translate(400,177.77777777777777)" x2="-400" y2="0" stroke="darkgrey"/><line transform="translate(400,177.77777777777777)" x2="-400" y2="0" stroke="darkgrey"/><line transform="translate(400,177.77777777777777)" x2="-400" y2="0" stroke="darkgrey"/><line transform="translate(400,177.77777777777777)" x2="-400" y2="0" stroke="darkgrey"/><line transform="translate(400,177.77777777777777)" x2="-400" y2="0" stroke="darkgrey"/><line transform="translate(400,177.77777777777777)" x2="-400" y2="0" stroke="darkgrey"/><line transform="translate(400,177.77777777777777)" x2="-400" y2="0" stroke="darkgrey"/><line transform="translate(400,177.77777777777777)" x2="-400" y2="0" stroke="darkgrey"/><line transform="translate(400,177.77777777777777)" x2="-400" y2="0" stroke="darkgrey"/><line transform="translate(400,177.77777777777777)" x2="-400" y2="0" stroke="darkgrey"/><line transform="translate(400,177.77777777777777)" x2="-400" y2="0" stroke="darkgrey"/><line transform="translate(400,177.77777777777777)" x2="-400" y2="0" stroke="darkgrey"/><line transform="translate(400,177.77777777777777)" x2="-400" y2="0" stroke="darkgrey"/><line transform="translate(400,177.77777777777777)" x2="-400" y2="0" stroke="darkgrey"/><line transform="translate(400,177.77777777777777)" x2="-400" y2="0" stroke="darkgrey"/><line transform="translate(400,177.77777777777777)" x2="-400" y2="0" stroke="darkgrey"/><line transform="translate(400,177.77777777777777)" x2="-400" y2="0" stroke="darkgrey"/><line transform="translate(400,177.77777777777777)" x2="-400" y2="0" stroke="darkgrey"/><line transform="translate(400,177.77777777777777)" x2="-400" y2="0" stroke="darkgrey"/><line transform="translate(400,177.77777777777777)" x2="-400" y2="0" stroke="darkgrey"/><line transform="translate(400,177.77777777777777)" x2="-400" y2="0" stroke="darkgrey"/><line transform="translate(400,177.77777777777777)" x2="-400" y2="0" stroke="darkgrey"/><line transform="translate(400,177.77777777777777)" x2="-400" y2="0" stroke="darkgrey"/><line transform="translate(400,177.77777777777777)" x2="-400" y2="0" stroke="darkgrey"/><line transform="translate(400,177.77777777777777)" x2="-400" y2="0" stroke="darkgrey"/><line transform="translate(400,177.77777777777777)" x2="-400" y2="0" stroke="darkgrey"/><line transform="translate(400,177.77777777777777)" x2="-400" y2="0" stroke="darkgrey"/><line transform="translate(400,177.77777777777777)" x2="-400" y2="0" stroke="darkgrey"/><line transform="translate(400,177.77777777777777)" x2="-400" y2="0" stroke="darkgrey"/><line transform="translate(400,177.77777777777777)" x2="-400" y2="0" stroke="darkgrey"/><line transform="translate(400,177.77777777777777)" x2="-400" y2="0" stroke="darkgrey"/><line transform="translate(400,177.77777777777777)" x2="-400" y2="0" stroke="darkgrey"/><line transform="translate(400,177.77777777777777)" x2="-400" y2="0" stroke="darkgrey"/><line transform="translate(400,177.77777777777777)" x2="-400" y2="0" stroke="darkgrey"/><line transform="translate(400,177.77777777777777)" x2="-400" y2="0" stroke="darkgrey"/><line transform="translate(400,177.77777777777777)" x2="-400" y2="0" stroke="darkgrey"/><line transform="translate(400,177.77777777777777)" x2="-400" y2="0" stroke="darkgrey"/><line transform="translate(400,177.77777777777777)" x2="-400" y2="0" stroke="darkgrey"/><line transform="translate(400,177.77777777777777)" x2="-400" y2="0" stroke="darkgrey"/><line transform="translate(400,177.77777777777777)" x2="-400" y2="0" stroke="darkgrey"/><line transform="translate(400,177.77777777777777)" x2="-400" y2="0" stroke="darkgrey"/><line transform="translate(400,177.77777777777777)" x2="-400" y2="0" stroke="darkgrey"/><line transform="translate(400,177.77777777777777)" x2="-400" y2="0" stroke="darkgrey"/><line transform="translate(400,177.77777777777777)" x2="-400" y2="0" stroke="darkgrey"/><line transform="translate(400,177.77777777777777)" x2="-400" y2="0" stroke="darkgrey"/><line transform="translate(400,177.77777777777777)" x2="-400" y2="0" stroke="darkgrey"/><line transform="translate(400,177.77777777777777)" x2="-400" y2="0" stroke="darkgrey"/><line transform="translate(400,177.77777777777777)" x2="-400" y2="0" stroke="darkgrey"/><line transform="translate(400,177.77777777777777)" x2="-400" y2="0" stroke="darkgrey"/></g><g class="mark-group role-title"><g transform="translate(200,-22)"><path class="background" aria-hidden="true" d="M0,0h0v0h0Z" pointer-events="none"/><g><g class="mark-text role-title-text" role="graphics-symbol" aria-roledescription="title" aria-label="Title text 'Predicted vs residuals'" pointer-events="none"><text text-anchor="middle" transform="translate(0,10)" font-family="sans-serif" font-size="13px" font-weight="bold" fill="#000" opacity="1">Predicted vs residuals</text></g></g><path class="foreground" aria-hidden="true" d="" pointer-events="none" display="none"/></g></g></g><path class="foreground" aria-hidden="true" d="" display="none"/></g></g></g></svg>
