<?xml version="1.0" encoding="utf-8"?>
<!DOCTYPE svg PUBLIC "-//W3C//DTD SVG 1.1//EN" "http://www.w3.org/Graphics/SVG/1.1/DTD/svg11.dtd">
<svg xmlns="http://www.w3.org/2000/svg" xmlns:xlink="http://www.w3.org/1999/xlink" version="1.1" class="marks" width="447" height="464" viewBox="0 0 447 464"><rect width="447" height="464" fill="white"/><g fill="none" stroke-miterlimit="10" transform="translate(41,27)"><g class="mark-group role-frame root" role="graphics-object" aria-roledescription="group mark container"><g transform="translate(0,0)"><path class="background" aria-hidden="true" d="M0.5,0.5h400v400h-400Z" stroke="#ddd"/><g><g class="mark-group role-axis" role="graphics-symbol" aria-roledescription="axis" aria-label="X-axis titled 'x' for a linear scale with values from 7 to 13"><g transform="translate(0.5,400.5)"><path class="background" aria-hidden="true" d="M0,0h0v0h0Z" pointer-events="none"/><g><g class="mark-rule role-axis-tick" pointer-events="none"><line transform="translate(0,0)" x2="0" y2="5" stroke="#888" stroke-width="1" opacity="1"/><line transform="translate(33,0)" x2="0" y2="5" stroke="#888" stroke-width="1" opacity="1"/><line transform="translate(67,0)" x2="0" y2="5" stroke="#888" stroke-width="1" opacity="1"/><line transform="translate(100,0)" x2="0" y2="5" stroke="#888" stroke-width="1" opacity="1"/><line transform="translate(133,0)" x2="0" y2="5" stroke="#888" stroke-width="1" opacity="1"/><line transform="translate(167,0)" x2="0" y2="5" stroke="#888" stroke-width="1" opacity="1"/><line transform="translate(200,0)" x2="0" y2="5" stroke="#888" stroke-width="1" opacity="1"/><line transform="translate(233,0)" x2="0" y2="5" stroke="#888" stroke-width="1" opacity="1"/><line transform="translate(267,0)" x2="0" y2="5" stroke="#888" stroke-width="1" opacity="1"/><line transform="translate(300,0)" x2="0" y2="5" stroke="#888" stroke-width="1" opacity="1"/><line transform="translate(333,0)" x2="0" y2="5" stroke="#888" stroke-width="1" opacity="1"/><line transform="translate(367,0)" x2="0" y2="5" stroke="#888" stroke-width="1" opacity="1"/><line transform="translate(400,0)" x2="0" y2="5" stroke="#888" stroke-width="1" opacity="1"/></g><g class="mark-text role-axis-label" pointer-events="none"><text text-anchor="start" transform="translate(0,15)" font-family="sans-serif" font-size="10px" fill="#000" opacity="1">7.0</text><text text-anchor="middle" transform="translate(33.33333333333333,15)" font-family="sans-serif" font-size="10px" fill="#000" opacity="1">7.5</text><text text-anchor="middle" transform="translate(66.66666666666666,15)" font-family="sans-serif" font-size="10px" fill="#000" opacity="1">8.0</text><text text-anchor="middle" transform="translate(100,15)" font-family="sans-serif" font-size="10px" fill="#000" opacity="1">8.5</text><text text-anchor="middle" transform="translate(133.33333333333331,15)" font-family="sans-serif" font-size="10px" fill="#000" opacity="1">9.0</text><text text-anchor="middle" transform="translate(166.66666666666669,15)" font-family="sans-serif" font-size="10px" fill="#000" opacity="1">9.5</text><text text-anchor="middle" transform="translate(200,15)" font-family="sans-serif" font-size="10px" fill="#000" opacity="1">10.0</text><text text-anchor="middle" transform="translate(233.33333333333334,15)" font-family="sans-serif" font-size="10px" fill="#000" opacity="1">10.5</text><text text-anchor="middle" transform="translate(266.66666666666663,15)" font-family="sans-serif" font-size="10px" fill="#000" opacity="1">11.0</text><text text-anchor="middle" transform="translate(300,15)" font-family="sans-serif" font-size="10px" fill="#000" opacity="1">11.5</text><text text-anchor="middle" transform="translate(333.33333333333337,15)" font-family="sans-serif" font-size="10px" fill="#000" opacity="1">12.0</text><text text-anchor="middle" transform="translate(366.66666666666663,15)" font-family="sans-serif" font-size="10px" fill="#000" opacity="1">12.5</text><text text-anchor="end" transform="translate(400,15)" font-family="sans-serif" font-size="10px" fill="#000" opacity="1">13.0</text></g><g class="mark-rule role-axis-domain" pointer-events="none"><line transform="translate(0,0)" x2="400" y2="0" stroke="#888" stroke-width="1" opacity="1"/></g><g class="mark-text role-axis-title" pointer-events="none"><text text-anchor="middle" transform="translate(200,30)" font-family="sans-serif" font-size="11px" font-weight="bold" fill="#000" opacity="1">x</text></g></g><path class="foreground" aria-hidden="true" d="" pointer-events="none" display="none"/></g></g><g class="mark-group role-axis" role="graphics-symbol" aria-roledescription="axis" aria-label="Y-axis titled 'y' for a linear scale with values from −3 to 9"><g transform="translate(0.5,0.5)"><path class="background" aria-hidden="true" d="M0,0h0v0h0Z" pointer-events="none"/><g><g class="mark-rule role-axis-tick" pointer-events="none"><line transform="translate(0,400)" x2="-5" y2="0" stroke="#888" stroke-width="1" opacity="1"/><line transform="translate(0,367)" x2="-5" y2="0" stroke="#888" stroke-width="1" opacity="1"/><line transform="translate(0,333)" x2="-5" y2="0" stroke="#888" stroke-width="1" opacity="1"/><line transform="translate(0,300)" x2="-5" y2="0" stroke="#888" stroke-width="1" opacity="1"/><line transform="translate(0,267)" x2="-5" y2="0" stroke="#888" stroke-width="1" opacity="1"/><line transform="translate(0,233)" x2="-5" y2="0" stroke="#888" stroke-width="1" opacity="1"/><line transform="translate(0,200)" x2="-5" y2="0" stroke="#888" stroke-width="1" opacity="1"/><line transform="translate(0,167)" x2="-5" y2="0" stroke="#888" stroke-width="1" opacity="1"/><line transform="translate(0,133)" x2="-5" y2="0" stroke="#888" stroke-width="1" opacity="1"/><line transform="translate(0,100)" x2="-5" y2="0" stroke="#888" stroke-width="1" opacity="1"/><line transform="translate(0,67)" x2="-5" y2="0" stroke="#888" stroke-width="1" opacity="1"/><line transform="translate(0,33)" x2="-5" y2="0" stroke="#888" stroke-width="1" opacity="1"/><line transform="translate(0,0)" x2="-5" y2="0" stroke="#888" stroke-width="1" opacity="1"/></g><g class="mark-text role-axis-label" pointer-events="none"><text text-anchor="end" transform="translate(-7,403)" font-family="sans-serif" font-size="10px" fill="#000" opacity="1">−3</text><text text-anchor="end" transform="translate(-7,369.66666666666663)" font-family="sans-serif" font-size="10px" fill="#000" opacity="1">−2</text><text text-anchor="end" transform="translate(-7,336.33333333333337)" font-family="sans-serif" font-size="10px" fill="#000" opacity="1">−1</text><text text-anchor="end" transform="translate(-7,303)" font-family="sans-serif" font-size="10px" fill="#000" opacity="1">0</text><text text-anchor="end" transform="translate(-7,269.6666666666667)" font-family="sans-serif" font-size="10px" fill="#000" opacity="1">1</text><text text-anchor="end" transform="translate(-7,236.33333333333331)" font-family="sans-serif" font-size="10px" fill="#000" opacity="1">2</text><text text-anchor="end" transform="translate(-7,203)" font-family="sans-serif" font-size="10px" fill="#000" opacity="1">3</text><text text-anchor="end" transform="translate(-7,169.66666666666666)" font-family="sans-serif" font-size="10px" fill="#000" opacity="1">4</text><text text-anchor="end" transform="translate(-7,136.33333333333334)" font-family="sans-serif" font-size="10px" fill="#000" opacity="1">5</text><text text-anchor="end" transform="translate(-7,103)" font-family="sans-serif" font-size="10px" fill="#000" opacity="1">6</text><text text-anchor="end" transform="translate(-7,69.66666666666666)" font-family="sans-serif" font-size="10px" fill="#000" opacity="1">7</text><text text-anchor="end" transform="translate(-7,36.33333333333335)" font-family="sans-serif" font-size="10px" fill="#000" opacity="1">8</text><text text-anchor="end" transform="translate(-7,3)" font-family="sans-serif" font-size="10px" fill="#000" opacity="1">9</text></g><g class="mark-rule role-axis-domain" pointer-events="none"><line transform="translate(0,400)" x2="0" y2="-400" stroke="#888" stroke-width="1" opacity="1"/></g><g class="mark-text role-axis-title" pointer-events="none"><text text-anchor="middle" transform="translate(-25,200) rotate(-90) translate(0,-2)" font-family="sans-serif" font-size="11px" font-weight="bold" fill="#000" opacity="1">y</text></g></g><path class="foreground" aria-hidden="true" d="" pointer-events="none" display="none"/></g></g><g class="mark-rect role-mark layer_0_layer_0_marks" aria-hidden="true"><path d="M19.16666666666669,50.400470111796146h15v1h-15Z" fill="dimgrey" opacity="0.7"/><path d="M32.49999999999997,64.58247278941775h15v1h-15Z" fill="dimgrey" opacity="0.7"/><path d="M72.49999999999994,88.65664531382394h15v1h-15Z" fill="dimgrey" opacity="0.7"/><path d="M125.83333333333331,100.59519516142976h15v1h-15Z" fill="dimgrey" opacity="0.7"/><path d="M219.1666666666667,101.51976908228691h15v1h-15Z" fill="dimgrey" opacity="0.7"/><path d="M305.83333333333326,84.2829474000894h15v1h-15Z" fill="dimgrey" opacity="0.7"/><path d="M305.83333333333326,84.2829474000894h15v1h-15Z" fill="dimgrey" opacity="0.7"/><path d="M312.50000000000006,81.61479592821806h15v1h-15Z" fill="dimgrey" opacity="0.7"/><path d="M352.5,54.37591842611068h15v1h-15Z" fill="dimgrey" opacity="0.7"/><path d="M385.83333333333337,-0.2783545356784263h15v1h-15Z" fill="dimgrey" opacity="0.7"/></g><g class="mark-rect role-mark layer_0_layer_1_marks" aria-hidden="true"><path d="M19.16666666666669,351.2742010668694h15v1h-15Z" fill="dimgrey" opacity="0.7"/><path d="M32.49999999999997,335.9541033343791h15v1h-15Z" fill="dimgrey" opacity="0.7"/><path d="M72.49999999999994,308.46564564536686h15v1h-15Z" fill="dimgrey" opacity="0.7"/><path d="M125.83333333333331,291.97471557828624h15v1h-15Z" fill="dimgrey" opacity="0.7"/><path d="M219.1666666666667,283.08347627334814h15v1h-15Z" fill="dimgrey" opacity="0.7"/><path d="M305.83333333333326,292.92268009889915h15v1h-15Z" fill="dimgrey" opacity="0.7"/><path d="M305.83333333333326,292.92268009889915h15v1h-15Z" fill="dimgrey" opacity="0.7"/><path d="M312.50000000000006,295.021784043336h15v1h-15Z" fill="dimgrey" opacity="0.7"/><path d="M352.5,318.84637638083734h15v1h-15Z" fill="dimgrey" opacity="0.7"/><path d="M385.83333333333337,370.6554117054547h15v1h-15Z" fill="dimgrey" opacity="0.7"/></g><g class="mark-rule role-mark layer_0_layer_2_marks" role="graphics-object" aria-roledescription="rule mark container"><line aria-label="y: 7.47298589665; upper_ucli: −1.55322603201; x: 7.4; lcli: −1.55322603201; ucli: 7.47298589665" role="graphics-symbol" aria-roledescription="errorbar" transform="translate(26.66666666666669,50.900470111796146)" x2="0" y2="300.87373095507326" stroke="dimgrey"/><line aria-label="y: 7.04752581632; upper_ucli: −1.09362310003; x: 7.6; lcli: −1.09362310003; ucli: 7.04752581632" role="graphics-symbol" aria-roledescription="errorbar" transform="translate(39.99999999999997,65.08247278941775)" x2="0" y2="271.37163054496136" stroke="dimgrey"/><line aria-label="y: 6.32530064059; upper_ucli: −0.268969369361; x: 8.2; lcli: −0.268969369361; ucli: 6.32530064059" role="graphics-symbol" aria-roledescription="errorbar" transform="translate(79.99999999999994,89.15664531382394)" x2="0" y2="219.8090003315429" stroke="dimgrey"/><line aria-label="y: 5.96714414516; upper_ucli: 0.225758532651; x: 9; lcli: 0.225758532651; ucli: 5.96714414516" role="graphics-symbol" aria-roledescription="errorbar" transform="translate(133.33333333333331,101.09519516142976)" x2="0" y2="191.37952041685648" stroke="dimgrey"/><line aria-label="y: 5.93940692753; upper_ucli: 0.4924957118; x: 10.4; lcli: 0.4924957118; ucli: 5.93940692753" role="graphics-symbol" aria-roledescription="errorbar" transform="translate(226.6666666666667,102.01976908228691)" x2="0" y2="181.5637071910612" stroke="dimgrey"/><line aria-label="y: 6.456511578; upper_ucli: 0.197319597033; x: 11.7; lcli: 0.197319597033; ucli: 6.456511578" role="graphics-symbol" aria-roledescription="errorbar" transform="translate(313.33333333333326,84.7829474000894)" x2="0" y2="208.63973269880975" stroke="dimgrey"/><line aria-label="y: 6.456511578; upper_ucli: 0.197319597033; x: 11.7; lcli: 0.197319597033; ucli: 6.456511578" role="graphics-symbol" aria-roledescription="errorbar" transform="translate(313.33333333333326,84.7829474000894)" x2="0" y2="208.63973269880975" stroke="dimgrey"/><line aria-label="y: 6.53655612215; upper_ucli: 0.1343464787; x: 11.8; lcli: 0.1343464787; ucli: 6.53655612215" role="graphics-symbol" aria-roledescription="errorbar" transform="translate(320.00000000000006,82.11479592821806)" x2="0" y2="213.40698811511797" stroke="dimgrey"/><line aria-label="y: 7.35372244722; upper_ucli: −0.580391291425; x: 12.4; lcli: −0.580391291425; ucli: 7.35372244722" role="graphics-symbol" aria-roledescription="errorbar" transform="translate(360,54.87591842611068)" x2="0" y2="264.47045795472667" stroke="dimgrey"/><line aria-label="y: 8.99335063607; upper_ucli: −2.13466235116; x: 12.9; lcli: −2.13466235116; ucli: 8.99335063607" role="graphics-symbol" aria-roledescription="errorbar" transform="translate(393.33333333333337,0.22164546432157373)" x2="0" y2="370.9337662411331" stroke="dimgrey"/></g><g class="mark-area role-mark layer_1_layer_0_marks" role="graphics-object" aria-roledescription="area mark container"><path aria-label="y: 4.85803833163; upper_uclp: 1.06172153301; x: 7.4; lclp: 1.06172153301; uclp: 4.85803833163" role="graphics-symbol" aria-roledescription="errorband" d="M26.66666666666669,138.06538894578887L39.99999999999997,140.68183199492793L79.99999999999994,148.05486356263447L133.33333333333331,156.12021012612735L226.6666666666667,159.84326715188882L313.33333333333326,146.63536164806524L313.33333333333326,146.63536164806524L320.00000000000006,145.13445679321055L360,135.2855020218104L393.33333333333337,126.28436507694781L393.33333333333337,245.09269209282846L360,238.9367927851376L320.00000000000006,232.50212317834357L313.33333333333326,231.57026585092328L313.33333333333326,231.57026585092328L226.6666666666667,225.75997820374621L133.33333333333331,237.44970061358862L79.99999999999994,250.0674273965564L39.99999999999997,260.85474412886896L26.66666666666669,264.6092822328767Z" fill="darkgrey" opacity="0.3"/></g><g class="mark-line role-mark layer_2_marks" role="graphics-object" aria-roledescription="line mark container"><path aria-label="x: 7.4; predicted: 2.95987993232" role="graphics-symbol" aria-roledescription="line mark" d="M26.66666666666669,201.33733558933278L39.99999999999997,200.7682880618985L79.99999999999994,199.06114547959538L133.33333333333331,196.784955369858L226.6666666666667,192.80162267781753L313.33333333333326,189.10281374949426L313.33333333333326,189.10281374949426L320.00000000000006,188.81828998577706L360,187.11114740347398L393.33333333333337,185.6885285848881" stroke="darkorange" stroke-width="2"/></g><g class="mark-symbol role-mark layer_3_marks" role="graphics-object" aria-roledescription="symbol mark container"><path aria-label="x: 7.4; y: 2.3" role="graphics-symbol" aria-roledescription="point" transform="translate(26.66666666666669,223.33333333333334)" d="M2.7386127875258306,0A2.7386127875258306,2.7386127875258306,0,1,1,-2.7386127875258306,0A2.7386127875258306,2.7386127875258306,0,1,1,2.7386127875258306,0" stroke="#4c78a8" stroke-width="2" opacity="0.7"/><path aria-label="x: 7.6; y: 3" role="graphics-symbol" aria-roledescription="point" transform="translate(39.99999999999997,200)" d="M2.7386127875258306,0A2.7386127875258306,2.7386127875258306,0,1,1,-2.7386127875258306,0A2.7386127875258306,2.7386127875258306,0,1,1,2.7386127875258306,0" stroke="#4c78a8" stroke-width="2" opacity="0.7"/><path aria-label="x: 8.2; y: 2.9" role="graphics-symbol" aria-roledescription="point" transform="translate(79.99999999999994,203.33333333333331)" d="M2.7386127875258306,0A2.7386127875258306,2.7386127875258306,0,1,1,-2.7386127875258306,0A2.7386127875258306,2.7386127875258306,0,1,1,2.7386127875258306,0" stroke="#4c78a8" stroke-width="2" opacity="0.7"/><path aria-label="x: 9; y: 4.8" role="graphics-symbol" aria-roledescription="point" transform="translate(133.33333333333331,140)" d="M2.7386127875258306,0A2.7386127875258306,2.7386127875258306,0,1,1,-2.7386127875258306,0A2.7386127875258306,2.7386127875258306,0,1,1,2.7386127875258306,0" stroke="#4c78a8" stroke-width="2" opacity="0.7"/><path aria-label="x: 10.4; y: 1.3" role="graphics-symbol" aria-roledescription="point" transform="translate(226.6666666666667,256.66666666666663)" d="M2.7386127875258306,0A2.7386127875258306,2.7386127875258306,0,1,1,-2.7386127875258306,0A2.7386127875258306,2.7386127875258306,0,1,1,2.7386127875258306,0" stroke="#4c78a8" stroke-width="2" opacity="0.7"/><path aria-label="x: 11.7; y: 3.6" role="graphics-symbol" aria-roledescription="point" transform="translate(313.33333333333326,180.00000000000003)" d="M2.7386127875258306,0A2.7386127875258306,2.7386127875258306,0,1,1,-2.7386127875258306,0A2.7386127875258306,2.7386127875258306,0,1,1,2.7386127875258306,0" stroke="#4c78a8" stroke-width="2" opacity="0.7"/><path aria-label="x: 11.7; y: 2.3" role="graphics-symbol" aria-roledescription="point" transform="translate(313.33333333333326,223.33333333333334)" d="M2.7386127875258306,0A2.7386127875258306,2.7386127875258306,0,1,1,-2.7386127875258306,0A2.7386127875258306,2.7386127875258306,0,1,1,2.7386127875258306,0" stroke="#4c78a8" stroke-width="2" opacity="0.7"/><path aria-label="x: 11.8; y: 4.6" role="graphics-symbol" aria-roledescription="point" transform="translate(320.00000000000006,146.66666666666669)" d="M2.7386127875258306,0A2.7386127875258306,2.7386127875258306,0,1,1,-2.7386127875258306,0A2.7386127875258306,2.7386127875258306,0,1,1,2.7386127875258306,0" stroke="#4c78a8" stroke-width="2" opacity="0.7"/><path aria-label="x: 12.4; y: 3" role="graphics-symbol" aria-roledescription="point" transform="translate(360,200)" d="M2.7386127875258306,0A2.7386127875258306,2.7386127875258306,0,1,1,-2.7386127875258306,0A2.7386127875258306,2.7386127875258306,0,1,1,2.7386127875258306,0" stroke="#4c78a8" stroke-width="2" opacity="0.7"/><path aria-label="x: 12.9; y: 5.4" role="graphics-symbol" aria-roledescription="point" transform="translate(393.33333333333337,119.99999999999997)" d="M2.7386127875258306,0A2.7386127875258306,2.7386127875258306,0,1,1,-2.7386127875258306,0A2.7386127875258306,2.7386127875258306,0,1,1,2.7386127875258306,0" stroke="#4c78a8" stroke-width="2" opacity="0.7"/></g><g class="mark-group role-title"><g transform="translate(200,-22)"><path class="background" aria-hidden="true" d="M0,0h0v0h0Z" pointer-events="none"/><g><g class="mark-text role-title-text" role="graphics-symbol" aria-roledescription="title" aria-label="Title text 'Fit Plot: x vs y'" pointer-events="none"><text text-anchor="middle" transform="translate(0,10)" font-family="sans-serif" font-size="13px" font-weight="bold" fill="#000" opacity="1">Fit Plot: x vs y</text></g></g><path class="foreground" aria-hidden="true" d="" pointer-events="none" display="none"/></g></g></g><path class="foreground" aria-hidden="true" d="" display="none"/></g></g></g></svg>
